<svg xmlns="http://www.w3.org/2000/svg" height="100%" width="100%" viewBox="175 0 1400 1200" preserveAspectRatio="xMidYMin" id="item-chart">
  <style>
    svg { background-color: white; }

    text.heavy {
      font: 28px Arial, Verdana, sans-serif;
    }
  </style>

  <defs>
    <pattern id="diagonalHatch" patternUnits="userSpaceOnUse" width="4" height="8" patternTransform="rotate(-45 2 2)">
      <path d="M -1,2 l 6,0" stroke="white" stroke-width=".9"/>
    </pattern>
  </defs>

  <text x="858" y="957" alignment-baseline="middle" text-anchor="middle" tspan="" font-weight=" bold" fill="rgb(0,0,0)" class="heavy text-inject">N/A</text>
  <text x="1253" y="700" alignment-baseline="middle" text-anchor="middle" tspan="" font-weight=" bold" fill="rgb(0,0,0)" class="heavy text-inject">N/A</text>
  <text x="858" y="192" alignment-baseline="middle" text-anchor="middle" tspan="" font-weight=" bold" fill="rgb(0,0,0)" class="heavy text-inject">N/A</text>
  <text x="858" y="853" alignment-baseline="middle" text-anchor="middle" tspan="" font-weight=" bold" fill="rgb(0,0,0)" class="heavy text-inject">N/A</text>
  <text x="374" y="781" alignment-baseline="middle" text-anchor="middle" tspan="" font-weight=" bold" fill="rgb(0,0,0)" class="heavy text-inject">N/A</text>
  <text x="858" y="906" alignment-baseline="middle" text-anchor="middle" tspan="" font-weight=" bold" fill="rgb(0,0,0)" class="heavy text-inject">N/A</text>
  <text x="528" y="520" alignment-baseline="middle" text-anchor="middle" tspan="" font-weight=" bold" fill="rgb(0,0,0)" class="heavy text-inject">N/A</text>
  <text x="420" y="1150" alignment-baseline="middle" text-anchor="left" tspan="" font-weight=" bold" fill="rgb(0,0,0)" class="heavy text-inject">N/A</text>
  <text x="730" y="1150" alignment-baseline="middle" text-anchor="left" tspan="" font-weight=" bold" fill="rgb(0,0,0)" class="heavy text-inject">N/A</text>
  <text x="533" y="561" alignment-baseline="middle" text-anchor="middle" tspan="" font-weight=" bold" fill="rgb(0,0,0)" class="heavy text-inject">N/A</text>
  <text x="620" y="1150" alignment-baseline="middle" text-anchor="left" tspan="" font-weight=" bold" fill="rgb(0,0,0)" class="heavy text-inject">N/A</text>
  <text x="420" y="40" alignment-baseline="middle" text-anchor="left" tspan="" font-weight=" bold" fill="rgb(0,0,0)" class="heavy text-inject">N/A</text>
  <text x="450" y="90" alignment-baseline="middle" text-anchor="left" tspan="" font-weight=" bold" fill="rgb(0,0,0)" class="heavy text-inject">N/A</text>
  <text x="1336" y="544" alignment-baseline="middle" text-anchor="middle" tspan="" font-weight=" bold" fill="rgb(0,0,0)" class="heavy text-inject">N/A</text>

  <text x="1530" y="1150" alignment-baseline="middle" text-anchor="end" font-weight="bold" fill="rgb(0,0,0)" class="heavy">ASME B16.5 2019</text>
  <text x="225" y="1150" alignment-baseline="middle" text-anchor="left" tspan="" font-weight=" bold" fill="rgb(0,0,0)" class="heavy">StudBolt Size:                   UNC (or           ) x          Long</text>
  <text x="225" y="90" alignment-baseline="middle" text-anchor="left" tspan="" font-weight=" bold" fill="rgb(0,0,0)" class="heavy">S/Bolts and Nuts:</text>
  <text x="225" y="40" alignment-baseline="middle" text-anchor="left" tspan="" font-weight=" bold" fill="rgb(0,0,0)" class="heavy">Flange Weight:</text>

  <line x1="728" y1="344" x2="729" y2="342" style=" stroke: rgb(0, 0,0 );stroke-width: .5;"></line>
  <line x1="728" y1="354" x2="740" y2="342" style=" stroke: rgb(0, 0,0 );stroke-width: .5;"></line>
  <line x1="728" y1="365" x2="751" y2="342" style=" stroke: rgb(0, 0,0 );stroke-width: .5;"></line>
  <line x1="728" y1="376" x2="761" y2="342" style=" stroke: rgb(0, 0,0 );stroke-width: .5;"></line>
  <line x1="728" y1="386" x2="767" y2="347" style=" stroke: rgb(0, 0,0 );stroke-width: .5;"></line>
  <line x1="728" y1="397" x2="767" y2="358" style=" stroke: rgb(0, 0,0 );stroke-width: .5;"></line>
  <line x1="728" y1="407" x2="767" y2="368" style=" stroke: rgb(0, 0,0 );stroke-width: .5;"></line>
  <line x1="728" y1="418" x2="767" y2="379" style=" stroke: rgb(0, 0,0 );stroke-width: .5;"></line>
  <line x1="728" y1="429" x2="767" y2="390" style=" stroke: rgb(0, 0,0 );stroke-width: .5;"></line>
  <line x1="728" y1="439" x2="767" y2="400" style=" stroke: rgb(0, 0,0 );stroke-width: .5;"></line>
  <line x1="728" y1="450" x2="767" y2="411" style=" stroke: rgb(0, 0,0 );stroke-width: .5;"></line>
  <line x1="728" y1="460" x2="767" y2="421" style=" stroke: rgb(0, 0,0 );stroke-width: .5;"></line>
  <line x1="728" y1="471" x2="767" y2="432" style=" stroke: rgb(0, 0,0 );stroke-width: .5;"></line>
  <line x1="728" y1="482" x2="767" y2="443" style=" stroke: rgb(0, 0,0 );stroke-width: .5;"></line>
  <line x1="728" y1="492" x2="767" y2="453" style=" stroke: rgb(0, 0,0 );stroke-width: .5;"></line>
  <line x1="728" y1="503" x2="767" y2="464" style=" stroke: rgb(0, 0,0 );stroke-width: .5;"></line>
  <line x1="728" y1="514" x2="767" y2="475" style=" stroke: rgb(0, 0,0 );stroke-width: .5;"></line>
  <line x1="728" y1="524" x2="767" y2="485" style=" stroke: rgb(0, 0,0 );stroke-width: .5;"></line>
  <line x1="728" y1="535" x2="767" y2="496" style=" stroke: rgb(0, 0,0 );stroke-width: .5;"></line>
  <line x1="593" y1="680" x2="595" y2="679" style=" stroke: rgb(0, 0,0 );stroke-width: .5;"></line>
  <line x1="728" y1="545" x2="767" y2="506" style=" stroke: rgb(0, 0,0 );stroke-width: .5;"></line>
  <line x1="593" y1="691" x2="605" y2="679" style=" stroke: rgb(0, 0,0 );stroke-width: .5;"></line>
  <line x1="728" y1="556" x2="767" y2="517" style=" stroke: rgb(0, 0,0 );stroke-width: .5;"></line>
  <line x1="593" y1="702" x2="614" y2="681" style=" stroke: rgb(0, 0,0 );stroke-width: .5;"></line>
  <line x1="948" y1="346" x2="952" y2="342" style=" stroke: rgb(0, 0,0 );stroke-width: .5;"></line>
  <line x1="728" y1="567" x2="767" y2="528" style=" stroke: rgb(0, 0,0 );stroke-width: .5;"></line>
  <line x1="593" y1="712" x2="614" y2="692" style=" stroke: rgb(0, 0,0 );stroke-width: .5;"></line>
  <line x1="948" y1="357" x2="963" y2="342" style=" stroke: rgb(0, 0,0 );stroke-width: .5;"></line>
  <line x1="728" y1="577" x2="767" y2="538" style=" stroke: rgb(0, 0,0 );stroke-width: .5;"></line>
  <line x1="593" y1="723" x2="614" y2="702" style=" stroke: rgb(0, 0,0 );stroke-width: .5;"></line>
  <line x1="948" y1="367" x2="973" y2="342" style=" stroke: rgb(0, 0,0 );stroke-width: .5;"></line>
  <line x1="728" y1="588" x2="767" y2="549" style=" stroke: rgb(0, 0,0 );stroke-width: .5;"></line>
  <line x1="593" y1="733" x2="614" y2="713" style=" stroke: rgb(0, 0,0 );stroke-width: .5;"></line>
  <line x1="948" y1="378" x2="984" y2="342" style=" stroke: rgb(0, 0,0 );stroke-width: .5;"></line>
  <line x1="728" y1="598" x2="767" y2="559" style=" stroke: rgb(0, 0,0 );stroke-width: .5;"></line>
  <line x1="600" y1="737" x2="614" y2="723" style=" stroke: rgb(0, 0,0 );stroke-width: .5;"></line>
  <line x1="948" y1="389" x2="987" y2="350" style=" stroke: rgb(0, 0,0 );stroke-width: .5;"></line>
  <line x1="728" y1="609" x2="767" y2="570" style=" stroke: rgb(0, 0,0 );stroke-width: .5;"></line>
  <line x1="610" y1="737" x2="614" y2="734" style=" stroke: rgb(0, 0,0 );stroke-width: .5;"></line>
  <line x1="948" y1="399" x2="987" y2="360" style=" stroke: rgb(0, 0,0 );stroke-width: .5;"></line>
  <line x1="728" y1="620" x2="767" y2="581" style=" stroke: rgb(0, 0,0 );stroke-width: .5;"></line>
  <line x1="728" y1="630" x2="767" y2="591" style=" stroke: rgb(0, 0,0 );stroke-width: .5;"></line>
  <line x1="948" y1="410" x2="987" y2="371" style=" stroke: rgb(0, 0,0 );stroke-width: .5;"></line>
  <line x1="683" y1="685" x2="690" y2="679" style=" stroke: rgb(0, 0,0 );stroke-width: .5;"></line>
  <line x1="948" y1="420" x2="987" y2="381" style=" stroke: rgb(0, 0,0 );stroke-width: .5;"></line>
  <line x1="728" y1="641" x2="767" y2="602" style=" stroke: rgb(0, 0,0 );stroke-width: .5;"></line>
  <line x1="683" y1="696" x2="701" y2="679" style=" stroke: rgb(0, 0,0 );stroke-width: .5;"></line>
  <line x1="948" y1="431" x2="987" y2="392" style=" stroke: rgb(0, 0,0 );stroke-width: .5;"></line>
  <line x1="728" y1="651" x2="767" y2="612" style=" stroke: rgb(0, 0,0 );stroke-width: .5;"></line>
  <line x1="683" y1="707" x2="711" y2="679" style=" stroke: rgb(0, 0,0 );stroke-width: .5;"></line>
  <line x1="948" y1="442" x2="987" y2="403" style=" stroke: rgb(0, 0,0 );stroke-width: .5;"></line>
  <line x1="728" y1="662" x2="767" y2="623" style=" stroke: rgb(0, 0,0 );stroke-width: .5;"></line>
  <line x1="683" y1="717" x2="767" y2="634" style=" stroke: rgb(0, 0,0 );stroke-width: .5;"></line>
  <line x1="948" y1="452" x2="987" y2="413" style=" stroke: rgb(0, 0,0 );stroke-width: .5;"></line>
  <line x1="683" y1="728" x2="767" y2="644" style=" stroke: rgb(0, 0,0 );stroke-width: .5;"></line>
  <line x1="948" y1="463" x2="987" y2="424" style=" stroke: rgb(0, 0,0 );stroke-width: .5;"></line>
  <line x1="685" y1="737" x2="767" y2="655" style=" stroke: rgb(0, 0,0 );stroke-width: .5;"></line>
  <line x1="948" y1="473" x2="987" y2="434" style=" stroke: rgb(0, 0,0 );stroke-width: .5;"></line>
  <line x1="695" y1="737" x2="767" y2="665" style=" stroke: rgb(0, 0,0 );stroke-width: .5;"></line>
  <line x1="948" y1="484" x2="987" y2="445" style=" stroke: rgb(0, 0,0 );stroke-width: .5;"></line>
  <line x1="695" y1="748" x2="767" y2="676" style=" stroke: rgb(0, 0,0 );stroke-width: .5;"></line>
  <line x1="948" y1="495" x2="987" y2="456" style=" stroke: rgb(0, 0,0 );stroke-width: .5;"></line>
  <line x1="702" y1="752" x2="767" y2="687" style=" stroke: rgb(0, 0,0 );stroke-width: .5;"></line>
  <line x1="948" y1="505" x2="987" y2="466" style=" stroke: rgb(0, 0,0 );stroke-width: .5;"></line>
  <line x1="713" y1="752" x2="767" y2="697" style=" stroke: rgb(0, 0,0 );stroke-width: .5;"></line>
  <line x1="948" y1="516" x2="987" y2="477" style=" stroke: rgb(0, 0,0 );stroke-width: .5;"></line>
  <line x1="723" y1="752" x2="767" y2="708" style=" stroke: rgb(0, 0,0 );stroke-width: .5;"></line>
  <line x1="948" y1="527" x2="987" y2="488" style=" stroke: rgb(0, 0,0 );stroke-width: .5;"></line>
  <line x1="734" y1="752" x2="767" y2="718" style=" stroke: rgb(0, 0,0 );stroke-width: .5;"></line>
  <line x1="948" y1="537" x2="987" y2="498" style=" stroke: rgb(0, 0,0 );stroke-width: .5;"></line>
  <line x1="744" y1="752" x2="767" y2="729" style=" stroke: rgb(0, 0,0 );stroke-width: .5;"></line>
  <line x1="948" y1="548" x2="987" y2="509" style=" stroke: rgb(0, 0,0 );stroke-width: .5;"></line>
  <line x1="755" y1="752" x2="767" y2="740" style=" stroke: rgb(0, 0,0 );stroke-width: .5;"></line>
  <line x1="948" y1="558" x2="987" y2="519" style=" stroke: rgb(0, 0,0 );stroke-width: .5;"></line>
  <line x1="766" y1="752" x2="767" y2="750" style=" stroke: rgb(0, 0,0 );stroke-width: .5;"></line>
  <line x1="948" y1="569" x2="987" y2="530" style=" stroke: rgb(0, 0,0 );stroke-width: .5;"></line>
  <line x1="948" y1="580" x2="987" y2="541" style=" stroke: rgb(0, 0,0 );stroke-width: .5;"></line>
  <line x1="948" y1="590" x2="987" y2="551" style=" stroke: rgb(0, 0,0 );stroke-width: .5;"></line>
  <line x1="948" y1="601" x2="987" y2="562" style=" stroke: rgb(0, 0,0 );stroke-width: .5;"></line>
  <line x1="948" y1="611" x2="987" y2="572" style=" stroke: rgb(0, 0,0 );stroke-width: .5;"></line>
  <line x1="948" y1="622" x2="987" y2="583" style=" stroke: rgb(0, 0,0 );stroke-width: .5;"></line>
  <line x1="948" y1="633" x2="987" y2="594" style=" stroke: rgb(0, 0,0 );stroke-width: .5;"></line>
  <line x1="948" y1="643" x2="987" y2="604" style=" stroke: rgb(0, 0,0 );stroke-width: .5;"></line>
  <line x1="948" y1="654" x2="987" y2="615" style=" stroke: rgb(0, 0,0 );stroke-width: .5;"></line>
  <line x1="948" y1="664" x2="987" y2="625" style=" stroke: rgb(0, 0,0 );stroke-width: .5;"></line>
  <line x1="948" y1="675" x2="987" y2="636" style=" stroke: rgb(0, 0,0 );stroke-width: .5;"></line>
  <line x1="948" y1="686" x2="987" y2="647" style=" stroke: rgb(0, 0,0 );stroke-width: .5;"></line>
  <line x1="948" y1="696" x2="987" y2="657" style=" stroke: rgb(0, 0,0 );stroke-width: .5;"></line>
  <line x1="948" y1="707" x2="989" y2="667" style=" stroke: rgb(0, 0,0 );stroke-width: .5;"></line>
  <line x1="948" y1="717" x2="994" y2="672" style=" stroke: rgb(0, 0,0 );stroke-width: .5;"></line>
  <line x1="948" y1="728" x2="999" y2="677" style=" stroke: rgb(0, 0,0 );stroke-width: .5;"></line>
  <line x1="948" y1="739" x2="1008" y2="679" style=" stroke: rgb(0, 0,0 );stroke-width: .5;"></line>
  <line x1="948" y1="749" x2="1019" y2="679" style=" stroke: rgb(0, 0,0 );stroke-width: .5;"></line>
  <line x1="957" y1="752" x2="1029" y2="679" style=" stroke: rgb(0, 0,0 );stroke-width: .5;"></line>
  <line x1="967" y1="752" x2="1032" y2="687" style=" stroke: rgb(0, 0,0 );stroke-width: .5;"></line>
  <line x1="978" y1="752" x2="1032" y2="697" style=" stroke: rgb(0, 0,0 );stroke-width: .5;"></line>
  <line x1="988" y1="752" x2="1032" y2="708" style=" stroke: rgb(0, 0,0 );stroke-width: .5;"></line>
  <line x1="999" y1="752" x2="1032" y2="719" style=" stroke: rgb(0, 0,0 );stroke-width: .5;"></line>
  <line x1="1010" y1="752" x2="1020" y2="741" style=" stroke: rgb(0, 0,0 );stroke-width: .5;"></line>
  <line x1="1024" y1="737" x2="1032" y2="729" style=" stroke: rgb(0, 0,0 );stroke-width: .5;"></line>
  <line x1="1102" y1="681" x2="1104" y2="679" style=" stroke: rgb(0, 0,0 );stroke-width: .5;"></line>
  <line x1="1102" y1="691" x2="1114" y2="679" style=" stroke: rgb(0, 0,0 );stroke-width: .5;"></line>
  <line x1="1102" y1="702" x2="1122" y2="681" style=" stroke: rgb(0, 0,0 );stroke-width: .5;"></line>
  <line x1="1102" y1="713" x2="1122" y2="692" style=" stroke: rgb(0, 0,0 );stroke-width: .5;"></line>
  <line x1="1102" y1="723" x2="1122" y2="702" style=" stroke: rgb(0, 0,0 );stroke-width: .5;"></line>
  <line x1="1102" y1="734" x2="1122" y2="713" style=" stroke: rgb(0, 0,0 );stroke-width: .5;"></line>
  <line x1="1109" y1="737" x2="1122" y2="724" style=" stroke: rgb(0, 0,0 );stroke-width: .5;"></line>
  <line x1="1120" y1="737" x2="1122" y2="734" style=" stroke: rgb(0, 0,0 );stroke-width: .5;"></line>
  <line x1="767" y1="342" x2="767" y2="752" style=" stroke: rgb(0, 0,0 );stroke-width: 2.5;"></line>
  <line x1="948" y1="342" x2="948" y2="752" style=" stroke: rgb(0, 0,0 );stroke-width: 2.5;"></line>
  <line x1="858" y1="342" x2="858" y2="752" style=" stroke: rgb(0, 0,0 );stroke-width: .5;"></line>
  <line x1="999" y1="342" x2="1353" y2="342" style=" stroke: rgb(0, 0,0 );stroke-width: .9;"></line>
  <line x1="1133" y1="737" x2="1345" y2="737" style=" stroke: rgb(0, 0,0 );stroke-width: .9;"></line>
  <line x1="1335" y1="737" x2="1329" y2="713" style=" stroke: rgb(0, 0,0 );stroke-width: .9;"></line>
  <line x1="1335" y1="737" x2="1342" y2="713" style=" stroke: rgb(0, 0,0 );stroke-width: .9;"></line>
  <line x1="1342" y1="713" x2="1329" y2="713" style=" stroke: rgb(0, 0,0 );stroke-width: .9;"></line>
  <line x1="1335" y1="342" x2="1342" y2="366" style=" stroke: rgb(0, 0,0 );stroke-width: .9;"></line>
  <line x1="1335" y1="342" x2="1329" y2="366" style=" stroke: rgb(0, 0,0 );stroke-width: .9;"></line>
  <line x1="1329" y1="366" x2="1342" y2="366" style=" stroke: rgb(0, 0,0 );stroke-width: .9;"></line>
  <line x1="728" y1="198" x2="728" y2="331" style=" stroke: rgb(0, 0,0 );stroke-width: .9;"></line>
  <line x1="752" y1="205" x2="752" y2="218" style=" stroke: rgb(0, 0,0 );stroke-width: .9;"></line>
  <line x1="728" y1="212" x2="752" y2="218" style=" stroke: rgb(0, 0,0 );stroke-width: .9;"></line>
  <line x1="728" y1="212" x2="752" y2="205" style=" stroke: rgb(0, 0,0 );stroke-width: .9;"></line>
  <line x1="752" y1="205" x2="752" y2="218" style=" stroke: rgb(0, 0,0 );stroke-width: .9;"></line>
  <line x1="987" y1="212" x2="964" y2="218" style=" stroke: rgb(0, 0,0 );stroke-width: .9;"></line>
  <line x1="987" y1="212" x2="964" y2="205" style=" stroke: rgb(0, 0,0 );stroke-width: .9;"></line>
  <line x1="964" y1="205" x2="964" y2="218" style=" stroke: rgb(0, 0,0 );stroke-width: .9;"></line>
  <line x1="987" y1="199" x2="987" y2="331" style=" stroke: rgb(0, 0,0 );stroke-width: .9;"></line>
  <line x1="987" y1="342" x2="987" y2="665" style=" stroke: rgb(0, 0,0 );stroke-width: 2.5;"></line>
  <line x1="728" y1="342" x2="987" y2="342" style=" stroke: rgb(0, 0,0 );stroke-width: 2.5;"></line>
  <line x1="728" y1="342" x2="728" y2="665" style=" stroke: rgb(0, 0,0 );stroke-width: 2.5;"></line>
  <line x1="714" y1="679" x2="593" y2="679" style=" stroke: rgb(0, 0,0 );stroke-width: 2.5;"></line>
  <line x1="1001" y1="679" x2="1010" y2="679" style=" stroke: rgb(0, 0,0 );stroke-width: 2.5;"></line>
  <line x1="728" y1="665" x2="714" y2="679" style=" stroke: rgb(0, 0,0 );stroke-width: 2.5;"></line>
  <line x1="987" y1="665" x2="1001" y2="679" style=" stroke: rgb(0, 0,0 );stroke-width: 2.5;"></line>
  <line x1="593" y1="679" x2="593" y2="737" style=" stroke: rgb(0, 0,0 );stroke-width: 2.5;"></line>
  <line x1="1122" y1="679" x2="1122" y2="737" style=" stroke: rgb(0, 0,0 );stroke-width: 2.5;"></line>
  <line x1="1010" y1="679" x2="1122" y2="679" style=" stroke: rgb(0, 0,0 );stroke-width: 2.5;"></line>
  <line x1="695" y1="737" x2="695" y2="752" style=" stroke: rgb(0, 0,0 );stroke-width: 2.5;"></line>
  <line x1="1020" y1="737" x2="1020" y2="752" style=" stroke: rgb(0, 0,0 );stroke-width: 2.5;"></line>
  <line x1="593" y1="737" x2="695" y2="737" style=" stroke: rgb(0, 0,0 );stroke-width: 2.5;"></line>
  <line x1="1020" y1="737" x2="1122" y2="737" style=" stroke: rgb(0, 0,0 );stroke-width: 2.5;"></line>
  <line x1="648" y1="665" x2="648" y2="747" style=" stroke: rgb(0, 0,0 );stroke-width: .5;"></line>
  <line x1="1067" y1="666" x2="1067" y2="749" style=" stroke: rgb(0, 0,0 );stroke-width: .5;"></line>
  <line x1="614" y1="679" x2="614" y2="737" style=" stroke: rgb(0, 0,0 );stroke-width: 2.5;"></line>
  <line x1="683" y1="679" x2="683" y2="737" style=" stroke: rgb(0, 0,0 );stroke-width: 2.5;"></line>
  <line x1="1032" y1="679" x2="1032" y2="737" style=" stroke: rgb(0, 0,0 );stroke-width: 2.5;"></line>
  <line x1="1102" y1="679" x2="1102" y2="737" style=" stroke: rgb(0, 0,0 );stroke-width: 2.5;"></line>
  <line x1="583" y1="737" x2="450" y2="737" style=" stroke: rgb(0, 0,0 );stroke-width: .9;"></line>
  <line x1="684" y1="752" x2="450" y2="752" style=" stroke: rgb(0, 0,0 );stroke-width: .9;"></line>
  <line x1="458" y1="713" x2="458" y2="688" style=" stroke: rgb(0, 0,0 );stroke-width: .9;"></line>
  <line x1="458" y1="801" x2="458" y2="775" style=" stroke: rgb(0, 0,0 );stroke-width: .9;"></line>
  <line x1="458" y1="801" x2="347" y2="801" style=" stroke: rgb(0, 0,0 );stroke-width: .9;"></line>
  <line x1="593" y1="758" x2="593" y2="995" style=" stroke: rgb(0, 0,0 );stroke-width: .9;"></line>
  <line x1="648" y1="759" x2="648" y2="941" style=" stroke: rgb(0, 0,0 );stroke-width: .9;"></line>
  <line x1="695" y1="760" x2="695" y2="888" style=" stroke: rgb(0, 0,0 );stroke-width: .9;"></line>
  <line x1="1020" y1="760" x2="1020" y2="885" style=" stroke: rgb(0, 0,0 );stroke-width: .9;"></line>
  <line x1="1067" y1="759" x2="1067" y2="937" style=" stroke: rgb(0, 0,0 );stroke-width: .9;"></line>
  <line x1="1122" y1="749" x2="1122" y2="988" style=" stroke: rgb(0, 0,0 );stroke-width: .9;"></line>
  <line x1="1133" y1="679" x2="1260" y2="679" style=" stroke: rgb(0, 0,0 );stroke-width: .9;"></line>
  <line x1="695" y1="752" x2="1020" y2="752" style=" stroke: rgb(0, 0,0 );stroke-width: 2.5;"></line>
  <line x1="695" y1="873" x2="719" y2="866" style=" stroke: rgb(0, 0,0 );stroke-width: .9;"></line>
  <line x1="695" y1="873" x2="719" y2="879" style=" stroke: rgb(0, 0,0 );stroke-width: .9;"></line>
  <line x1="719" y1="879" x2="719" y2="866" style=" stroke: rgb(0, 0,0 );stroke-width: .9;"></line>
  <line x1="648" y1="926" x2="672" y2="919" style=" stroke: rgb(0, 0,0 );stroke-width: .9;"></line>
  <line x1="648" y1="926" x2="672" y2="932" style=" stroke: rgb(0, 0,0 );stroke-width: .9;"></line>
  <line x1="672" y1="932" x2="672" y2="919" style=" stroke: rgb(0, 0,0 );stroke-width: .9;"></line>
  <line x1="593" y1="977" x2="617" y2="971" style=" stroke: rgb(0, 0,0 );stroke-width: .9;"></line>
  <line x1="593" y1="978" x2="617" y2="985" style=" stroke: rgb(0, 0,0 );stroke-width: .9;"></line>
  <line x1="617" y1="984" x2="617" y2="971" style=" stroke: rgb(0, 0,0 );stroke-width: .9;"></line>
  <line x1="1020" y1="873" x2="996" y2="879" style=" stroke: rgb(0, 0,0 );stroke-width: .9;"></line>
  <line x1="1020" y1="873" x2="996" y2="866" style=" stroke: rgb(0, 0,0 );stroke-width: .9;"></line>
  <line x1="996" y1="866" x2="996" y2="879" style=" stroke: rgb(0, 0,0 );stroke-width: .9;"></line>
  <line x1="1067" y1="926" x2="1043" y2="932" style=" stroke: rgb(0, 0,0 );stroke-width: .9;"></line>
  <line x1="1067" y1="926" x2="1043" y2="919" style=" stroke: rgb(0, 0,0 );stroke-width: .9;"></line>
  <line x1="1043" y1="919" x2="1043" y2="932" style=" stroke: rgb(0, 0,0 );stroke-width: .9;"></line>
  <line x1="1122" y1="977" x2="1099" y2="984" style=" stroke: rgb(0, 0,0 );stroke-width: .9;"></line>
  <line x1="1122" y1="977" x2="1099" y2="971" style=" stroke: rgb(0, 0,0 );stroke-width: .9;"></line>
  <line x1="1099" y1="971" x2="1099" y2="984" style=" stroke: rgb(0, 0,0 );stroke-width: .9;"></line>
  <line x1="458" y1="752" x2="465" y2="775" style=" stroke: rgb(0, 0,0 );stroke-width: .9;"></line>
  <line x1="458" y1="752" x2="452" y2="775" style=" stroke: rgb(0, 0,0 );stroke-width: .9;"></line>
  <line x1="452" y1="775" x2="465" y2="775" style=" stroke: rgb(0, 0,0 );stroke-width: .9;"></line>
  <line x1="458" y1="737" x2="452" y2="713" style=" stroke: rgb(0, 0,0 );stroke-width: .9;"></line>
  <line x1="458" y1="737" x2="465" y2="713" style=" stroke: rgb(0, 0,0 );stroke-width: .9;"></line>
  <line x1="465" y1="713" x2="452" y2="713" style=" stroke: rgb(0, 0,0 );stroke-width: .9;"></line>
  <line x1="719" y1="873" x2="996" y2="873" style=" stroke: rgb(0, 0,0 );stroke-width: .9;"></line>
  <line x1="672" y1="926" x2="1043" y2="926" style=" stroke: rgb(0, 0,0 );stroke-width: .9;"></line>
  <line x1="617" y1="977" x2="1099" y2="977" style=" stroke: rgb(0, 0,0 );stroke-width: .9;"></line>
  <line x1="752" y1="212" x2="964" y2="212" style=" stroke: rgb(0, 0,0 );stroke-width: .9;"></line>
  <line x1="1335" y1="366" x2="1335" y2="504" style=" stroke: rgb(0, 0,0 );stroke-width: .9;"></line>
  <line x1="1335" y1="586" x2="1335" y2="713" style=" stroke: rgb(0, 0,0 );stroke-width: .9;"></line>
  <line x1="1253" y1="737" x2="1248" y2="756" style=" stroke: rgb(0, 0,0 );stroke-width: .9;"></line>
  <line x1="1253" y1="737" x2="1258" y2="756" style=" stroke: rgb(0, 0,0 );stroke-width: .9;"></line>
  <line x1="1248" y1="756" x2="1258" y2="756" style=" stroke: rgb(0, 0,0 );stroke-width: .9;"></line>
  <line x1="1253" y1="679" x2="1248" y2="660" style=" stroke: rgb(0, 0,0 );stroke-width: .9;"></line>
  <line x1="1253" y1="679" x2="1258" y2="660" style=" stroke: rgb(0, 0,0 );stroke-width: .9;"></line>
  <line x1="1258" y1="660" x2="1248" y2="660" style=" stroke: rgb(0, 0,0 );stroke-width: .9;"></line>
  <line x1="1253" y1="640" x2="1253" y2="660" style=" stroke: rgb(0, 0,0 );stroke-width: .9;"></line>
  <line x1="1253" y1="756" x2="1253" y2="776" style=" stroke: rgb(0, 0,0 );stroke-width: .9;"></line>
  <line x1="648" y1="679" x2="629" y2="663" style=" stroke: rgb(0, 0,0 );stroke-width: .9;"></line>
  <line x1="648" y1="679" x2="640" y2="656" style=" stroke: rgb(0, 0,0 );stroke-width: .9;"></line>
  <line x1="640" y1="656" x2="629" y2="663" style=" stroke: rgb(0, 0,0 );stroke-width: .9;"></line>
  <line x1="635" y1="659" x2="581" y2="583" style=" stroke: rgb(0, 0,0 );stroke-width: .9;"></line>
</svg>
