<svg xmlns="http://www.w3.org/2000/svg" height="100%" width="100%" viewBox="175 0 1400 1200" preserveAspectRatio="xMidYMin" id="item-chart">
  <style>
    svg { background-color: white; }

    text.heavy {
      font: 28px Arial, Verdana, sans-serif;
    }
  </style>

  <defs>
    <pattern id="diagonalHatch" patternUnits="userSpaceOnUse" width="4" height="8" patternTransform="rotate(-45 2 2)">
      <path d="M -1,2 l 6,0" stroke="white" stroke-width=".9"/>
    </pattern>
  </defs>

  <text x="858" y="957" alignment-baseline="middle" text-anchor="middle" tspan="" font-weight=" bold" fill="rgb(0,0,0)" class="heavy text-inject">N/A</text>
  <text x="857" y="235" alignment-baseline="middle" text-anchor="middle" tspan="" font-weight=" bold" fill="rgb(0,0,0)" class="heavy text-inject">N/A</text>
  <text x="1376" y="701" alignment-baseline="middle" text-anchor="middle" tspan="" font-weight=" bold" fill="rgb(0,0,0)" class="heavy text-inject">N/A</text>
  <text x="858" y="853" alignment-baseline="middle" text-anchor="middle" tspan="" font-weight=" bold" fill="rgb(0,0,0)" class="heavy text-inject">N/A</text>
  <text x="374" y="781" alignment-baseline="middle" text-anchor="middle" tspan="" font-weight=" bold" fill="rgb(0,0,0)" class="heavy text-inject">N/A</text>
  <text x="817" y="601" alignment-baseline="middle" text-anchor="middle" tspan="" font-weight=" bold" fill="rgb(0,0,0)" class="heavy text-inject">N/A</text>
  <text x="858" y="906" alignment-baseline="middle" text-anchor="middle" tspan="" font-weight=" bold" fill="rgb(0,0,0)" class="heavy text-inject">N/A</text>
  <text x="528" y="520" alignment-baseline="middle" text-anchor="middle" tspan="" font-weight=" bold" fill="rgb(0,0,0)" class="heavy text-inject">N/A</text>
  <text x="420" y="1150" alignment-baseline="middle" text-anchor="left" tspan="" font-weight=" bold" fill="rgb(0,0,0)" class="heavy text-inject">N/A</text>
  <text x="730" y="1150" alignment-baseline="middle" text-anchor="left" tspan="" font-weight=" bold" fill="rgb(0,0,0)" class="heavy text-inject">N/A</text>
  <text x="533" y="561" alignment-baseline="middle" text-anchor="middle" tspan="" font-weight=" bold" fill="rgb(0,0,0)" class="heavy text-inject">N/A</text>
  <text x="620" y="1150" alignment-baseline="middle" text-anchor="left" tspan="" font-weight=" bold" fill="rgb(0,0,0)" class="heavy text-inject">N/A</text>
  <text x="420" y="40" alignment-baseline="middle" text-anchor="left" tspan="" font-weight=" bold" fill="rgb(0,0,0)" class="heavy text-inject">N/A</text>
  <text x="1251" y="711" alignment-baseline="middle" text-anchor="middle" tspan="" font-weight=" bold" fill="rgb(0,0,0)" class="heavy text-inject">N/A</text>
  <text x="450" y="90" alignment-baseline="middle" text-anchor="left" tspan="" font-weight=" bold" fill="rgb(0,0,0)" class="heavy text-inject">N/A</text>

  <text x="1530" y="1150" alignment-baseline="middle" text-anchor="end" font-weight="bold" fill="rgb(0,0,0)" class="heavy">ASME B16.5 2019</text>
  <text x="225" y="1150" alignment-baseline="middle" text-anchor="left" tspan="" font-weight=" bold" fill="rgb(0,0,0)" class="heavy">StudBolt Size:                   UNC (or           ) x          Long</text>
  <text x="225" y="90" alignment-baseline="middle" text-anchor="left" tspan="" font-weight=" bold" fill="rgb(0,0,0)" class="heavy">S/Bolts and Nuts:</text>
  <text x="225" y="40" alignment-baseline="middle" text-anchor="left" tspan="" font-weight=" bold" fill="rgb(0,0,0)" class="heavy">Flange Weight:</text>

  <line x1="753" y1="701" x2="745" y2="693" style=" stroke: rgb(0, 0,0 );stroke-width: .5;"></line>
  <line x1="764" y1="701" x2="745" y2="682" style=" stroke: rgb(0, 0,0 );stroke-width: .5;"></line>
  <line x1="767" y1="694" x2="745" y2="672" style=" stroke: rgb(0, 0,0 );stroke-width: .5;"></line>
  <line x1="767" y1="683" x2="745" y2="661" style=" stroke: rgb(0, 0,0 );stroke-width: .5;"></line>
  <line x1="767" y1="673" x2="745" y2="651" style=" stroke: rgb(0, 0,0 );stroke-width: .5;"></line>
  <line x1="767" y1="662" x2="745" y2="640" style=" stroke: rgb(0, 0,0 );stroke-width: .5;"></line>
  <line x1="767" y1="652" x2="745" y2="629" style=" stroke: rgb(0, 0,0 );stroke-width: .5;"></line>
  <line x1="767" y1="641" x2="745" y2="619" style=" stroke: rgb(0, 0,0 );stroke-width: .5;"></line>
  <line x1="767" y1="630" x2="745" y2="608" style=" stroke: rgb(0, 0,0 );stroke-width: .5;"></line>
  <line x1="767" y1="620" x2="745" y2="598" style=" stroke: rgb(0, 0,0 );stroke-width: .5;"></line>
  <line x1="767" y1="609" x2="745" y2="587" style=" stroke: rgb(0, 0,0 );stroke-width: .5;"></line>
  <line x1="767" y1="598" x2="745" y2="576" style=" stroke: rgb(0, 0,0 );stroke-width: .5;"></line>
  <line x1="767" y1="588" x2="745" y2="566" style=" stroke: rgb(0, 0,0 );stroke-width: .5;"></line>
  <line x1="767" y1="577" x2="745" y2="555" style=" stroke: rgb(0, 0,0 );stroke-width: .5;"></line>
  <line x1="767" y1="567" x2="745" y2="545" style=" stroke: rgb(0, 0,0 );stroke-width: .5;"></line>
  <line x1="767" y1="556" x2="745" y2="534" style=" stroke: rgb(0, 0,0 );stroke-width: .5;"></line>
  <line x1="767" y1="545" x2="745" y2="523" style=" stroke: rgb(0, 0,0 );stroke-width: .5;"></line>
  <line x1="767" y1="535" x2="745" y2="513" style=" stroke: rgb(0, 0,0 );stroke-width: .5;"></line>
  <line x1="767" y1="524" x2="745" y2="502" style=" stroke: rgb(0, 0,0 );stroke-width: .5;"></line>
  <line x1="955" y1="701" x2="948" y2="695" style=" stroke: rgb(0, 0,0 );stroke-width: .5;"></line>
  <line x1="767" y1="514" x2="745" y2="492" style=" stroke: rgb(0, 0,0 );stroke-width: .5;"></line>
  <line x1="965" y1="701" x2="948" y2="685" style=" stroke: rgb(0, 0,0 );stroke-width: .5;"></line>
  <line x1="767" y1="503" x2="745" y2="481" style=" stroke: rgb(0, 0,0 );stroke-width: .5;"></line>
  <line x1="971" y1="696" x2="948" y2="674" style=" stroke: rgb(0, 0,0 );stroke-width: .5;"></line>
  <line x1="767" y1="492" x2="745" y2="470" style=" stroke: rgb(0, 0,0 );stroke-width: .5;"></line>
  <line x1="971" y1="686" x2="948" y2="663" style=" stroke: rgb(0, 0,0 );stroke-width: .5;"></line>
  <line x1="767" y1="482" x2="745" y2="460" style=" stroke: rgb(0, 0,0 );stroke-width: .5;"></line>
  <line x1="971" y1="675" x2="948" y2="653" style=" stroke: rgb(0, 0,0 );stroke-width: .5;"></line>
  <line x1="767" y1="471" x2="745" y2="449" style=" stroke: rgb(0, 0,0 );stroke-width: .5;"></line>
  <line x1="971" y1="664" x2="948" y2="642" style=" stroke: rgb(0, 0,0 );stroke-width: .5;"></line>
  <line x1="767" y1="461" x2="745" y2="438" style=" stroke: rgb(0, 0,0 );stroke-width: .5;"></line>
  <line x1="971" y1="654" x2="948" y2="632" style=" stroke: rgb(0, 0,0 );stroke-width: .5;"></line>
  <line x1="767" y1="450" x2="745" y2="428" style=" stroke: rgb(0, 0,0 );stroke-width: .5;"></line>
  <line x1="971" y1="643" x2="948" y2="621" style=" stroke: rgb(0, 0,0 );stroke-width: .5;"></line>
  <line x1="767" y1="439" x2="745" y2="417" style=" stroke: rgb(0, 0,0 );stroke-width: .5;"></line>
  <line x1="971" y1="633" x2="948" y2="610" style=" stroke: rgb(0, 0,0 );stroke-width: .5;"></line>
  <line x1="767" y1="429" x2="745" y2="407" style=" stroke: rgb(0, 0,0 );stroke-width: .5;"></line>
  <line x1="971" y1="622" x2="948" y2="600" style=" stroke: rgb(0, 0,0 );stroke-width: .5;"></line>
  <line x1="767" y1="418" x2="745" y2="397" style=" stroke: rgb(0, 0,0 );stroke-width: .5;"></line>
  <line x1="971" y1="611" x2="948" y2="589" style=" stroke: rgb(0, 0,0 );stroke-width: .5;"></line>
  <line x1="767" y1="408" x2="752" y2="393" style=" stroke: rgb(0, 0,0 );stroke-width: .5;"></line>
  <line x1="971" y1="601" x2="948" y2="579" style=" stroke: rgb(0, 0,0 );stroke-width: .5;"></line>
  <line x1="767" y1="397" x2="760" y2="390" style=" stroke: rgb(0, 0,0 );stroke-width: .5;"></line>
  <line x1="971" y1="590" x2="948" y2="568" style=" stroke: rgb(0, 0,0 );stroke-width: .5;"></line>
  <line x1="971" y1="580" x2="948" y2="557" style=" stroke: rgb(0, 0,0 );stroke-width: .5;"></line>
  <line x1="971" y1="569" x2="948" y2="547" style=" stroke: rgb(0, 0,0 );stroke-width: .5;"></line>
  <line x1="971" y1="558" x2="948" y2="536" style=" stroke: rgb(0, 0,0 );stroke-width: .5;"></line>
  <line x1="971" y1="548" x2="948" y2="526" style=" stroke: rgb(0, 0,0 );stroke-width: .5;"></line>
  <line x1="971" y1="537" x2="948" y2="515" style=" stroke: rgb(0, 0,0 );stroke-width: .5;"></line>
  <line x1="971" y1="527" x2="948" y2="504" style=" stroke: rgb(0, 0,0 );stroke-width: .5;"></line>
  <line x1="971" y1="516" x2="948" y2="494" style=" stroke: rgb(0, 0,0 );stroke-width: .5;"></line>
  <line x1="971" y1="505" x2="948" y2="483" style=" stroke: rgb(0, 0,0 );stroke-width: .5;"></line>
  <line x1="971" y1="495" x2="948" y2="473" style=" stroke: rgb(0, 0,0 );stroke-width: .5;"></line>
  <line x1="971" y1="484" x2="948" y2="462" style=" stroke: rgb(0, 0,0 );stroke-width: .5;"></line>
  <line x1="971" y1="473" x2="948" y2="451" style=" stroke: rgb(0, 0,0 );stroke-width: .5;"></line>
  <line x1="971" y1="463" x2="948" y2="441" style=" stroke: rgb(0, 0,0 );stroke-width: .5;"></line>
  <line x1="971" y1="452" x2="948" y2="430" style=" stroke: rgb(0, 0,0 );stroke-width: .5;"></line>
  <line x1="971" y1="442" x2="948" y2="420" style=" stroke: rgb(0, 0,0 );stroke-width: .5;"></line>
  <line x1="971" y1="431" x2="948" y2="409" style=" stroke: rgb(0, 0,0 );stroke-width: .5;"></line>
  <line x1="971" y1="420" x2="954" y2="404" style=" stroke: rgb(0, 0,0 );stroke-width: .5;"></line>
  <line x1="971" y1="410" x2="962" y2="401" style=" stroke: rgb(0, 0,0 );stroke-width: .5;"></line>
  <line x1="971" y1="399" x2="969" y2="398" style=" stroke: rgb(0, 0,0 );stroke-width: .5;"></line>
  <line x1="593" y1="680" x2="595" y2="679" style=" stroke: rgb(0, 0,0 );stroke-width: .5;"></line>
  <line x1="593" y1="691" x2="605" y2="679" style=" stroke: rgb(0, 0,0 );stroke-width: .5;"></line>
  <line x1="593" y1="702" x2="614" y2="681" style=" stroke: rgb(0, 0,0 );stroke-width: .5;"></line>
  <line x1="593" y1="712" x2="614" y2="692" style=" stroke: rgb(0, 0,0 );stroke-width: .5;"></line>
  <line x1="593" y1="723" x2="614" y2="702" style=" stroke: rgb(0, 0,0 );stroke-width: .5;"></line>
  <line x1="593" y1="733" x2="614" y2="713" style=" stroke: rgb(0, 0,0 );stroke-width: .5;"></line>
  <line x1="600" y1="737" x2="614" y2="723" style=" stroke: rgb(0, 0,0 );stroke-width: .5;"></line>
  <line x1="610" y1="737" x2="614" y2="734" style=" stroke: rgb(0, 0,0 );stroke-width: .5;"></line>
  <line x1="683" y1="685" x2="690" y2="679" style=" stroke: rgb(0, 0,0 );stroke-width: .5;"></line>
  <line x1="683" y1="696" x2="701" y2="679" style=" stroke: rgb(0, 0,0 );stroke-width: .5;"></line>
  <line x1="720" y1="659" x2="721" y2="658" style=" stroke: rgb(0, 0,0 );stroke-width: .5;"></line>
  <line x1="683" y1="707" x2="711" y2="679" style=" stroke: rgb(0, 0,0 );stroke-width: .5;"></line>
  <line x1="720" y1="670" x2="732" y2="658" style=" stroke: rgb(0, 0,0 );stroke-width: .5;"></line>
  <line x1="683" y1="717" x2="742" y2="658" style=" stroke: rgb(0, 0,0 );stroke-width: .5;"></line>
  <line x1="683" y1="728" x2="745" y2="667" style=" stroke: rgb(0, 0,0 );stroke-width: .5;"></line>
  <line x1="685" y1="737" x2="745" y2="677" style=" stroke: rgb(0, 0,0 );stroke-width: .5;"></line>
  <line x1="695" y1="737" x2="745" y2="688" style=" stroke: rgb(0, 0,0 );stroke-width: .5;"></line>
  <line x1="695" y1="748" x2="745" y2="698" style=" stroke: rgb(0, 0,0 );stroke-width: .5;"></line>
  <line x1="702" y1="752" x2="752" y2="701" style=" stroke: rgb(0, 0,0 );stroke-width: .5;"></line>
  <line x1="713" y1="752" x2="762" y2="702" style=" stroke: rgb(0, 0,0 );stroke-width: .5;"></line>
  <line x1="723" y1="752" x2="762" y2="713" style=" stroke: rgb(0, 0,0 );stroke-width: .5;"></line>
  <line x1="734" y1="752" x2="762" y2="724" style=" stroke: rgb(0, 0,0 );stroke-width: .5;"></line>
  <line x1="744" y1="752" x2="762" y2="734" style=" stroke: rgb(0, 0,0 );stroke-width: .5;"></line>
  <line x1="755" y1="752" x2="762" y2="745" style=" stroke: rgb(0, 0,0 );stroke-width: .5;"></line>
  <line x1="971" y1="663" x2="976" y2="658" style=" stroke: rgb(0, 0,0 );stroke-width: .5;"></line>
  <line x1="971" y1="674" x2="986" y2="658" style=" stroke: rgb(0, 0,0 );stroke-width: .5;"></line>
  <line x1="954" y1="701" x2="954" y2="701" style=" stroke: rgb(0, 0,0 );stroke-width: .5;"></line>
  <line x1="971" y1="685" x2="995" y2="660" style=" stroke: rgb(0, 0,0 );stroke-width: .5;"></line>
  <line x1="954" y1="712" x2="964" y2="701" style=" stroke: rgb(0, 0,0 );stroke-width: .5;"></line>
  <line x1="971" y1="695" x2="995" y2="671" style=" stroke: rgb(0, 0,0 );stroke-width: .5;"></line>
  <line x1="954" y1="723" x2="998" y2="679" style=" stroke: rgb(0, 0,0 );stroke-width: .5;"></line>
  <line x1="954" y1="733" x2="1008" y2="679" style=" stroke: rgb(0, 0,0 );stroke-width: .5;"></line>
  <line x1="954" y1="744" x2="1019" y2="679" style=" stroke: rgb(0, 0,0 );stroke-width: .5;"></line>
  <line x1="957" y1="752" x2="1029" y2="679" style=" stroke: rgb(0, 0,0 );stroke-width: .5;"></line>
  <line x1="967" y1="752" x2="1032" y2="687" style=" stroke: rgb(0, 0,0 );stroke-width: .5;"></line>
  <line x1="978" y1="752" x2="1032" y2="697" style=" stroke: rgb(0, 0,0 );stroke-width: .5;"></line>
  <line x1="988" y1="752" x2="1032" y2="708" style=" stroke: rgb(0, 0,0 );stroke-width: .5;"></line>
  <line x1="999" y1="752" x2="1032" y2="719" style=" stroke: rgb(0, 0,0 );stroke-width: .5;"></line>
  <line x1="1010" y1="752" x2="1020" y2="741" style=" stroke: rgb(0, 0,0 );stroke-width: .5;"></line>
  <line x1="1024" y1="737" x2="1032" y2="729" style=" stroke: rgb(0, 0,0 );stroke-width: .5;"></line>
  <line x1="1102" y1="681" x2="1104" y2="679" style=" stroke: rgb(0, 0,0 );stroke-width: .5;"></line>
  <line x1="1102" y1="691" x2="1114" y2="679" style=" stroke: rgb(0, 0,0 );stroke-width: .5;"></line>
  <line x1="1102" y1="702" x2="1122" y2="681" style=" stroke: rgb(0, 0,0 );stroke-width: .5;"></line>
  <line x1="1102" y1="713" x2="1122" y2="692" style=" stroke: rgb(0, 0,0 );stroke-width: .5;"></line>
  <line x1="1102" y1="723" x2="1122" y2="702" style=" stroke: rgb(0, 0,0 );stroke-width: .5;"></line>
  <line x1="1102" y1="734" x2="1122" y2="713" style=" stroke: rgb(0, 0,0 );stroke-width: .5;"></line>
  <line x1="1109" y1="737" x2="1122" y2="724" style=" stroke: rgb(0, 0,0 );stroke-width: .5;"></line>
  <line x1="1120" y1="737" x2="1122" y2="734" style=" stroke: rgb(0, 0,0 );stroke-width: .5;"></line>
  <line x1="858" y1="397" x2="858" y2="701" style=" stroke: rgb(0, 0,0 );stroke-width: .5;"></line>
  <line x1="995" y1="658" x2="995" y2="679" style=" stroke: rgb(0, 0,0 );stroke-width: 2.5;"></line>
  <line x1="745" y1="701" x2="971" y2="701" style=" stroke: rgb(0, 0,0 );stroke-width: 2.5;"></line>
  <line x1="767" y1="701" x2="767" y2="387" style=" stroke: rgb(0, 0,0 );stroke-width: .5;"></line>
  <line x1="948" y1="701" x2="948" y2="406" style=" stroke: rgb(0, 0,0 );stroke-width: .5;"></line>
  <line x1="720" y1="658" x2="745" y2="658" style=" stroke: rgb(0, 0,0 );stroke-width: 2.5;"></line>
  <line x1="971" y1="658" x2="995" y2="658" style=" stroke: rgb(0, 0,0 );stroke-width: 2.5;"></line>
  <line x1="745" y1="641" x2="732" y2="658" style=" stroke: rgb(0, 0,0 );stroke-width: .5;"></line>
  <line x1="971" y1="641" x2="988" y2="658" style=" stroke: rgb(0, 0,0 );stroke-width: .5;"></line>
  <line x1="762" y1="701" x2="762" y2="752" style=" stroke: rgb(0, 0,0 );stroke-width: 2.5;"></line>
  <line x1="954" y1="701" x2="954" y2="752" style=" stroke: rgb(0, 0,0 );stroke-width: 2.5;"></line>
  <line x1="745" y1="701" x2="745" y2="658" style=" stroke: rgb(0, 0,0 );stroke-width: 2.5;"></line>
  <line x1="745" y1="658" x2="745" y2="397" style=" stroke: rgb(0, 0,0 );stroke-width: .5;"></line>
  <line x1="971" y1="701" x2="971" y2="658" style=" stroke: rgb(0, 0,0 );stroke-width: 2.5;"></line>
  <line x1="971" y1="658" x2="971" y2="397" style=" stroke: rgb(0, 0,0 );stroke-width: .5;"></line>
  <line x1="719" y1="651" x2="719" y2="246" style=" stroke: rgb(0, 0,0 );stroke-width: .9;"></line>
  <line x1="994" y1="651" x2="994" y2="241" style=" stroke: rgb(0, 0,0 );stroke-width: .9;"></line>
  <line x1="719" y1="255" x2="743" y2="262" style=" stroke: rgb(0, 0,0 );stroke-width: .9;"></line>
  <line x1="719" y1="255" x2="743" y2="249" style=" stroke: rgb(0, 0,0 );stroke-width: .9;"></line>
  <line x1="743" y1="249" x2="743" y2="262" style=" stroke: rgb(0, 0,0 );stroke-width: .9;"></line>
  <line x1="743" y1="255" x2="776" y2="255" style=" stroke: rgb(0, 0,0 );stroke-width: .9;"></line>
  <line x1="994" y1="255" x2="971" y2="262" style=" stroke: rgb(0, 0,0 );stroke-width: .9;"></line>
  <line x1="994" y1="255" x2="971" y2="249" style=" stroke: rgb(0, 0,0 );stroke-width: .9;"></line>
  <line x1="971" y1="249" x2="971" y2="262" style=" stroke: rgb(0, 0,0 );stroke-width: .9;"></line>
  <line x1="931" y1="255" x2="971" y2="255" style=" stroke: rgb(0, 0,0 );stroke-width: .9;"></line>
  <line x1="749" y1="658" x2="825" y2="658" style=" stroke: rgb(0, 0,0 );stroke-width: .9;"></line>
  <line x1="817" y1="744" x2="817" y2="725" style=" stroke: rgb(0, 0,0 );stroke-width: .9;"></line>
  <line x1="817" y1="702" x2="824" y2="725" style=" stroke: rgb(0, 0,0 );stroke-width: .9;"></line>
  <line x1="817" y1="702" x2="811" y2="725" style=" stroke: rgb(0, 0,0 );stroke-width: .9;"></line>
  <line x1="811" y1="725" x2="824" y2="725" style=" stroke: rgb(0, 0,0 );stroke-width: .9;"></line>
  <line x1="817" y1="635" x2="817" y2="617" style=" stroke: rgb(0, 0,0 );stroke-width: .9;"></line>
  <line x1="817" y1="658" x2="811" y2="635" style=" stroke: rgb(0, 0,0 );stroke-width: .9;"></line>
  <line x1="817" y1="658" x2="824" y2="635" style=" stroke: rgb(0, 0,0 );stroke-width: .9;"></line>
  <line x1="824" y1="635" x2="811" y2="635" style=" stroke: rgb(0, 0,0 );stroke-width: .9;"></line>
  <line x1="593" y1="679" x2="593" y2="737" style=" stroke: rgb(0, 0,0 );stroke-width: 2.5;"></line>
  <line x1="1122" y1="679" x2="1122" y2="737" style=" stroke: rgb(0, 0,0 );stroke-width: 2.5;"></line>
  <line x1="995" y1="679" x2="1122" y2="679" style=" stroke: rgb(0, 0,0 );stroke-width: 2.5;"></line>
  <line x1="695" y1="737" x2="695" y2="752" style=" stroke: rgb(0, 0,0 );stroke-width: 2.5;"></line>
  <line x1="1020" y1="737" x2="1020" y2="752" style=" stroke: rgb(0, 0,0 );stroke-width: 2.5;"></line>
  <line x1="593" y1="737" x2="695" y2="737" style=" stroke: rgb(0, 0,0 );stroke-width: 2.5;"></line>
  <line x1="1020" y1="737" x2="1122" y2="737" style=" stroke: rgb(0, 0,0 );stroke-width: 2.5;"></line>
  <line x1="648" y1="668" x2="648" y2="747" style=" stroke: rgb(0, 0,0 );stroke-width: .5;"></line>
  <line x1="1067" y1="662" x2="1067" y2="748" style=" stroke: rgb(0, 0,0 );stroke-width: .5;"></line>
  <line x1="614" y1="679" x2="614" y2="737" style=" stroke: rgb(0, 0,0 );stroke-width: 2.5;"></line>
  <line x1="683" y1="679" x2="683" y2="737" style=" stroke: rgb(0, 0,0 );stroke-width: 2.5;"></line>
  <line x1="1032" y1="679" x2="1032" y2="737" style=" stroke: rgb(0, 0,0 );stroke-width: 2.5;"></line>
  <line x1="1102" y1="679" x2="1102" y2="737" style=" stroke: rgb(0, 0,0 );stroke-width: 2.5;"></line>
  <line x1="585" y1="737" x2="450" y2="737" style=" stroke: rgb(0, 0,0 );stroke-width: .9;"></line>
  <line x1="687" y1="752" x2="450" y2="752" style=" stroke: rgb(0, 0,0 );stroke-width: .9;"></line>
  <line x1="458" y1="713" x2="458" y2="688" style=" stroke: rgb(0, 0,0 );stroke-width: .9;"></line>
  <line x1="458" y1="801" x2="458" y2="775" style=" stroke: rgb(0, 0,0 );stroke-width: .9;"></line>
  <line x1="458" y1="801" x2="348" y2="801" style=" stroke: rgb(0, 0,0 );stroke-width: .9;"></line>
  <line x1="593" y1="745" x2="593" y2="985" style=" stroke: rgb(0, 0,0 );stroke-width: .9;"></line>
  <line x1="648" y1="771" x2="648" y2="934" style=" stroke: rgb(0, 0,0 );stroke-width: .9;"></line>
  <line x1="695" y1="760" x2="695" y2="881" style=" stroke: rgb(0, 0,0 );stroke-width: .9;"></line>
  <line x1="1020" y1="760" x2="1020" y2="881" style=" stroke: rgb(0, 0,0 );stroke-width: .9;"></line>
  <line x1="1067" y1="757" x2="1067" y2="934" style=" stroke: rgb(0, 0,0 );stroke-width: .9;"></line>
  <line x1="1122" y1="745" x2="1122" y2="985" style=" stroke: rgb(0, 0,0 );stroke-width: .9;"></line>
  <line x1="695" y1="752" x2="1020" y2="752" style=" stroke: rgb(0, 0,0 );stroke-width: 2.5;"></line>
  <line x1="695" y1="873" x2="719" y2="866" style=" stroke: rgb(0, 0,0 );stroke-width: .9;"></line>
  <line x1="695" y1="873" x2="719" y2="879" style=" stroke: rgb(0, 0,0 );stroke-width: .9;"></line>
  <line x1="719" y1="879" x2="719" y2="866" style=" stroke: rgb(0, 0,0 );stroke-width: .9;"></line>
  <line x1="648" y1="926" x2="672" y2="919" style=" stroke: rgb(0, 0,0 );stroke-width: .9;"></line>
  <line x1="648" y1="926" x2="672" y2="932" style=" stroke: rgb(0, 0,0 );stroke-width: .9;"></line>
  <line x1="672" y1="932" x2="672" y2="919" style=" stroke: rgb(0, 0,0 );stroke-width: .9;"></line>
  <line x1="593" y1="977" x2="617" y2="971" style=" stroke: rgb(0, 0,0 );stroke-width: .9;"></line>
  <line x1="593" y1="978" x2="617" y2="985" style=" stroke: rgb(0, 0,0 );stroke-width: .9;"></line>
  <line x1="617" y1="984" x2="617" y2="971" style=" stroke: rgb(0, 0,0 );stroke-width: .9;"></line>
  <line x1="1020" y1="873" x2="996" y2="879" style=" stroke: rgb(0, 0,0 );stroke-width: .9;"></line>
  <line x1="1020" y1="873" x2="996" y2="866" style=" stroke: rgb(0, 0,0 );stroke-width: .9;"></line>
  <line x1="996" y1="866" x2="996" y2="879" style=" stroke: rgb(0, 0,0 );stroke-width: .9;"></line>
  <line x1="1067" y1="926" x2="1043" y2="932" style=" stroke: rgb(0, 0,0 );stroke-width: .9;"></line>
  <line x1="1067" y1="926" x2="1043" y2="919" style=" stroke: rgb(0, 0,0 );stroke-width: .9;"></line>
  <line x1="1043" y1="919" x2="1043" y2="932" style=" stroke: rgb(0, 0,0 );stroke-width: .9;"></line>
  <line x1="1122" y1="977" x2="1099" y2="984" style=" stroke: rgb(0, 0,0 );stroke-width: .9;"></line>
  <line x1="1122" y1="977" x2="1099" y2="971" style=" stroke: rgb(0, 0,0 );stroke-width: .9;"></line>
  <line x1="1099" y1="971" x2="1099" y2="984" style=" stroke: rgb(0, 0,0 );stroke-width: .9;"></line>
  <line x1="458" y1="752" x2="465" y2="775" style=" stroke: rgb(0, 0,0 );stroke-width: .9;"></line>
  <line x1="458" y1="752" x2="452" y2="775" style=" stroke: rgb(0, 0,0 );stroke-width: .9;"></line>
  <line x1="452" y1="775" x2="465" y2="775" style=" stroke: rgb(0, 0,0 );stroke-width: .9;"></line>
  <line x1="458" y1="737" x2="452" y2="713" style=" stroke: rgb(0, 0,0 );stroke-width: .9;"></line>
  <line x1="458" y1="737" x2="465" y2="713" style=" stroke: rgb(0, 0,0 );stroke-width: .9;"></line>
  <line x1="465" y1="713" x2="452" y2="713" style=" stroke: rgb(0, 0,0 );stroke-width: .9;"></line>
  <line x1="593" y1="679" x2="720" y2="679" style=" stroke: rgb(0, 0,0 );stroke-width: 2.5;"></line>
  <line x1="719" y1="873" x2="996" y2="873" style=" stroke: rgb(0, 0,0 );stroke-width: .9;"></line>
  <line x1="672" y1="926" x2="1043" y2="926" style=" stroke: rgb(0, 0,0 );stroke-width: .9;"></line>
  <line x1="617" y1="977" x2="1099" y2="977" style=" stroke: rgb(0, 0,0 );stroke-width: .9;"></line>
  <line x1="743" y1="255" x2="971" y2="255" style=" stroke: rgb(0, 0,0 );stroke-width: .9;"></line>
  <line x1="1130" y1="737" x2="1386" y2="737" style=" stroke: rgb(0, 0,0 );stroke-width: .9;"></line>
  <line x1="1251" y1="737" x2="1257" y2="761" style=" stroke: rgb(0, 0,0 );stroke-width: .9;"></line>
  <line x1="1251" y1="737" x2="1244" y2="761" style=" stroke: rgb(0, 0,0 );stroke-width: .9;"></line>
  <line x1="1251" y1="761" x2="1251" y2="783" style=" stroke: rgb(0, 0,0 );stroke-width: .9;"></line>
  <line x1="1244" y1="761" x2="1257" y2="761" style=" stroke: rgb(0, 0,0 );stroke-width: .9;"></line>
  <line x1="1376" y1="737" x2="1369" y2="761" style=" stroke: rgb(0, 0,0 );stroke-width: .9;"></line>
  <line x1="1376" y1="737" x2="1382" y2="761" style=" stroke: rgb(0, 0,0 );stroke-width: .9;"></line>
  <line x1="1369" y1="761" x2="1382" y2="761" style=" stroke: rgb(0, 0,0 );stroke-width: .9;"></line>
  <line x1="1376" y1="761" x2="1376" y2="783" style=" stroke: rgb(0, 0,0 );stroke-width: .9;"></line>
  <line x1="1001" y1="659" x2="1237" y2="659" style=" stroke: rgb(0, 0,0 );stroke-width: .9;"></line>
  <line x1="1264" y1="659" x2="1386" y2="659" style=" stroke: rgb(0, 0,0 );stroke-width: .9;"></line>
  <line x1="1130" y1="679" x2="1262" y2="679" style=" stroke: rgb(0, 0,0 );stroke-width: .9;"></line>
  <line x1="1251" y1="633" x2="1251" y2="655" style=" stroke: rgb(0, 0,0 );stroke-width: .9;"></line>
  <line x1="1251" y1="679" x2="1257" y2="655" style=" stroke: rgb(0, 0,0 );stroke-width: .9;"></line>
  <line x1="1251" y1="679" x2="1244" y2="655" style=" stroke: rgb(0, 0,0 );stroke-width: .9;"></line>
  <line x1="1257" y1="655" x2="1244" y2="655" style=" stroke: rgb(0, 0,0 );stroke-width: .9;"></line>
  <line x1="1376" y1="659" x2="1382" y2="635" style=" stroke: rgb(0, 0,0 );stroke-width: .9;"></line>
  <line x1="1376" y1="659" x2="1369" y2="635" style=" stroke: rgb(0, 0,0 );stroke-width: .9;"></line>
  <line x1="1382" y1="635" x2="1369" y2="635" style=" stroke: rgb(0, 0,0 );stroke-width: .9;"></line>
  <line x1="1376" y1="611" x2="1376" y2="635" style=" stroke: rgb(0, 0,0 );stroke-width: .9;"></line>
  <line x1="720" y1="658" x2="720" y2="679" style=" stroke: rgb(0, 0,0 );stroke-width: 2.5;"></line>
  <line x1="745" y1="397" x2="762" y2="389" style=" stroke: rgb(0, 0,0 );stroke-width: .5;"></line>
  <line x1="762" y1="389" x2="777" y2="385" style=" stroke: rgb(0, 0,0 );stroke-width: .5;"></line>
  <line x1="777" y1="385" x2="793" y2="382" style=" stroke: rgb(0, 0,0 );stroke-width: .5;"></line>
  <line x1="793" y1="382" x2="810" y2="382" style=" stroke: rgb(0, 0,0 );stroke-width: .5;"></line>
  <line x1="810" y1="382" x2="827" y2="385" style=" stroke: rgb(0, 0,0 );stroke-width: .5;"></line>
  <line x1="827" y1="385" x2="844" y2="389" style=" stroke: rgb(0, 0,0 );stroke-width: .5;"></line>
  <line x1="844" y1="389" x2="858" y2="397" style=" stroke: rgb(0, 0,0 );stroke-width: .5;"></line>
  <line x1="858" y1="397" x2="873" y2="403" style=" stroke: rgb(0, 0,0 );stroke-width: .5;"></line>
  <line x1="873" y1="403" x2="889" y2="409" style=" stroke: rgb(0, 0,0 );stroke-width: .5;"></line>
  <line x1="889" y1="409" x2="906" y2="411" style=" stroke: rgb(0, 0,0 );stroke-width: .5;"></line>
  <line x1="906" y1="411" x2="924" y2="411" style=" stroke: rgb(0, 0,0 );stroke-width: .5;"></line>
  <line x1="924" y1="411" x2="939" y2="409" style=" stroke: rgb(0, 0,0 );stroke-width: .5;"></line>
  <line x1="939" y1="409" x2="956" y2="404" style=" stroke: rgb(0, 0,0 );stroke-width: .5;"></line>
  <line x1="956" y1="404" x2="971" y2="397" style=" stroke: rgb(0, 0,0 );stroke-width: .5;"></line>
  <line x1="648" y1="679" x2="629" y2="663" style=" stroke: rgb(0, 0,0 );stroke-width: .9;"></line>
  <line x1="648" y1="679" x2="640" y2="656" style=" stroke: rgb(0, 0,0 );stroke-width: .9;"></line>
  <line x1="640" y1="656" x2="629" y2="663" style=" stroke: rgb(0, 0,0 );stroke-width: .9;"></line>
  <line x1="635" y1="659" x2="581" y2="583" style=" stroke: rgb(0, 0,0 );stroke-width: .9;"></line>
</svg>
