<?xml version="1.0" encoding="UTF-8"?>
<svg xmlns="http://www.w3.org/2000/svg" height="100%" width="100%" viewBox="175 0 1400 1200" preserveAspectRatio="xMidYMin" class="item-chart">
  <style>
    svg { background-color: white; }

    text.heavy {
      font: 28px Arial, Verdana, sans-serif;
    }
  </style>

  <defs>
    <pattern id="diagonalHatch" patternUnits="userSpaceOnUse" width="4" height="8" patternTransform="rotate(-45 2 2)">
      <path d="M -1,2 l 6,0" stroke="black" stroke-width=".9"/>
    </pattern>
  </defs>

  <text x="858" y="902" alignment-baseline="middle" text-anchor="middle" tspan="" font-weight=" bold" fill="rgb(0,0,0)" class="heavy text-inject">N/A</text>
  <text x="1253" y="656" alignment-baseline="middle" text-anchor="middle" tspan="" font-weight=" bold" fill="rgb(0,0,0)" class="heavy text-inject">N/A</text>
  <text x="857" y="230" alignment-baseline="middle" text-anchor="middle" tspan="" font-weight=" bold" fill="rgb(0,0,0)" class="heavy text-inject">N/A</text>
  <text x="1377" y="646" alignment-baseline="middle" text-anchor="middle" tspan="" font-weight=" bold" fill="rgb(0,0,0)" class="heavy text-inject">N/A</text>
  <text x="858" y="284" alignment-baseline="middle" text-anchor="middle" tspan="" font-weight=" bold" fill="rgb(0,0,0)" class="heavy text-inject">N/A</text>
  <text x="858" y="798" alignment-baseline="middle" text-anchor="middle" tspan="" font-weight=" bold" fill="rgb(0,0,0)" class="heavy text-inject">N/A</text>
  <text x="374" y="726" alignment-baseline="middle" text-anchor="middle" tspan="" font-weight=" bold" fill="rgb(0,0,0)" class="heavy text-inject">N/A</text>
  <text x="858" y="851" alignment-baseline="middle" text-anchor="middle" tspan="" font-weight=" bold" fill="rgb(0,0,0)" class="heavy text-inject">N/A</text>
  <text x="528" y="465" alignment-baseline="middle" text-anchor="middle" tspan="" font-weight=" bold" fill="rgb(0,0,0)" class="heavy text-inject">N/A</text>
  <text x="400" y="1150" alignment-baseline="middle" text-anchor="left" font-weight="bold" fill="rgb(0,0,0)" class="heavy text-inject">N/A</text>
  <text x="720" y="1150" alignment-baseline="middle" text-anchor="left" font-weight="bold" fill="rgb(0,0,0)" class="heavy text-inject">N/A</text>
  <text x="533" y="506" alignment-baseline="middle" text-anchor="middle" tspan="" font-weight=" bold" fill="rgb(0,0,0)" class="heavy text-inject">N/A</text>
  <text x="615" y="1150" alignment-baseline="middle" text-anchor="left" font-weight="bold" fill="rgb(0,0,0)" class="heavy text-inject">N/A</text>
  <text x="420" y="40" alignment-baseline="middle" text-anchor="left" tspan="" font-weight=" bold" fill="rgb(0,0,0)" class="heavy text-inject">N/A</text>
  <text x="450" y="90" alignment-baseline="middle" text-anchor="left" tspan="" font-weight=" bold" fill="rgb(0,0,0)" class="heavy text-inject">N/A</text>


  <text x="225" y="40" alignment-baseline="middle" text-anchor="left" tspan="" font-weight=" bold" fill="rgb(0,0,0)" class="heavy">Flange Weight: </text>
  <text x="225" y="90" alignment-baseline="middle" text-anchor="left" tspan="" font-weight=" bold" fill="rgb(0,0,0)" class="heavy">S/Bolts and Nuts: </text>
  <text x="210" y="1150" alignment-baseline="middle" text-anchor="left" tspan="" font-weight=" bold" fill="rgb(0,0,0)" class="heavy">StudBolt Size:                   UNC (or               ) x               Long</text>
  <text x="1530" y="1150" alignment-baseline="middle" text-anchor="end" font-weight="bold" fill="rgb(0,0,0)" class="heavy">ASME B16.5 2020</text>

  <line x1="720" y1="603" x2="720" y2="624" style=" stroke: rgb(0, 0,0 );stroke-width: 2.5;"></line>
  <line x1="995" y1="603" x2="995" y2="623" style=" stroke: rgb(0, 0,0 );stroke-width: 2.5;"></line>
  <line x1="720" y1="603" x2="745" y2="603" style=" stroke: rgb(0, 0,0 );stroke-width: 2.5;"></line>
  <line x1="971" y1="603" x2="995" y2="603" style=" stroke: rgb(0, 0,0 );stroke-width: 2.5;"></line>
  <line x1="745" y1="603" x2="745" y2="697" style=" stroke: rgb(0, 0,0 );stroke-width: 2.5;"></line>
  <line x1="698" y1="624" x2="720" y2="624" style=" stroke: rgb(0, 0,0 );stroke-width: 2.5;"></line>
  <line x1="593" y1="624" x2="593" y2="682" style=" stroke: rgb(0, 0,0 );stroke-width: 2.5;"></line>
  <line x1="1122" y1="623" x2="1122" y2="682" style=" stroke: rgb(0, 0,0 );stroke-width: 2.5;"></line>
  <line x1="695" y1="682" x2="695" y2="697" style=" stroke: rgb(0, 0,0 );stroke-width: 2.5;"></line>
  <line x1="1020" y1="682" x2="1020" y2="697" style=" stroke: rgb(0, 0,0 );stroke-width: 2.5;"></line>
  <line x1="593" y1="682" x2="695" y2="682" style=" stroke: rgb(0, 0,0 );stroke-width: 2.5;"></line>
  <line x1="1020" y1="682" x2="1122" y2="682" style=" stroke: rgb(0, 0,0 );stroke-width: 2.5;"></line>
  <line x1="614" y1="624" x2="614" y2="682" style=" stroke: rgb(0, 0,0 );stroke-width: 2.5;"></line>
  <line x1="683" y1="624" x2="683" y2="682" style=" stroke: rgb(0, 0,0 );stroke-width: 2.5;"></line>
  <line x1="1032" y1="624" x2="1032" y2="682" style=" stroke: rgb(0, 0,0 );stroke-width: 2.5;"></line>
  <line x1="1102" y1="624" x2="1102" y2="682" style=" stroke: rgb(0, 0,0 );stroke-width: 2.5;"></line>
  <line x1="695" y1="697" x2="1020" y2="697" style=" stroke: rgb(0, 0,0 );stroke-width: 2.5;"></line>
  <line x1="593" y1="624" x2="705" y2="624" style=" stroke: rgb(0, 0,0 );stroke-width: 2.5;"></line>
  <line x1="1122" y1="623" x2="995" y2="623" style=" stroke: rgb(0, 0,0 );stroke-width: 2.5;"></line>
  <line x1="971" y1="603" x2="971" y2="697" style=" stroke: rgb(0, 0,0 );stroke-width: 2.5;"></line>

  <line x1="858" y1="351" x2="858" y2="724" style=" stroke: rgb(0, 0,0 );stroke-width: .5;"></line>
  <line x1="750" y1="681" x2="750" y2="376" style=" stroke: rgb(0, 0,0 );stroke-width: .5;"></line>
  <line x1="750" y1="681" x2="966" y2="681" style=" stroke: rgb(0, 0,0 );stroke-width: .5;"></line>
  <line x1="772" y1="681" x2="772" y2="366" style=" stroke: rgb(0, 0,0 );stroke-width: .5;"></line>
  <line x1="943" y1="681" x2="943" y2="386" style=" stroke: rgb(0, 0,0 );stroke-width: .5;"></line>
  <line x1="750" y1="579" x2="732" y2="603" style=" stroke: rgb(0, 0,0 );stroke-width: .5;"></line>
  <line x1="966" y1="581" x2="988" y2="603" style=" stroke: rgb(0, 0,0 );stroke-width: .5;"></line>
  <line x1="740" y1="603" x2="720" y2="623" style=" stroke: rgb(0, 0,0 );stroke-width: .5;"></line>
  <line x1="745" y1="624" x2="687" y2="682" style=" stroke: rgb(0, 0,0 );stroke-width: .5;"></line>
  <line x1="745" y1="650" x2="698" y2="697" style=" stroke: rgb(0, 0,0 );stroke-width: .5;"></line>
  <line x1="745" y1="675" x2="723" y2="697" style=" stroke: rgb(0, 0,0 );stroke-width: .5;"></line>
  <line x1="1032" y1="637" x2="973" y2="697" style=" stroke: rgb(0, 0,0 );stroke-width: .5;"></line>
  <line x1="1020" y1="624" x2="971" y2="673" style=" stroke: rgb(0, 0,0 );stroke-width: .5;"></line>
  <line x1="995" y1="623" x2="971" y2="648" style=" stroke: rgb(0, 0,0 );stroke-width: .5;"></line>
  <line x1="990" y1="603" x2="971" y2="622" style=" stroke: rgb(0, 0,0 );stroke-width: .5;"></line>
  <line x1="971" y1="693" x2="958" y2="681" style=" stroke: rgb(0, 0,0 );stroke-width: .5;"></line>
  <line x1="745" y1="693" x2="757" y2="681" style=" stroke: rgb(0, 0,0 );stroke-width: .5;"></line>
  <line x1="648" y1="602" x2="648" y2="692" style=" stroke: rgb(0, 0,0 );stroke-width: .5;"></line>
  <line x1="1067" y1="608" x2="1067" y2="697" style=" stroke: rgb(0, 0,0 );stroke-width: .5;"></line>
  <line x1="1113" y1="624" x2="1102" y2="635" style=" stroke: rgb(0, 0,0 );stroke-width: .5;"></line>
  <line x1="1122" y1="635" x2="1102" y2="656" style=" stroke: rgb(0, 0,0 );stroke-width: .5;"></line>
  <line x1="1122" y1="656" x2="1102" y2="677" style=" stroke: rgb(0, 0,0 );stroke-width: .5;"></line>
  <line x1="1122" y1="678" x2="1118" y2="682" style=" stroke: rgb(0, 0,0 );stroke-width: .5;"></line>
  <line x1="1032" y1="663" x2="998" y2="697" style=" stroke: rgb(0, 0,0 );stroke-width: .5;"></line>
  <line x1="694" y1="624" x2="683" y2="635" style=" stroke: rgb(0, 0,0 );stroke-width: .5;"></line>
  <line x1="720" y1="624" x2="683" y2="660" style=" stroke: rgb(0, 0,0 );stroke-width: .5;"></line>
  <line x1="745" y1="612" x2="683" y2="673" style=" stroke: rgb(0, 0,0 );stroke-width: .5;"></line>
  <line x1="745" y1="637" x2="695" y2="687" style=" stroke: rgb(0, 0,0 );stroke-width: .5;"></line>
  <line x1="745" y1="663" x2="711" y2="697" style=" stroke: rgb(0, 0,0 );stroke-width: .5;"></line>
  <line x1="745" y1="687" x2="735" y2="697" style=" stroke: rgb(0, 0,0 );stroke-width: .5;"></line>
  <line x1="707" y1="624" x2="683" y2="648" style=" stroke: rgb(0, 0,0 );stroke-width: .5;"></line>
  <line x1="728" y1="603" x2="720" y2="611" style=" stroke: rgb(0, 0,0 );stroke-width: .5;"></line>
  <line x1="995" y1="610" x2="971" y2="635" style=" stroke: rgb(0, 0,0 );stroke-width: .5;"></line>
  <line x1="1007" y1="624" x2="971" y2="660" style=" stroke: rgb(0, 0,0 );stroke-width: .5;"></line>
  <line x1="1032" y1="624" x2="971" y2="686" style=" stroke: rgb(0, 0,0 );stroke-width: .5;"></line>
  <line x1="1032" y1="650" x2="985" y2="697" style=" stroke: rgb(0, 0,0 );stroke-width: .5;"></line>
  <line x1="1032" y1="675" x2="1025" y2="682" style=" stroke: rgb(0, 0,0 );stroke-width: .5;"></line>
  <line x1="1020" y1="687" x2="1011" y2="697" style=" stroke: rgb(0, 0,0 );stroke-width: .5;"></line>
  <line x1="1122" y1="627" x2="1102" y2="647" style=" stroke: rgb(0, 0,0 );stroke-width: .5;"></line>
  <line x1="1122" y1="648" x2="1102" y2="668" style=" stroke: rgb(0, 0,0 );stroke-width: .5;"></line>
  <line x1="1122" y1="669" x2="1109" y2="682" style=" stroke: rgb(0, 0,0 );stroke-width: .5;"></line>
  <line x1="614" y1="648" x2="593" y2="669" style=" stroke: rgb(0, 0,0 );stroke-width: .5;"></line>
  <line x1="614" y1="636" x2="593" y2="656" style=" stroke: rgb(0, 0,0 );stroke-width: .5;"></line>
  <line x1="614" y1="674" x2="605" y2="682" style=" stroke: rgb(0, 0,0 );stroke-width: .5;"></line>
  <line x1="614" y1="661" x2="593" y2="682" style=" stroke: rgb(0, 0,0 );stroke-width: .5;"></line>
  <line x1="613" y1="624" x2="593" y2="643" style=" stroke: rgb(0, 0,0 );stroke-width: .5;"></line>
  <line x1="600" y1="624" x2="593" y2="631" style=" stroke: rgb(0, 0,0 );stroke-width: .5;"></line>
  <line x1="760" y1="681" x2="750" y2="670" style=" stroke: rgb(0, 0,0 );stroke-width: .5;"></line>
  <line x1="771" y1="681" x2="750" y2="659" style=" stroke: rgb(0, 0,0 );stroke-width: .5;"></line>
  <line x1="772" y1="671" x2="750" y2="649" style=" stroke: rgb(0, 0,0 );stroke-width: .5;"></line>
  <line x1="772" y1="660" x2="750" y2="638" style=" stroke: rgb(0, 0,0 );stroke-width: .5;"></line>
  <line x1="772" y1="650" x2="750" y2="627" style=" stroke: rgb(0, 0,0 );stroke-width: .5;"></line>
  <line x1="772" y1="639" x2="750" y2="617" style=" stroke: rgb(0, 0,0 );stroke-width: .5;"></line>
  <line x1="772" y1="628" x2="750" y2="606" style=" stroke: rgb(0, 0,0 );stroke-width: .5;"></line>
  <line x1="772" y1="618" x2="750" y2="596" style=" stroke: rgb(0, 0,0 );stroke-width: .5;"></line>
  <line x1="772" y1="607" x2="750" y2="585" style=" stroke: rgb(0, 0,0 );stroke-width: .5;"></line>
  <line x1="772" y1="597" x2="750" y2="574" style=" stroke: rgb(0, 0,0 );stroke-width: .5;"></line>
  <line x1="772" y1="586" x2="750" y2="564" style=" stroke: rgb(0, 0,0 );stroke-width: .5;"></line>
  <line x1="772" y1="575" x2="750" y2="553" style=" stroke: rgb(0, 0,0 );stroke-width: .5;"></line>
  <line x1="772" y1="565" x2="750" y2="543" style=" stroke: rgb(0, 0,0 );stroke-width: .5;"></line>
  <line x1="772" y1="554" x2="750" y2="532" style=" stroke: rgb(0, 0,0 );stroke-width: .5;"></line>
  <line x1="772" y1="543" x2="750" y2="521" style=" stroke: rgb(0, 0,0 );stroke-width: .5;"></line>
  <line x1="772" y1="533" x2="750" y2="511" style=" stroke: rgb(0, 0,0 );stroke-width: .5;"></line>
  <line x1="772" y1="522" x2="750" y2="500" style=" stroke: rgb(0, 0,0 );stroke-width: .5;"></line>
  <line x1="772" y1="512" x2="750" y2="490" style=" stroke: rgb(0, 0,0 );stroke-width: .5;"></line>
  <line x1="772" y1="501" x2="750" y2="479" style=" stroke: rgb(0, 0,0 );stroke-width: .5;"></line>
  <line x1="952" y1="681" x2="943" y2="672" style=" stroke: rgb(0, 0,0 );stroke-width: .5;"></line>
  <line x1="772" y1="490" x2="750" y2="468" style=" stroke: rgb(0, 0,0 );stroke-width: .5;"></line>
  <line x1="962" y1="681" x2="943" y2="662" style=" stroke: rgb(0, 0,0 );stroke-width: .5;"></line>
  <line x1="772" y1="480" x2="750" y2="458" style=" stroke: rgb(0, 0,0 );stroke-width: .5;"></line>
  <line x1="966" y1="673" x2="943" y2="651" style=" stroke: rgb(0, 0,0 );stroke-width: .5;"></line>
  <line x1="772" y1="469" x2="750" y2="447" style=" stroke: rgb(0, 0,0 );stroke-width: .5;"></line>
  <line x1="966" y1="662" x2="943" y2="640" style=" stroke: rgb(0, 0,0 );stroke-width: .5;"></line>
  <line x1="772" y1="459" x2="750" y2="437" style=" stroke: rgb(0, 0,0 );stroke-width: .5;"></line>
  <line x1="966" y1="652" x2="943" y2="630" style=" stroke: rgb(0, 0,0 );stroke-width: .5;"></line>
  <line x1="772" y1="448" x2="750" y2="426" style=" stroke: rgb(0, 0,0 );stroke-width: .5;"></line>
  <line x1="966" y1="641" x2="943" y2="619" style=" stroke: rgb(0, 0,0 );stroke-width: .5;"></line>
  <line x1="772" y1="437" x2="750" y2="415" style=" stroke: rgb(0, 0,0 );stroke-width: .5;"></line>
  <line x1="966" y1="631" x2="943" y2="608" style=" stroke: rgb(0, 0,0 );stroke-width: .5;"></line>
  <line x1="772" y1="427" x2="750" y2="405" style=" stroke: rgb(0, 0,0 );stroke-width: .5;"></line>
  <line x1="966" y1="620" x2="943" y2="598" style=" stroke: rgb(0, 0,0 );stroke-width: .5;"></line>
  <line x1="772" y1="416" x2="750" y2="394" style=" stroke: rgb(0, 0,0 );stroke-width: .5;"></line>
  <line x1="966" y1="609" x2="943" y2="587" style=" stroke: rgb(0, 0,0 );stroke-width: .5;"></line>
  <line x1="772" y1="406" x2="750" y2="383" style=" stroke: rgb(0, 0,0 );stroke-width: .5;"></line>
  <line x1="966" y1="599" x2="943" y2="577" style=" stroke: rgb(0, 0,0 );stroke-width: .5;"></line>
  <line x1="772" y1="395" x2="752" y2="375" style=" stroke: rgb(0, 0,0 );stroke-width: .5;"></line>
  <line x1="966" y1="588" x2="943" y2="566" style=" stroke: rgb(0, 0,0 );stroke-width: .5;"></line>
  <line x1="772" y1="384" x2="759" y2="372" style=" stroke: rgb(0, 0,0 );stroke-width: .5;"></line>
  <line x1="966" y1="578" x2="943" y2="555" style=" stroke: rgb(0, 0,0 );stroke-width: .5;"></line>
  <line x1="772" y1="374" x2="766" y2="368" style=" stroke: rgb(0, 0,0 );stroke-width: .5;"></line>
  <line x1="966" y1="567" x2="943" y2="545" style=" stroke: rgb(0, 0,0 );stroke-width: .5;"></line>
  <line x1="966" y1="556" x2="943" y2="534" style=" stroke: rgb(0, 0,0 );stroke-width: .5;"></line>
  <line x1="966" y1="546" x2="943" y2="524" style=" stroke: rgb(0, 0,0 );stroke-width: .5;"></line>
  <line x1="966" y1="535" x2="943" y2="513" style=" stroke: rgb(0, 0,0 );stroke-width: .5;"></line>
  <line x1="966" y1="525" x2="943" y2="502" style=" stroke: rgb(0, 0,0 );stroke-width: .5;"></line>
  <line x1="966" y1="514" x2="943" y2="492" style=" stroke: rgb(0, 0,0 );stroke-width: .5;"></line>
  <line x1="966" y1="503" x2="943" y2="481" style=" stroke: rgb(0, 0,0 );stroke-width: .5;"></line>
  <line x1="966" y1="493" x2="943" y2="471" style=" stroke: rgb(0, 0,0 );stroke-width: .5;"></line>
  <line x1="966" y1="482" x2="943" y2="460" style=" stroke: rgb(0, 0,0 );stroke-width: .5;"></line>
  <line x1="966" y1="472" x2="943" y2="449" style=" stroke: rgb(0, 0,0 );stroke-width: .5;"></line>
  <line x1="966" y1="461" x2="943" y2="439" style=" stroke: rgb(0, 0,0 );stroke-width: .5;"></line>
  <line x1="966" y1="450" x2="943" y2="428" style=" stroke: rgb(0, 0,0 );stroke-width: .5;"></line>
  <line x1="966" y1="440" x2="943" y2="418" style=" stroke: rgb(0, 0,0 );stroke-width: .5;"></line>
  <line x1="966" y1="429" x2="943" y2="407" style=" stroke: rgb(0, 0,0 );stroke-width: .5;"></line>
  <line x1="966" y1="418" x2="943" y2="396" style=" stroke: rgb(0, 0,0 );stroke-width: .5;"></line>
  <line x1="966" y1="408" x2="944" y2="386" style=" stroke: rgb(0, 0,0 );stroke-width: .5;"></line>
  <line x1="966" y1="397" x2="951" y2="383" style=" stroke: rgb(0, 0,0 );stroke-width: .5;"></line>
  <line x1="966" y1="387" x2="958" y2="380" style=" stroke: rgb(0, 0,0 );stroke-width: .5;"></line>
  <line x1="966" y1="376" x2="966" y2="681" style=" stroke: rgb(0, 0,0 );stroke-width: .5;"></line>
  <line x1="750" y1="376" x2="766" y2="368" style=" stroke: rgb(0, 0,0 );stroke-width: .5;"></line>
  <line x1="766" y1="368" x2="777" y2="364" style=" stroke: rgb(0, 0,0 );stroke-width: .5;"></line>
  <line x1="777" y1="364" x2="793" y2="362" style=" stroke: rgb(0, 0,0 );stroke-width: .5;"></line>
  <line x1="793" y1="362" x2="809" y2="362" style=" stroke: rgb(0, 0,0 );stroke-width: .5;"></line>
  <line x1="809" y1="362" x2="826" y2="364" style=" stroke: rgb(0, 0,0 );stroke-width: .5;"></line>
  <line x1="826" y1="364" x2="843" y2="369" style=" stroke: rgb(0, 0,0 );stroke-width: .5;"></line>
  <line x1="843" y1="369" x2="858" y2="376" style=" stroke: rgb(0, 0,0 );stroke-width: .5;"></line>
  <line x1="858" y1="376" x2="872" y2="383" style=" stroke: rgb(0, 0,0 );stroke-width: .5;"></line>
  <line x1="872" y1="383" x2="889" y2="388" style=" stroke: rgb(0, 0,0 );stroke-width: .5;"></line>
  <line x1="889" y1="388" x2="906" y2="390" style=" stroke: rgb(0, 0,0 );stroke-width: .5;"></line>
  <line x1="906" y1="390" x2="923" y2="390" style=" stroke: rgb(0, 0,0 );stroke-width: .5;"></line>
  <line x1="923" y1="390" x2="938" y2="388" style=" stroke: rgb(0, 0,0 );stroke-width: .5;"></line>
  <line x1="938" y1="388" x2="951" y2="383" style=" stroke: rgb(0, 0,0 );stroke-width: .5;"></line>
  <line x1="951" y1="383" x2="966" y2="376" style=" stroke: rgb(0, 0,0 );stroke-width: .5;"></line>
  <line x1="1003" y1="603" x2="1239" y2="603" style=" stroke: rgb(0, 0,0 );stroke-width: .9;"></line>
  <line x1="720" y1="593" x2="720" y2="236" style=" stroke: rgb(0, 0,0 );stroke-width: .9;"></line>
  <line x1="997" y1="595" x2="997" y2="234" style=" stroke: rgb(0, 0,0 );stroke-width: .9;"></line>
  <line x1="742" y1="250" x2="743" y2="250" style=" stroke: rgb(0, 0,0 );stroke-width: .9;"></line>
  <line x1="970" y1="250" x2="973" y2="250" style=" stroke: rgb(0, 0,0 );stroke-width: .9;"></line>
  <line x1="720" y1="250" x2="743" y2="257" style=" stroke: rgb(0, 0,0 );stroke-width: .9;"></line>
  <line x1="720" y1="250" x2="743" y2="244" style=" stroke: rgb(0, 0,0 );stroke-width: .9;"></line>
  <line x1="743" y1="244" x2="743" y2="257" style=" stroke: rgb(0, 0,0 );stroke-width: .9;"></line>
  <line x1="997" y1="250" x2="973" y2="257" style=" stroke: rgb(0, 0,0 );stroke-width: .9;"></line>
  <line x1="997" y1="250" x2="973" y2="244" style=" stroke: rgb(0, 0,0 );stroke-width: .9;"></line>
  <line x1="973" y1="244" x2="973" y2="257" style=" stroke: rgb(0, 0,0 );stroke-width: .9;"></line>
  <line x1="585" y1="682" x2="450" y2="682" style=" stroke: rgb(0, 0,0 );stroke-width: .9;"></line>
  <line x1="687" y1="697" x2="450" y2="697" style=" stroke: rgb(0, 0,0 );stroke-width: .9;"></line>
  <line x1="458" y1="658" x2="458" y2="633" style=" stroke: rgb(0, 0,0 );stroke-width: .9;"></line>
  <line x1="458" y1="746" x2="458" y2="720" style=" stroke: rgb(0, 0,0 );stroke-width: .9;"></line>
  <line x1="458" y1="746" x2="347" y2="746" style=" stroke: rgb(0, 0,0 );stroke-width: .9;"></line>
  <line x1="593" y1="690" x2="593" y2="930" style=" stroke: rgb(0, 0,0 );stroke-width: .9;"></line>
  <line x1="648" y1="703" x2="648" y2="879" style=" stroke: rgb(0, 0,0 );stroke-width: .9;"></line>
  <line x1="695" y1="705" x2="695" y2="826" style=" stroke: rgb(0, 0,0 );stroke-width: .9;"></line>
  <line x1="1020" y1="705" x2="1020" y2="826" style=" stroke: rgb(0, 0,0 );stroke-width: .9;"></line>
  <line x1="1067" y1="707" x2="1067" y2="879" style=" stroke: rgb(0, 0,0 );stroke-width: .9;"></line>
  <line x1="1122" y1="690" x2="1122" y2="930" style=" stroke: rgb(0, 0,0 );stroke-width: .9;"></line>
  <line x1="1131" y1="624" x2="1264" y2="624" style=" stroke: rgb(0, 0,0 );stroke-width: .9;"></line>
  <line x1="695" y1="818" x2="719" y2="811" style=" stroke: rgb(0, 0,0 );stroke-width: .9;"></line>
  <line x1="695" y1="818" x2="719" y2="824" style=" stroke: rgb(0, 0,0 );stroke-width: .9;"></line>
  <line x1="719" y1="824" x2="719" y2="811" style=" stroke: rgb(0, 0,0 );stroke-width: .9;"></line>
  <line x1="648" y1="871" x2="672" y2="864" style=" stroke: rgb(0, 0,0 );stroke-width: .9;"></line>
  <line x1="648" y1="871" x2="672" y2="877" style=" stroke: rgb(0, 0,0 );stroke-width: .9;"></line>
  <line x1="672" y1="877" x2="672" y2="864" style=" stroke: rgb(0, 0,0 );stroke-width: .9;"></line>
  <line x1="593" y1="922" x2="617" y2="916" style=" stroke: rgb(0, 0,0 );stroke-width: .9;"></line>
  <line x1="593" y1="923" x2="617" y2="930" style=" stroke: rgb(0, 0,0 );stroke-width: .9;"></line>
  <line x1="617" y1="929" x2="617" y2="916" style=" stroke: rgb(0, 0,0 );stroke-width: .9;"></line>
  <line x1="1020" y1="818" x2="996" y2="824" style=" stroke: rgb(0, 0,0 );stroke-width: .9;"></line>
  <line x1="1020" y1="818" x2="996" y2="811" style=" stroke: rgb(0, 0,0 );stroke-width: .9;"></line>
  <line x1="996" y1="811" x2="996" y2="824" style=" stroke: rgb(0, 0,0 );stroke-width: .9;"></line>
  <line x1="1067" y1="871" x2="1043" y2="877" style=" stroke: rgb(0, 0,0 );stroke-width: .9;"></line>
  <line x1="1067" y1="871" x2="1043" y2="864" style=" stroke: rgb(0, 0,0 );stroke-width: .9;"></line>
  <line x1="1043" y1="864" x2="1043" y2="877" style=" stroke: rgb(0, 0,0 );stroke-width: .9;"></line>
  <line x1="1122" y1="922" x2="1099" y2="929" style=" stroke: rgb(0, 0,0 );stroke-width: .9;"></line>
  <line x1="1122" y1="922" x2="1099" y2="916" style=" stroke: rgb(0, 0,0 );stroke-width: .9;"></line>
  <line x1="1099" y1="916" x2="1099" y2="929" style=" stroke: rgb(0, 0,0 );stroke-width: .9;"></line>
  <line x1="458" y1="697" x2="465" y2="720" style=" stroke: rgb(0, 0,0 );stroke-width: .9;"></line>
  <line x1="458" y1="697" x2="452" y2="720" style=" stroke: rgb(0, 0,0 );stroke-width: .9;"></line>
  <line x1="452" y1="720" x2="465" y2="720" style=" stroke: rgb(0, 0,0 );stroke-width: .9;"></line>
  <line x1="458" y1="682" x2="452" y2="658" style=" stroke: rgb(0, 0,0 );stroke-width: .9;"></line>
  <line x1="458" y1="682" x2="465" y2="658" style=" stroke: rgb(0, 0,0 );stroke-width: .9;"></line>
  <line x1="465" y1="658" x2="452" y2="658" style=" stroke: rgb(0, 0,0 );stroke-width: .9;"></line>
  <line x1="719" y1="818" x2="996" y2="818" style=" stroke: rgb(0, 0,0 );stroke-width: .9;"></line>
  <line x1="672" y1="871" x2="1043" y2="871" style=" stroke: rgb(0, 0,0 );stroke-width: .9;"></line>
  <line x1="617" y1="922" x2="1099" y2="922" style=" stroke: rgb(0, 0,0 );stroke-width: .9;"></line>
  <line x1="971" y1="600" x2="971" y2="293" style=" stroke: rgb(0, 0,0 );stroke-width: .9;"></line>
  <line x1="971" y1="304" x2="947" y2="310" style=" stroke: rgb(0, 0,0 );stroke-width: .9;"></line>
  <line x1="971" y1="304" x2="947" y2="297" style=" stroke: rgb(0, 0,0 );stroke-width: .9;"></line>
  <line x1="947" y1="297" x2="947" y2="310" style=" stroke: rgb(0, 0,0 );stroke-width: .9;"></line>
  <line x1="744" y1="304" x2="768" y2="310" style=" stroke: rgb(0, 0,0 );stroke-width: .9;"></line>
  <line x1="744" y1="304" x2="768" y2="297" style=" stroke: rgb(0, 0,0 );stroke-width: .9;"></line>
  <line x1="768" y1="297" x2="768" y2="310" style=" stroke: rgb(0, 0,0 );stroke-width: .9;"></line>
  <line x1="744" y1="598" x2="744" y2="291" style=" stroke: rgb(0, 0,0 );stroke-width: .9;"></line>
  <line x1="742" y1="250" x2="970" y2="250" style=" stroke: rgb(0, 0,0 );stroke-width: .9;"></line>
  <line x1="768" y1="304" x2="947" y2="304" style=" stroke: rgb(0, 0,0 );stroke-width: .9;"></line>
  <line x1="1131" y1="682" x2="1388" y2="682" style=" stroke: rgb(0, 0,0 );stroke-width: .9;"></line>
  <line x1="1259" y1="600" x2="1246" y2="600" style=" stroke: rgb(0, 0,0 );stroke-width: .9;"></line>
  <line x1="1253" y1="624" x2="1246" y2="600" style=" stroke: rgb(0, 0,0 );stroke-width: .9;"></line>
  <line x1="1253" y1="624" x2="1259" y2="600" style=" stroke: rgb(0, 0,0 );stroke-width: .9;"></line>
  <line x1="1253" y1="578" x2="1253" y2="600" style=" stroke: rgb(0, 0,0 );stroke-width: .9;"></line>
  <line x1="1253" y1="682" x2="1246" y2="706" style=" stroke: rgb(0, 0,0 );stroke-width: .9;"></line>
  <line x1="1253" y1="682" x2="1259" y2="706" style=" stroke: rgb(0, 0,0 );stroke-width: .9;"></line>
  <line x1="1246" y1="706" x2="1259" y2="706" style=" stroke: rgb(0, 0,0 );stroke-width: .9;"></line>
  <line x1="1253" y1="706" x2="1253" y2="728" style=" stroke: rgb(0, 0,0 );stroke-width: .9;"></line>
  <line x1="1384" y1="579" x2="1371" y2="579" style=" stroke: rgb(0, 0,0 );stroke-width: .9;"></line>
  <line x1="1378" y1="603" x2="1371" y2="579" style=" stroke: rgb(0, 0,0 );stroke-width: .9;"></line>
  <line x1="1378" y1="603" x2="1384" y2="579" style=" stroke: rgb(0, 0,0 );stroke-width: .9;"></line>
  <line x1="1378" y1="556" x2="1378" y2="579" style=" stroke: rgb(0, 0,0 );stroke-width: .9;"></line>
  <line x1="1378" y1="682" x2="1371" y2="706" style=" stroke: rgb(0, 0,0 );stroke-width: .9;"></line>
  <line x1="1378" y1="682" x2="1384" y2="706" style=" stroke: rgb(0, 0,0 );stroke-width: .9;"></line>
  <line x1="1371" y1="706" x2="1384" y2="706" style=" stroke: rgb(0, 0,0 );stroke-width: .9;"></line>
  <line x1="1378" y1="706" x2="1378" y2="728" style=" stroke: rgb(0, 0,0 );stroke-width: .9;"></line>
  <line x1="1266" y1="603" x2="1388" y2="603" style=" stroke: rgb(0, 0,0 );stroke-width: .9;"></line>
  <line x1="648" y1="624" x2="629" y2="608" style=" stroke: rgb(0, 0,0 );stroke-width: .9;"></line>
  <line x1="648" y1="624" x2="640" y2="601" style=" stroke: rgb(0, 0,0 );stroke-width: .9;"></line>
  <line x1="640" y1="601" x2="629" y2="608" style=" stroke: rgb(0, 0,0 );stroke-width: .9;"></line>
  <line x1="635" y1="604" x2="581" y2="528" style=" stroke: rgb(0, 0,0 );stroke-width: .9;"></line>

</svg>
