<?xml version="1.0" encoding="UTF-8"?>
<svg xmlns="http://www.w3.org/2000/svg" height="100%" width="100%" viewBox="175 0 1400 1200" preserveAspectRatio="xMidYMin" class="item-chart">
  <style>
    svg { background-color: white; }

    text.heavy {
      font: 28px Arial, Verdana, sans-serif;
    }
  </style>

  <defs>
    <pattern id="diagonalHatch" patternUnits="userSpaceOnUse" width="4" height="8" patternTransform="rotate(-45 2 2)">
      <path d="M -1,2 l 6,0" stroke="black" stroke-width=".9"/>
    </pattern>
  </defs>

  <text x="858" y="957" alignment-baseline="middle" text-anchor="middle" tspan="" font-weight=" bold" fill="rgb(0,0,0)" class="heavy text-inject">N/A</text>
  <text x="1255" y="711" alignment-baseline="middle" text-anchor="middle" tspan="" font-weight=" bold" fill="rgb(0,0,0)" class="heavy text-inject">N/A</text>
  <text x="857" y="235" alignment-baseline="middle" text-anchor="middle" tspan="" font-weight=" bold" fill="rgb(0,0,0)" class="heavy text-inject">N/A</text>
  <text x="1379" y="701" alignment-baseline="middle" text-anchor="middle" tspan="" font-weight=" bold" fill="rgb(0,0,0)" class="heavy text-inject">N/A</text>
  <text x="858" y="853" alignment-baseline="middle" text-anchor="middle" tspan="" font-weight=" bold" fill="rgb(0,0,0)" class="heavy text-inject">N/A</text>
  <text x="374" y="781" alignment-baseline="middle" text-anchor="middle" tspan="" font-weight=" bold" fill="rgb(0,0,0)" class="heavy text-inject">N/A</text>
  <text x="858" y="906" alignment-baseline="middle" text-anchor="middle" tspan="" font-weight=" bold" fill="rgb(0,0,0)" class="heavy text-inject">N/A</text>
  <text x="528" y="520" alignment-baseline="middle" text-anchor="middle" tspan="" font-weight=" bold" fill="rgb(0,0,0)" class="heavy text-inject">N/A</text>
  <text x="420" y="1150" alignment-baseline="middle" text-anchor="left" tspan="" font-weight=" bold" fill="rgb(0,0,0)" class="heavy text-inject">N/A</text>
  <text x="730" y="1150" alignment-baseline="middle" text-anchor="left" tspan="" font-weight=" bold" fill="rgb(0,0,0)" class="heavy text-inject">N/A</text>
  <text x="533" y="561" alignment-baseline="middle" text-anchor="middle" tspan="" font-weight=" bold" fill="rgb(0,0,0)" class="heavy text-inject">N/A</text>
  <text x="620" y="1150" alignment-baseline="middle" text-anchor="left" tspan="" font-weight=" bold" fill="rgb(0,0,0)" class="heavy text-inject">N/A</text>
  <text x="420" y="40" alignment-baseline="middle" text-anchor="left" tspan="" font-weight=" bold" fill="rgb(0,0,0)" class="heavy text-inject">N/A</text>
  <text x="450" y="90" alignment-baseline="middle" text-anchor="left" tspan="" font-weight=" bold" fill="rgb(0,0,0)" class="heavy text-inject">N/A</text>

  <text x="1530" y="1150" alignment-baseline="middle" text-anchor="end" font-weight="bold" fill="rgb(0,0,0)" class="heavy">ASME B16.5 2019</text>
  <text x="225" y="40" alignment-baseline="middle" text-anchor="left" tspan="" font-weight=" bold" fill="rgb(0,0,0)" class="heavy">Flange Weight:</text>
  <text x="225" y="90" alignment-baseline="middle" text-anchor="left" tspan="" font-weight=" bold" fill="rgb(0,0,0)" class="heavy">S/Bolts and Nuts:</text>
  <text x="225" y="1150" alignment-baseline="middle" text-anchor="left" tspan="" font-weight=" bold" fill="rgb(0,0,0)" class="heavy">StudBolt Size:                   UNC (or           ) x          Long</text>

  <line x1="858" y1="436" x2="858" y2="737" style=" stroke: rgb(0, 0,0 );stroke-width: .5;"></line>
  <line x1="969" y1="737" x2="969" y2="437" style=" stroke: rgb(0, 0,0 );stroke-width: .5;"></line>
  <line x1="746" y1="737" x2="969" y2="737" style=" stroke: rgb(0, 0,0 );stroke-width: .5;"></line>
  <line x1="768" y1="737" x2="768" y2="426" style=" stroke: rgb(0, 0,0 );stroke-width: .5;"></line>
  <line x1="947" y1="737" x2="947" y2="446" style=" stroke: rgb(0, 0,0 );stroke-width: .5;"></line>
  <line x1="755" y1="642" x2="746" y2="642" style=" stroke: rgb(0, 0,0 );stroke-width: .5;"></line>
  <line x1="755" y1="642" x2="755" y2="670" style=" stroke: rgb(0, 0,0 );stroke-width: .5;"></line>
  <line x1="746" y1="670" x2="746" y2="436" style=" stroke: rgb(0, 0,0 );stroke-width: .5;"></line>
  <line x1="960" y1="642" x2="969" y2="642" style=" stroke: rgb(0, 0,0 );stroke-width: .5;"></line>
  <line x1="960" y1="642" x2="960" y2="670" style=" stroke: rgb(0, 0,0 );stroke-width: .5;"></line>
  <line x1="648" y1="667" x2="648" y2="746" style=" stroke: rgb(0, 0,0 );stroke-width: .5;"></line>
  <line x1="1067" y1="668" x2="1067" y2="748" style=" stroke: rgb(0, 0,0 );stroke-width: .5;"></line>
  <line x1="756" y1="737" x2="755" y2="735" style=" stroke: rgb(0, 0,0 );stroke-width: .5;"></line>
  <line x1="767" y1="737" x2="755" y2="725" style=" stroke: rgb(0, 0,0 );stroke-width: .5;"></line>
  <line x1="768" y1="727" x2="755" y2="714" style=" stroke: rgb(0, 0,0 );stroke-width: .5;"></line>
  <line x1="768" y1="716" x2="755" y2="704" style=" stroke: rgb(0, 0,0 );stroke-width: .5;"></line>
  <line x1="768" y1="706" x2="755" y2="693" style=" stroke: rgb(0, 0,0 );stroke-width: .5;"></line>
  <line x1="768" y1="695" x2="755" y2="682" style=" stroke: rgb(0, 0,0 );stroke-width: .5;"></line>
  <line x1="768" y1="684" x2="755" y2="672" style=" stroke: rgb(0, 0,0 );stroke-width: .5;"></line>
  <line x1="768" y1="674" x2="755" y2="661" style=" stroke: rgb(0, 0,0 );stroke-width: .5;"></line>
  <line x1="768" y1="663" x2="755" y2="651" style=" stroke: rgb(0, 0,0 );stroke-width: .5;"></line>
  <line x1="746" y1="642" x2="746" y2="641" style=" stroke: rgb(0, 0,0 );stroke-width: .5;"></line>
  <line x1="768" y1="653" x2="746" y2="631" style=" stroke: rgb(0, 0,0 );stroke-width: .5;"></line>
  <line x1="768" y1="642" x2="746" y2="620" style=" stroke: rgb(0, 0,0 );stroke-width: .5;"></line>
  <line x1="768" y1="631" x2="746" y2="610" style=" stroke: rgb(0, 0,0 );stroke-width: .5;"></line>
  <line x1="768" y1="621" x2="746" y2="599" style=" stroke: rgb(0, 0,0 );stroke-width: .5;"></line>
  <line x1="768" y1="610" x2="746" y2="588" style=" stroke: rgb(0, 0,0 );stroke-width: .5;"></line>
  <line x1="768" y1="600" x2="746" y2="578" style=" stroke: rgb(0, 0,0 );stroke-width: .5;"></line>
  <line x1="768" y1="589" x2="746" y2="567" style=" stroke: rgb(0, 0,0 );stroke-width: .5;"></line>
  <line x1="768" y1="578" x2="746" y2="557" style=" stroke: rgb(0, 0,0 );stroke-width: .5;"></line>
  <line x1="768" y1="568" x2="746" y2="546" style=" stroke: rgb(0, 0,0 );stroke-width: .5;"></line>
  <line x1="768" y1="557" x2="746" y2="535" style=" stroke: rgb(0, 0,0 );stroke-width: .5;"></line>
  <line x1="958" y1="737" x2="947" y2="726" style=" stroke: rgb(0, 0,0 );stroke-width: .5;"></line>
  <line x1="768" y1="547" x2="746" y2="525" style=" stroke: rgb(0, 0,0 );stroke-width: .5;"></line>
  <line x1="960" y1="728" x2="947" y2="715" style=" stroke: rgb(0, 0,0 );stroke-width: .5;"></line>
  <line x1="768" y1="536" x2="746" y2="514" style=" stroke: rgb(0, 0,0 );stroke-width: .5;"></line>
  <line x1="960" y1="717" x2="947" y2="705" style=" stroke: rgb(0, 0,0 );stroke-width: .5;"></line>
  <line x1="768" y1="525" x2="746" y2="503" style=" stroke: rgb(0, 0,0 );stroke-width: .5;"></line>
  <line x1="960" y1="707" x2="947" y2="694" style=" stroke: rgb(0, 0,0 );stroke-width: .5;"></line>
  <line x1="768" y1="515" x2="746" y2="493" style=" stroke: rgb(0, 0,0 );stroke-width: .5;"></line>
  <line x1="960" y1="696" x2="947" y2="684" style=" stroke: rgb(0, 0,0 );stroke-width: .5;"></line>
  <line x1="768" y1="504" x2="746" y2="482" style=" stroke: rgb(0, 0,0 );stroke-width: .5;"></line>
  <line x1="960" y1="686" x2="947" y2="673" style=" stroke: rgb(0, 0,0 );stroke-width: .5;"></line>
  <line x1="768" y1="494" x2="746" y2="472" style=" stroke: rgb(0, 0,0 );stroke-width: .5;"></line>
  <line x1="960" y1="675" x2="947" y2="662" style=" stroke: rgb(0, 0,0 );stroke-width: .5;"></line>
  <line x1="768" y1="483" x2="746" y2="461" style=" stroke: rgb(0, 0,0 );stroke-width: .5;"></line>
  <line x1="960" y1="664" x2="947" y2="652" style=" stroke: rgb(0, 0,0 );stroke-width: .5;"></line>
  <line x1="768" y1="472" x2="746" y2="450" style=" stroke: rgb(0, 0,0 );stroke-width: .5;"></line>
  <line x1="960" y1="654" x2="947" y2="641" style=" stroke: rgb(0, 0,0 );stroke-width: .5;"></line>
  <line x1="768" y1="462" x2="746" y2="440" style=" stroke: rgb(0, 0,0 );stroke-width: .5;"></line>
  <line x1="960" y1="643" x2="947" y2="631" style=" stroke: rgb(0, 0,0 );stroke-width: .5;"></line>
  <line x1="768" y1="451" x2="750" y2="433" style=" stroke: rgb(0, 0,0 );stroke-width: .5;"></line>
  <line x1="969" y1="642" x2="947" y2="620" style=" stroke: rgb(0, 0,0 );stroke-width: .5;"></line>
  <line x1="768" y1="440" x2="757" y2="430" style=" stroke: rgb(0, 0,0 );stroke-width: .5;"></line>
  <line x1="969" y1="631" x2="947" y2="609" style=" stroke: rgb(0, 0,0 );stroke-width: .5;"></line>
  <line x1="768" y1="430" x2="765" y2="427" style=" stroke: rgb(0, 0,0 );stroke-width: .5;"></line>
  <line x1="969" y1="621" x2="947" y2="599" style=" stroke: rgb(0, 0,0 );stroke-width: .5;"></line>
  <line x1="969" y1="610" x2="947" y2="588" style=" stroke: rgb(0, 0,0 );stroke-width: .5;"></line>
  <line x1="969" y1="599" x2="947" y2="578" style=" stroke: rgb(0, 0,0 );stroke-width: .5;"></line>
  <line x1="969" y1="589" x2="947" y2="567" style=" stroke: rgb(0, 0,0 );stroke-width: .5;"></line>
  <line x1="969" y1="578" x2="947" y2="556" style=" stroke: rgb(0, 0,0 );stroke-width: .5;"></line>
  <line x1="969" y1="568" x2="947" y2="546" style=" stroke: rgb(0, 0,0 );stroke-width: .5;"></line>
  <line x1="969" y1="557" x2="947" y2="535" style=" stroke: rgb(0, 0,0 );stroke-width: .5;"></line>
  <line x1="969" y1="546" x2="947" y2="525" style=" stroke: rgb(0, 0,0 );stroke-width: .5;"></line>
  <line x1="969" y1="536" x2="947" y2="514" style=" stroke: rgb(0, 0,0 );stroke-width: .5;"></line>
  <line x1="969" y1="525" x2="947" y2="503" style=" stroke: rgb(0, 0,0 );stroke-width: .5;"></line>
  <line x1="969" y1="515" x2="947" y2="493" style=" stroke: rgb(0, 0,0 );stroke-width: .5;"></line>
  <line x1="969" y1="504" x2="947" y2="482" style=" stroke: rgb(0, 0,0 );stroke-width: .5;"></line>
  <line x1="969" y1="493" x2="947" y2="471" style=" stroke: rgb(0, 0,0 );stroke-width: .5;"></line>
  <line x1="969" y1="483" x2="947" y2="461" style=" stroke: rgb(0, 0,0 );stroke-width: .5;"></line>
  <line x1="969" y1="472" x2="947" y2="450" style=" stroke: rgb(0, 0,0 );stroke-width: .5;"></line>
  <line x1="969" y1="462" x2="952" y2="444" style=" stroke: rgb(0, 0,0 );stroke-width: .5;"></line>
  <line x1="969" y1="451" x2="960" y2="442" style=" stroke: rgb(0, 0,0 );stroke-width: .5;"></line>
  <line x1="969" y1="440" x2="967" y2="438" style=" stroke: rgb(0, 0,0 );stroke-width: .5;"></line>
  <line x1="593" y1="680" x2="595" y2="679" style=" stroke: rgb(0, 0,0 );stroke-width: .5;"></line>
  <line x1="593" y1="691" x2="605" y2="679" style=" stroke: rgb(0, 0,0 );stroke-width: .5;"></line>
  <line x1="593" y1="702" x2="614" y2="681" style=" stroke: rgb(0, 0,0 );stroke-width: .5;"></line>
  <line x1="593" y1="712" x2="614" y2="692" style=" stroke: rgb(0, 0,0 );stroke-width: .5;"></line>
  <line x1="593" y1="723" x2="614" y2="702" style=" stroke: rgb(0, 0,0 );stroke-width: .5;"></line>
  <line x1="593" y1="733" x2="614" y2="713" style=" stroke: rgb(0, 0,0 );stroke-width: .5;"></line>
  <line x1="600" y1="737" x2="614" y2="723" style=" stroke: rgb(0, 0,0 );stroke-width: .5;"></line>
  <line x1="610" y1="737" x2="614" y2="734" style=" stroke: rgb(0, 0,0 );stroke-width: .5;"></line>
  <line x1="683" y1="685" x2="690" y2="679" style=" stroke: rgb(0, 0,0 );stroke-width: .5;"></line>
  <line x1="683" y1="696" x2="701" y2="679" style=" stroke: rgb(0, 0,0 );stroke-width: .5;"></line>
  <line x1="712" y1="668" x2="719" y2="660" style=" stroke: rgb(0, 0,0 );stroke-width: .5;"></line>
  <line x1="683" y1="707" x2="711" y2="679" style=" stroke: rgb(0, 0,0 );stroke-width: .5;"></line>
  <line x1="712" y1="678" x2="730" y2="660" style=" stroke: rgb(0, 0,0 );stroke-width: .5;"></line>
  <line x1="683" y1="717" x2="732" y2="669" style=" stroke: rgb(0, 0,0 );stroke-width: .5;"></line>
  <line x1="683" y1="728" x2="741" y2="670" style=" stroke: rgb(0, 0,0 );stroke-width: .5;"></line>
  <line x1="685" y1="737" x2="746" y2="676" style=" stroke: rgb(0, 0,0 );stroke-width: .5;"></line>
  <line x1="695" y1="737" x2="746" y2="686" style=" stroke: rgb(0, 0,0 );stroke-width: .5;"></line>
  <line x1="695" y1="748" x2="746" y2="697" style=" stroke: rgb(0, 0,0 );stroke-width: .5;"></line>
  <line x1="702" y1="752" x2="746" y2="708" style=" stroke: rgb(0, 0,0 );stroke-width: .5;"></line>
  <line x1="713" y1="752" x2="746" y2="718" style=" stroke: rgb(0, 0,0 );stroke-width: .5;"></line>
  <line x1="723" y1="752" x2="746" y2="729" style=" stroke: rgb(0, 0,0 );stroke-width: .5;"></line>
  <line x1="734" y1="752" x2="746" y2="739" style=" stroke: rgb(0, 0,0 );stroke-width: .5;"></line>
  <line x1="969" y1="675" x2="974" y2="670" style=" stroke: rgb(0, 0,0 );stroke-width: .5;"></line>
  <line x1="969" y1="686" x2="995" y2="660" style=" stroke: rgb(0, 0,0 );stroke-width: .5;"></line>
  <line x1="969" y1="696" x2="1002" y2="663" style=" stroke: rgb(0, 0,0 );stroke-width: .5;"></line>
  <line x1="969" y1="707" x2="1002" y2="674" style=" stroke: rgb(0, 0,0 );stroke-width: .5;"></line>
  <line x1="969" y1="718" x2="1008" y2="679" style=" stroke: rgb(0, 0,0 );stroke-width: .5;"></line>
  <line x1="969" y1="728" x2="1019" y2="679" style=" stroke: rgb(0, 0,0 );stroke-width: .5;"></line>
  <line x1="969" y1="739" x2="1029" y2="679" style=" stroke: rgb(0, 0,0 );stroke-width: .5;"></line>
  <line x1="969" y1="750" x2="1032" y2="687" style=" stroke: rgb(0, 0,0 );stroke-width: .5;"></line>
  <line x1="978" y1="752" x2="1032" y2="697" style=" stroke: rgb(0, 0,0 );stroke-width: .5;"></line>
  <line x1="988" y1="752" x2="1032" y2="708" style=" stroke: rgb(0, 0,0 );stroke-width: .5;"></line>
  <line x1="999" y1="752" x2="1032" y2="719" style=" stroke: rgb(0, 0,0 );stroke-width: .5;"></line>
  <line x1="1010" y1="752" x2="1020" y2="741" style=" stroke: rgb(0, 0,0 );stroke-width: .5;"></line>
  <line x1="1024" y1="737" x2="1032" y2="729" style=" stroke: rgb(0, 0,0 );stroke-width: .5;"></line>
  <line x1="1102" y1="681" x2="1104" y2="679" style=" stroke: rgb(0, 0,0 );stroke-width: .5;"></line>
  <line x1="1102" y1="691" x2="1114" y2="679" style=" stroke: rgb(0, 0,0 );stroke-width: .5;"></line>
  <line x1="1102" y1="702" x2="1122" y2="681" style=" stroke: rgb(0, 0,0 );stroke-width: .5;"></line>
  <line x1="1102" y1="713" x2="1122" y2="692" style=" stroke: rgb(0, 0,0 );stroke-width: .5;"></line>
  <line x1="1102" y1="723" x2="1122" y2="702" style=" stroke: rgb(0, 0,0 );stroke-width: .5;"></line>
  <line x1="1102" y1="734" x2="1122" y2="713" style=" stroke: rgb(0, 0,0 );stroke-width: .5;"></line>
  <line x1="1109" y1="737" x2="1122" y2="724" style=" stroke: rgb(0, 0,0 );stroke-width: .5;"></line>
  <line x1="1120" y1="737" x2="1122" y2="734" style=" stroke: rgb(0, 0,0 );stroke-width: .5;"></line>
  <line x1="1002" y1="660" x2="1002" y2="679" style=" stroke: rgb(0, 0,0 );stroke-width: 2.5;"></line>
  <line x1="712" y1="660" x2="746" y2="660" style=" stroke: rgb(0, 0,0 );stroke-width: 2.5;"></line>
  <line x1="969" y1="660" x2="1002" y2="660" style=" stroke: rgb(0, 0,0 );stroke-width: 2.5;"></line>
  <line x1="732" y1="670" x2="755" y2="670" style=" stroke: rgb(0, 0,0 );stroke-width: 2.5;"></line>
  <line x1="732" y1="660" x2="732" y2="670" style=" stroke: rgb(0, 0,0 );stroke-width: 2.5;"></line>
  <line x1="712" y1="660" x2="712" y2="679" style=" stroke: rgb(0, 0,0 );stroke-width: 2.5;"></line>
  <line x1="755" y1="670" x2="755" y2="752" style=" stroke: rgb(0, 0,0 );stroke-width: 2.5;"></line>
  <line x1="746" y1="752" x2="746" y2="670" style=" stroke: rgb(0, 0,0 );stroke-width: 2.5;"></line>
  <line x1="984" y1="670" x2="960" y2="670" style=" stroke: rgb(0, 0,0 );stroke-width: 2.5;"></line>
  <line x1="969" y1="752" x2="969" y2="670" style=" stroke: rgb(0, 0,0 );stroke-width: 2.5;"></line>
  <line x1="984" y1="660" x2="984" y2="670" style=" stroke: rgb(0, 0,0 );stroke-width: 2.5;"></line>
  <line x1="1020" y1="737" x2="1020" y2="752" style=" stroke: rgb(0, 0,0 );stroke-width: 2.5;"></line>
  <line x1="1020" y1="750" x2="1019" y2="752" style=" stroke: rgb(0, 0,0 );stroke-width: 2.5;"></line>
  <line x1="711" y1="650" x2="711" y2="237" style=" stroke: rgb(0, 0,0 );stroke-width: .9;"></line>
  <line x1="1003" y1="654" x2="1003" y2="233" style=" stroke: rgb(0, 0,0 );stroke-width: .9;"></line>
  <line x1="711" y1="255" x2="735" y2="262" style=" stroke: rgb(0, 0,0 );stroke-width: .9;"></line>
  <line x1="711" y1="255" x2="735" y2="249" style=" stroke: rgb(0, 0,0 );stroke-width: .9;"></line>
  <line x1="735" y1="249" x2="735" y2="262" style=" stroke: rgb(0, 0,0 );stroke-width: .9;"></line>
  <line x1="735" y1="255" x2="979" y2="255" style=" stroke: rgb(0, 0,0 );stroke-width: .9;"></line>
  <line x1="1003" y1="255" x2="979" y2="262" style=" stroke: rgb(0, 0,0 );stroke-width: .9;"></line>
  <line x1="1003" y1="255" x2="979" y2="249" style=" stroke: rgb(0, 0,0 );stroke-width: .9;"></line>
  <line x1="979" y1="249" x2="979" y2="262" style=" stroke: rgb(0, 0,0 );stroke-width: .9;"></line>
  <line x1="593" y1="679" x2="593" y2="737" style=" stroke: rgb(0, 0,0 );stroke-width: 2.5;"></line>
  <line x1="1122" y1="679" x2="1122" y2="737" style=" stroke: rgb(0, 0,0 );stroke-width: 2.5;"></line>
  <line x1="1002" y1="679" x2="1122" y2="679" style=" stroke: rgb(0, 0,0 );stroke-width: 2.5;"></line>
  <line x1="695" y1="737" x2="695" y2="752" style=" stroke: rgb(0, 0,0 );stroke-width: 2.5;"></line>
  <line x1="1020" y1="737" x2="1020" y2="752" style=" stroke: rgb(0, 0,0 );stroke-width: 2.5;"></line>
  <line x1="593" y1="737" x2="695" y2="737" style=" stroke: rgb(0, 0,0 );stroke-width: 2.5;"></line>
  <line x1="1020" y1="737" x2="1122" y2="737" style=" stroke: rgb(0, 0,0 );stroke-width: 2.5;"></line>
  <line x1="614" y1="679" x2="614" y2="737" style=" stroke: rgb(0, 0,0 );stroke-width: 2.5;"></line>
  <line x1="683" y1="679" x2="683" y2="737" style=" stroke: rgb(0, 0,0 );stroke-width: 2.5;"></line>
  <line x1="1032" y1="679" x2="1032" y2="737" style=" stroke: rgb(0, 0,0 );stroke-width: 2.5;"></line>
  <line x1="1102" y1="679" x2="1102" y2="737" style=" stroke: rgb(0, 0,0 );stroke-width: 2.5;"></line>
  <line x1="585" y1="737" x2="450" y2="737" style=" stroke: rgb(0, 0,0 );stroke-width: .9;"></line>
  <line x1="687" y1="752" x2="450" y2="752" style=" stroke: rgb(0, 0,0 );stroke-width: .9;"></line>
  <line x1="458" y1="713" x2="458" y2="688" style=" stroke: rgb(0, 0,0 );stroke-width: .9;"></line>
  <line x1="458" y1="801" x2="458" y2="775" style=" stroke: rgb(0, 0,0 );stroke-width: .9;"></line>
  <line x1="458" y1="801" x2="348" y2="801" style=" stroke: rgb(0, 0,0 );stroke-width: .9;"></line>
  <line x1="593" y1="745" x2="593" y2="985" style=" stroke: rgb(0, 0,0 );stroke-width: .9;"></line>
  <line x1="648" y1="760" x2="648" y2="934" style=" stroke: rgb(0, 0,0 );stroke-width: .9;"></line>
  <line x1="695" y1="760" x2="695" y2="881" style=" stroke: rgb(0, 0,0 );stroke-width: .9;"></line>
  <line x1="1020" y1="760" x2="1020" y2="881" style=" stroke: rgb(0, 0,0 );stroke-width: .9;"></line>
  <line x1="1067" y1="756" x2="1067" y2="934" style=" stroke: rgb(0, 0,0 );stroke-width: .9;"></line>
  <line x1="1122" y1="745" x2="1122" y2="985" style=" stroke: rgb(0, 0,0 );stroke-width: .9;"></line>
  <line x1="695" y1="752" x2="1020" y2="752" style=" stroke: rgb(0, 0,0 );stroke-width: 2.5;"></line>
  <line x1="695" y1="873" x2="719" y2="866" style=" stroke: rgb(0, 0,0 );stroke-width: .9;"></line>
  <line x1="695" y1="873" x2="719" y2="879" style=" stroke: rgb(0, 0,0 );stroke-width: .9;"></line>
  <line x1="719" y1="879" x2="719" y2="866" style=" stroke: rgb(0, 0,0 );stroke-width: .9;"></line>
  <line x1="648" y1="926" x2="672" y2="919" style=" stroke: rgb(0, 0,0 );stroke-width: .9;"></line>
  <line x1="648" y1="926" x2="672" y2="932" style=" stroke: rgb(0, 0,0 );stroke-width: .9;"></line>
  <line x1="672" y1="932" x2="672" y2="919" style=" stroke: rgb(0, 0,0 );stroke-width: .9;"></line>
  <line x1="593" y1="977" x2="617" y2="971" style=" stroke: rgb(0, 0,0 );stroke-width: .9;"></line>
  <line x1="593" y1="978" x2="617" y2="985" style=" stroke: rgb(0, 0,0 );stroke-width: .9;"></line>
  <line x1="617" y1="984" x2="617" y2="971" style=" stroke: rgb(0, 0,0 );stroke-width: .9;"></line>
  <line x1="1020" y1="873" x2="996" y2="879" style=" stroke: rgb(0, 0,0 );stroke-width: .9;"></line>
  <line x1="1020" y1="873" x2="996" y2="866" style=" stroke: rgb(0, 0,0 );stroke-width: .9;"></line>
  <line x1="996" y1="866" x2="996" y2="879" style=" stroke: rgb(0, 0,0 );stroke-width: .9;"></line>
  <line x1="1067" y1="926" x2="1043" y2="932" style=" stroke: rgb(0, 0,0 );stroke-width: .9;"></line>
  <line x1="1067" y1="926" x2="1043" y2="919" style=" stroke: rgb(0, 0,0 );stroke-width: .9;"></line>
  <line x1="1043" y1="919" x2="1043" y2="932" style=" stroke: rgb(0, 0,0 );stroke-width: .9;"></line>
  <line x1="1122" y1="977" x2="1099" y2="984" style=" stroke: rgb(0, 0,0 );stroke-width: .9;"></line>
  <line x1="1122" y1="977" x2="1099" y2="971" style=" stroke: rgb(0, 0,0 );stroke-width: .9;"></line>
  <line x1="1099" y1="971" x2="1099" y2="984" style=" stroke: rgb(0, 0,0 );stroke-width: .9;"></line>
  <line x1="458" y1="752" x2="465" y2="775" style=" stroke: rgb(0, 0,0 );stroke-width: .9;"></line>
  <line x1="458" y1="752" x2="452" y2="775" style=" stroke: rgb(0, 0,0 );stroke-width: .9;"></line>
  <line x1="452" y1="775" x2="465" y2="775" style=" stroke: rgb(0, 0,0 );stroke-width: .9;"></line>
  <line x1="458" y1="737" x2="452" y2="713" style=" stroke: rgb(0, 0,0 );stroke-width: .9;"></line>
  <line x1="458" y1="737" x2="465" y2="713" style=" stroke: rgb(0, 0,0 );stroke-width: .9;"></line>
  <line x1="465" y1="713" x2="452" y2="713" style=" stroke: rgb(0, 0,0 );stroke-width: .9;"></line>
  <line x1="593" y1="679" x2="712" y2="679" style=" stroke: rgb(0, 0,0 );stroke-width: 2.5;"></line>
  <line x1="719" y1="873" x2="996" y2="873" style=" stroke: rgb(0, 0,0 );stroke-width: .9;"></line>
  <line x1="672" y1="926" x2="1043" y2="926" style=" stroke: rgb(0, 0,0 );stroke-width: .9;"></line>
  <line x1="617" y1="977" x2="1099" y2="977" style=" stroke: rgb(0, 0,0 );stroke-width: .9;"></line>
  <line x1="1133" y1="737" x2="1390" y2="737" style=" stroke: rgb(0, 0,0 );stroke-width: .9;"></line>
  <line x1="1255" y1="737" x2="1261" y2="761" style=" stroke: rgb(0, 0,0 );stroke-width: .9;"></line>
  <line x1="1255" y1="737" x2="1248" y2="761" style=" stroke: rgb(0, 0,0 );stroke-width: .9;"></line>
  <line x1="1255" y1="761" x2="1255" y2="783" style=" stroke: rgb(0, 0,0 );stroke-width: .9;"></line>
  <line x1="1248" y1="761" x2="1261" y2="761" style=" stroke: rgb(0, 0,0 );stroke-width: .9;"></line>
  <line x1="1373" y1="761" x2="1386" y2="761" style=" stroke: rgb(0, 0,0 );stroke-width: .9;"></line>
  <line x1="1379" y1="737" x2="1386" y2="761" style=" stroke: rgb(0, 0,0 );stroke-width: .9;"></line>
  <line x1="1379" y1="737" x2="1373" y2="761" style=" stroke: rgb(0, 0,0 );stroke-width: .9;"></line>
  <line x1="1379" y1="761" x2="1379" y2="783" style=" stroke: rgb(0, 0,0 );stroke-width: .9;"></line>
  <line x1="1133" y1="679" x2="1266" y2="679" style=" stroke: rgb(0, 0,0 );stroke-width: .9;"></line>
  <line x1="1005" y1="660" x2="1241" y2="660" style=" stroke: rgb(0, 0,0 );stroke-width: .9;"></line>
  <line x1="1268" y1="660" x2="1390" y2="660" style=" stroke: rgb(0, 0,0 );stroke-width: .9;"></line>
  <line x1="1255" y1="633" x2="1255" y2="655" style=" stroke: rgb(0, 0,0 );stroke-width: .9;"></line>
  <line x1="1255" y1="679" x2="1261" y2="655" style=" stroke: rgb(0, 0,0 );stroke-width: .9;"></line>
  <line x1="1255" y1="679" x2="1248" y2="655" style=" stroke: rgb(0, 0,0 );stroke-width: .9;"></line>
  <line x1="1261" y1="655" x2="1248" y2="655" style=" stroke: rgb(0, 0,0 );stroke-width: .9;"></line>
  <line x1="1379" y1="660" x2="1386" y2="636" style=" stroke: rgb(0, 0,0 );stroke-width: .9;"></line>
  <line x1="1379" y1="660" x2="1373" y2="636" style=" stroke: rgb(0, 0,0 );stroke-width: .9;"></line>
  <line x1="1386" y1="636" x2="1373" y2="636" style=" stroke: rgb(0, 0,0 );stroke-width: .9;"></line>
  <line x1="1379" y1="612" x2="1379" y2="636" style=" stroke: rgb(0, 0,0 );stroke-width: .9;"></line>
  <line x1="960" y1="752" x2="960" y2="670" style=" stroke: rgb(0, 0,0 );stroke-width: 2.5;"></line>
  <line x1="746" y1="436" x2="763" y2="428" style=" stroke: rgb(0, 0,0 );stroke-width: .5;"></line>
  <line x1="763" y1="428" x2="778" y2="424" style=" stroke: rgb(0, 0,0 );stroke-width: .5;"></line>
  <line x1="778" y1="424" x2="794" y2="421" style=" stroke: rgb(0, 0,0 );stroke-width: .5;"></line>
  <line x1="794" y1="421" x2="811" y2="421" style=" stroke: rgb(0, 0,0 );stroke-width: .5;"></line>
  <line x1="811" y1="421" x2="828" y2="424" style=" stroke: rgb(0, 0,0 );stroke-width: .5;"></line>
  <line x1="828" y1="424" x2="844" y2="429" style=" stroke: rgb(0, 0,0 );stroke-width: .5;"></line>
  <line x1="844" y1="429" x2="859" y2="436" style=" stroke: rgb(0, 0,0 );stroke-width: .5;"></line>
  <line x1="859" y1="436" x2="874" y2="443" style=" stroke: rgb(0, 0,0 );stroke-width: .5;"></line>
  <line x1="874" y1="443" x2="890" y2="448" style=" stroke: rgb(0, 0,0 );stroke-width: .5;"></line>
  <line x1="890" y1="448" x2="907" y2="450" style=" stroke: rgb(0, 0,0 );stroke-width: .5;"></line>
  <line x1="907" y1="450" x2="924" y2="450" style=" stroke: rgb(0, 0,0 );stroke-width: .5;"></line>
  <line x1="924" y1="450" x2="940" y2="448" style=" stroke: rgb(0, 0,0 );stroke-width: .5;"></line>
  <line x1="940" y1="448" x2="957" y2="443" style=" stroke: rgb(0, 0,0 );stroke-width: .5;"></line>
  <line x1="957" y1="443" x2="969" y2="437" style=" stroke: rgb(0, 0,0 );stroke-width: .5;"></line>
  <line x1="648" y1="679" x2="629" y2="663" style=" stroke: rgb(0, 0,0 );stroke-width: .9;"></line>
  <line x1="648" y1="679" x2="640" y2="656" style=" stroke: rgb(0, 0,0 );stroke-width: .9;"></line>
  <line x1="640" y1="656" x2="629" y2="663" style=" stroke: rgb(0, 0,0 );stroke-width: .9;"></line>
  <line x1="635" y1="659" x2="581" y2="583" style=" stroke: rgb(0, 0,0 );stroke-width: .9;"></line>
</svg>
