<?xml version="1.0" encoding="UTF-8"?>
<svg xmlns="http://www.w3.org/2000/svg" height="100%" width="100%" viewBox="175 0 1400 1200" preserveAspectRatio="xMidYMid meet" class="item-chart">
  <style>
    svg { background-color: white; }

    text.heavy {
      font: 28px Arial, Verdana, sans-serif;
    }
  </style>

  <defs>
    <pattern id="diagonalHatch" patternUnits="userSpaceOnUse" width="4" height="8" patternTransform="rotate(-45 2 2)">
      <path d="M -1,2 l 6,0" stroke="black" stroke-width=".9"/>
    </pattern>
  </defs>

  <!-- text to inject -->
  <text x="858" y="917" alignment-baseline="middle" text-anchor="middle" tspan="" font-weight=" bold" fill="rgb(0,0,0)" class="heavy text-inject">N/A</text>
  <text x="1252" y="667" alignment-baseline="middle" text-anchor="middle" tspan="" font-weight=" bold" fill="rgb(0,0,0)" class="heavy text-inject">N/A</text>
  <text x="857" y="195" alignment-baseline="middle" text-anchor="middle" tspan="" font-weight=" bold" fill="rgb(0,0,0)" class="heavy text-inject">N/A</text>
  <text x="858" y="249" alignment-baseline="middle" text-anchor="middle" tspan="" font-weight=" bold" fill="rgb(0,0,0)" class="heavy text-inject">N/A</text>
  <text x="1335" y="558" alignment-baseline="middle" text-anchor="middle" tspan="" font-weight=" bold" fill="rgb(0,0,0)" class="heavy text-inject">N/A</text>
  <text x="858" y="813" alignment-baseline="middle" text-anchor="middle" tspan="" font-weight=" bold" fill="rgb(0,0,0)" class="heavy text-inject">N/A</text>
  <text x="374" y="741" alignment-baseline="middle" text-anchor="middle" tspan="" font-weight=" bold" fill="rgb(0,0,0)" class="heavy text-inject">N/A</text>
  <text x="858" y="866" alignment-baseline="middle" text-anchor="middle" tspan="" font-weight=" bold" fill="rgb(0,0,0)" class="heavy text-inject">N/A</text>
  <text x="524" y="477" alignment-baseline="middle" text-anchor="middle" tspan="" font-weight=" bold" fill="rgb(0,0,0)" class="heavy text-inject">N/A</text>
  <text x="420" y="1150" alignment-baseline="middle" text-anchor="left" tspan="" font-weight=" bold" fill="rgb(0,0,0)" class="heavy text-inject">N/A</text>
  <text x="730" y="1150" alignment-baseline="middle" text-anchor="left" tspan="" font-weight=" bold" fill="rgb(0,0,0)" class="heavy text-inject">N/A</text>
  <text x="529" y="518" alignment-baseline="middle" text-anchor="middle" tspan="" font-weight=" bold" fill="rgb(0,0,0)" class="heavy text-inject">N/A</text>
  <text x="620" y="1150" alignment-baseline="middle" text-anchor="left" tspan="" font-weight=" bold" fill="rgb(0,0,0)" class="heavy text-inject">N/A</text>
  <text x="440" y="40" alignment-baseline="middle" text-anchor="left" tspan="" font-weight=" bold" fill="rgb(0,0,0)" class="heavy text-inject">N/A</text>
  <text x="460" y="90" alignment-baseline="middle" text-anchor="left" tspan="" font-weight=" bold" fill="rgb(0,0,0)" class="heavy text-inject">N/A</text>
  <text x="650" y="304" alignment-baseline="middle" text-anchor="middle" tspan="" font-weight=" bold" fill="rgb(0,0,0)" class="heavy text-inject">N/A</text>
  <text x="1415" y="633" alignment-baseline="middle" text-anchor="middle" tspan="" font-weight=" bold" fill="rgb(0,0,0)" class="heavy text-inject">N/A</text>
  <text x="1131" y="529" alignment-baseline="middle" text-anchor="middle" tspan="" font-weight=" bold" fill="rgb(0,0,0)" class="heavy text-inject">N/A</text>
  <text x="856" y="304" alignment-baseline="middle" text-anchor="middle" tspan="" font-weight=" bold" fill="rgb(0,0,0)" class="heavy text-inject">N/A</text>

  <!-- text only   -->
  <text x="1530" y="1150" text-anchor="end" font-weight=" bold" fill="rgb(0,0,0)" class="heavy">ASME B16.5 2020</text>
  <text x="225" y="1150" alignment-baseline="middle" text-anchor="left" tspan="" font-weight=" bold" fill="rgb(0,0,0)" class="heavy">StudBolt Size:                   UNC (or           ) x          Long</text>
  <text x="225" y="40" alignment-baseline="middle" text-anchor="left" tspan="" font-weight=" bold" fill="rgb(0,0,0)" class="heavy">Flange Weight: </text>
  <text x="225" y="90" alignment-baseline="middle" text-anchor="left" tspan="" font-weight=" bold" fill="rgb(0,0,0)" class="heavy">S/Bolts and Nuts: </text>

  <polyline points="763,485 953,485 969,498 969,525 1010,639 1122,639 1122,697 1020,697 1020,712 695,712 695,697 593,697 593,639 705,639 746,525 746,498 763,485" fill="url(#diagonalHatch)" stroke="black" stroke-width="2.5"/>

  <rect x="767" y="485" width="181" height="227" fill="white" stroke="black" stroke-width="2.5"/>
  <rect x="614" y="639" width="69" height="58" fill="white" stroke="black" stroke-width="2.5"/>
  <rect x="1032" y="639" width="69" height="58" fill="white" stroke="black" stroke-width="2.5"/>

  <line x1="1335" y1="697" x2="1329" y2="673" style=" stroke: rgb(0, 0,0 );stroke-width: .9;"></line>
  <line x1="1335" y1="697" x2="1342" y2="673" style=" stroke: rgb(0, 0,0 );stroke-width: .9;"></line>
  <line x1="1342" y1="673" x2="1329" y2="673" style=" stroke: rgb(0, 0,0 );stroke-width: .9;"></line>
  <line x1="1335" y1="485" x2="1342" y2="509" style=" stroke: rgb(0, 0,0 );stroke-width: .9;"></line>
  <line x1="1335" y1="485" x2="1329" y2="509" style=" stroke: rgb(0, 0,0 );stroke-width: .9;"></line>
  <line x1="1329" y1="509" x2="1342" y2="509" style=" stroke: rgb(0, 0,0 );stroke-width: .9;"></line>
  <line x1="770" y1="262" x2="770" y2="275" style=" stroke: rgb(0, 0,0 );stroke-width: .9;"></line>
  <line x1="1335" y1="509" x2="1335" y2="534" style=" stroke: rgb(0, 0,0 );stroke-width: .9;"></line>
  <line x1="1335" y1="585" x2="1335" y2="673" style=" stroke: rgb(0, 0,0 );stroke-width: .9;"></line>
  <line x1="705" y1="204" x2="705" y2="321" style=" stroke: rgb(0, 0,0 );stroke-width: .9;"></line>
  <line x1="742" y1="215" x2="729" y2="215" style=" stroke: rgb(0, 0,0 );stroke-width: .9;"></line>
  <line x1="729" y1="209" x2="729" y2="222" style=" stroke: rgb(0, 0,0 );stroke-width: .9;"></line>
  <line x1="705" y1="216" x2="729" y2="222" style=" stroke: rgb(0, 0,0 );stroke-width: .9;"></line>
  <line x1="705" y1="216" x2="729" y2="209" style=" stroke: rgb(0, 0,0 );stroke-width: .9;"></line>
  <line x1="729" y1="209" x2="729" y2="222" style=" stroke: rgb(0, 0,0 );stroke-width: .9;"></line>
  <line x1="1010" y1="216" x2="986" y2="222" style=" stroke: rgb(0, 0,0 );stroke-width: .9;"></line>
  <line x1="1010" y1="216" x2="986" y2="209" style=" stroke: rgb(0, 0,0 );stroke-width: .9;"></line>
  <line x1="986" y1="209" x2="986" y2="222" style=" stroke: rgb(0, 0,0 );stroke-width: .9;"></line>
  <line x1="969" y1="253" x2="969" y2="481" style=" stroke: rgb(0, 0,0 );stroke-width: .9;"></line>
  <line x1="746" y1="482" x2="746" y2="340" style=" stroke: rgb(0, 0,0 );stroke-width: .9;"></line>

  <line x1="585" y1="697" x2="450" y2="697" style=" stroke: rgb(0, 0,0 );stroke-width: .9;"></line>
  <line x1="458" y1="673" x2="458" y2="648" style=" stroke: rgb(0, 0,0 );stroke-width: .9;"></line>
  <line x1="458" y1="761" x2="458" y2="735" style=" stroke: rgb(0, 0,0 );stroke-width: .9;"></line>
  <line x1="458" y1="761" x2="347" y2="761" style=" stroke: rgb(0, 0,0 );stroke-width: .9;"></line>
  <line x1="648" y1="728" x2="648" y2="894" style=" stroke: rgb(0, 0,0 );stroke-width: .9;"></line>
  <line x1="695" y1="721" x2="695" y2="841" style=" stroke: rgb(0, 0,0 );stroke-width: .9;"></line>
  <line x1="1020" y1="720" x2="1020" y2="841" style=" stroke: rgb(0, 0,0 );stroke-width: .9;"></line>
  <line x1="1067" y1="729" x2="1067" y2="894" style=" stroke: rgb(0, 0,0 );stroke-width: .9;"></line>
  <line x1="1130" y1="639" x2="1261" y2="639" style=" stroke: rgb(0, 0,0 );stroke-width: .9;"></line>

  <line x1="695" y1="833" x2="719" y2="826" style=" stroke: rgb(0, 0,0 );stroke-width: .9;"></line>
  <line x1="695" y1="833" x2="719" y2="839" style=" stroke: rgb(0, 0,0 );stroke-width: .9;"></line>
  <line x1="719" y1="839" x2="719" y2="826" style=" stroke: rgb(0, 0,0 );stroke-width: .9;"></line>
  <line x1="648" y1="886" x2="672" y2="879" style=" stroke: rgb(0, 0,0 );stroke-width: .9;"></line>
  <line x1="648" y1="886" x2="672" y2="892" style=" stroke: rgb(0, 0,0 );stroke-width: .9;"></line>
  <line x1="672" y1="892" x2="672" y2="879" style=" stroke: rgb(0, 0,0 );stroke-width: .9;"></line>
  <line x1="593" y1="937" x2="617" y2="931" style=" stroke: rgb(0, 0,0 );stroke-width: .9;"></line>
  <line x1="593" y1="938" x2="617" y2="945" style=" stroke: rgb(0, 0,0 );stroke-width: .9;"></line>
  <line x1="617" y1="944" x2="617" y2="931" style=" stroke: rgb(0, 0,0 );stroke-width: .9;"></line>
  <line x1="1020" y1="833" x2="996" y2="839" style=" stroke: rgb(0, 0,0 );stroke-width: .9;"></line>
  <line x1="1020" y1="833" x2="996" y2="826" style=" stroke: rgb(0, 0,0 );stroke-width: .9;"></line>
  <line x1="996" y1="826" x2="996" y2="839" style=" stroke: rgb(0, 0,0 );stroke-width: .9;"></line>
  <line x1="1067" y1="886" x2="1043" y2="892" style=" stroke: rgb(0, 0,0 );stroke-width: .9;"></line>
  <line x1="1067" y1="886" x2="1043" y2="879" style=" stroke: rgb(0, 0,0 );stroke-width: .9;"></line>
  <line x1="1043" y1="879" x2="1043" y2="892" style=" stroke: rgb(0, 0,0 );stroke-width: .9;"></line>
  <line x1="1122" y1="937" x2="1099" y2="944" style=" stroke: rgb(0, 0,0 );stroke-width: .9;"></line>
  <line x1="1122" y1="937" x2="1099" y2="931" style=" stroke: rgb(0, 0,0 );stroke-width: .9;"></line>
  <line x1="1099" y1="931" x2="1099" y2="944" style=" stroke: rgb(0, 0,0 );stroke-width: .9;"></line>
  <line x1="458" y1="712" x2="465" y2="735" style=" stroke: rgb(0, 0,0 );stroke-width: .9;"></line>
  <line x1="458" y1="712" x2="452" y2="735" style=" stroke: rgb(0, 0,0 );stroke-width: .9;"></line>
  <line x1="452" y1="735" x2="465" y2="735" style=" stroke: rgb(0, 0,0 );stroke-width: .9;"></line>
  <line x1="644" y1="635" x2="625" y2="620" style=" stroke: rgb(0, 0,0 );stroke-width: .9;"></line>
  <line x1="644" y1="635" x2="636" y2="612" style=" stroke: rgb(0, 0,0 );stroke-width: .9;"></line>
  <line x1="636" y1="612" x2="625" y2="620" style=" stroke: rgb(0, 0,0 );stroke-width: .9;"></line>


  <line x1="719" y1="833" x2="996" y2="833" style=" stroke: rgb(0, 0,0 );stroke-width: .9;"></line>
  <line x1="672" y1="886" x2="1043" y2="886" style=" stroke: rgb(0, 0,0 );stroke-width: .9;"></line>
  <line x1="617" y1="937" x2="1099" y2="937" style=" stroke: rgb(0, 0,0 );stroke-width: .9;"></line>
  <line x1="969" y1="269" x2="945" y2="275" style=" stroke: rgb(0, 0,0 );stroke-width: .9;"></line>
  <line x1="969" y1="269" x2="945" y2="262" style=" stroke: rgb(0, 0,0 );stroke-width: .9;"></line>
  <line x1="945" y1="262" x2="945" y2="275" style=" stroke: rgb(0, 0,0 );stroke-width: .9;"></line>
  <line x1="746" y1="269" x2="770" y2="275" style=" stroke: rgb(0, 0,0 );stroke-width: .9;"></line>
  <line x1="746" y1="269" x2="770" y2="262" style=" stroke: rgb(0, 0,0 );stroke-width: .9;"></line>
  <line x1="770" y1="262" x2="770" y2="275" style=" stroke: rgb(0, 0,0 );stroke-width: .9;"></line>
  <line x1="746" y1="317" x2="746" y2="256" style=" stroke: rgb(0, 0,0 );stroke-width: .9;"></line>

  <line x1="742" y1="215" x2="986" y2="215" style=" stroke: rgb(0, 0,0 );stroke-width: .9;"></line>
  <line x1="770" y1="269" x2="945" y2="269" style=" stroke: rgb(0, 0,0 );stroke-width: .9;"></line>
  <line x1="767" y1="481" x2="767" y2="317" style=" stroke: rgb(0, 0,0 );stroke-width: .9;"></line>
  <line x1="791" y1="327" x2="925" y2="327" style=" stroke: rgb(0, 0,0 );stroke-width: .9;"></line>
  <line x1="763" y1="327" x2="739" y2="320" style=" stroke: rgb(0, 0,0 );stroke-width: .9;"></line>
  <line x1="763" y1="327" x2="739" y2="333" style=" stroke: rgb(0, 0,0 );stroke-width: .9;"></line>
  <line x1="739" y1="327" x2="647" y2="327" style=" stroke: rgb(0, 0,0 );stroke-width: .9;"></line>
  <line x1="739" y1="320" x2="739" y2="333" style=" stroke: rgb(0, 0,0 );stroke-width: .9;"></line>
  <line x1="705" y1="333" x2="705" y2="628" style=" stroke: rgb(0, 0,0 );stroke-width: .9;"></line>
  <line x1="1122" y1="718" x2="1122" y2="945" style=" stroke: rgb(0, 0,0 );stroke-width: .9;"></line>
  <line x1="593" y1="717" x2="593" y2="945" style=" stroke: rgb(0, 0,0 );stroke-width: .9;"></line>
  <line x1="1130" y1="697" x2="1343" y2="697" style=" stroke: rgb(0, 0,0 );stroke-width: .9;"></line>

  <line x1="1253" y1="639" x2="1246" y2="615" style=" stroke: rgb(0, 0,0 );stroke-width: .9;"></line>
  <line x1="1253" y1="639" x2="1259" y2="615" style=" stroke: rgb(0, 0,0 );stroke-width: .9;"></line>
  <line x1="1259" y1="615" x2="1246" y2="615" style=" stroke: rgb(0, 0,0 );stroke-width: .9;"></line>
  <line x1="1253" y1="697" x2="1246" y2="721" style=" stroke: rgb(0, 0,0 );stroke-width: .9;"></line>
  <line x1="1253" y1="697" x2="1259" y2="721" style=" stroke: rgb(0, 0,0 );stroke-width: .9;"></line>
  <line x1="1246" y1="721" x2="1259" y2="721" style=" stroke: rgb(0, 0,0 );stroke-width: .9;"></line>
  <line x1="1253" y1="594" x2="1253" y2="615" style=" stroke: rgb(0, 0,0 );stroke-width: .9;"></line>
  <line x1="1253" y1="721" x2="1253" y2="741" style=" stroke: rgb(0, 0,0 );stroke-width: .9;"></line>
  <line x1="948" y1="317" x2="948" y2="481" style=" stroke: rgb(0, 0,0 );stroke-width: .9;"></line>
  <line x1="767" y1="327" x2="791" y2="333" style=" stroke: rgb(0, 0,0 );stroke-width: .9;"></line>
  <line x1="767" y1="327" x2="791" y2="320" style=" stroke: rgb(0, 0,0 );stroke-width: .9;"></line>
  <line x1="791" y1="320" x2="791" y2="333" style=" stroke: rgb(0, 0,0 );stroke-width: .9;"></line>
  <line x1="948" y1="327" x2="925" y2="333" style=" stroke: rgb(0, 0,0 );stroke-width: .9;"></line>
  <line x1="948" y1="327" x2="925" y2="320" style=" stroke: rgb(0, 0,0 );stroke-width: .9;"></line>
  <line x1="925" y1="320" x2="925" y2="333" style=" stroke: rgb(0, 0,0 );stroke-width: .9;"></line>
  <line x1="763" y1="481" x2="763" y2="317" style=" stroke: rgb(0, 0,0 );stroke-width: .9;"></line>
  <line x1="683" y1="643" x2="688" y2="639" style=" stroke: rgb(0, 0,0 );stroke-width: .5;"></line>
  <line x1="1010" y1="204" x2="1010" y2="478" style=" stroke: rgb(0, 0,0 );stroke-width: .9;"></line>
  <line x1="1415" y1="712" x2="1409" y2="688" style=" stroke: rgb(0, 0,0 );stroke-width: .9;"></line>
  <line x1="1415" y1="712" x2="1422" y2="688" style=" stroke: rgb(0, 0,0 );stroke-width: .9;"></line>
  <line x1="1422" y1="688" x2="1409" y2="688" style=" stroke: rgb(0, 0,0 );stroke-width: .9;"></line>
  <line x1="1415" y1="485" x2="1422" y2="509" style=" stroke: rgb(0, 0,0 );stroke-width: .9;"></line>
  <line x1="1415" y1="485" x2="1409" y2="509" style=" stroke: rgb(0, 0,0 );stroke-width: .9;"></line>
  <line x1="1409" y1="509" x2="1422" y2="509" style=" stroke: rgb(0, 0,0 );stroke-width: .9;"></line>
  <line x1="1415" y1="509" x2="1415" y2="608" style=" stroke: rgb(0, 0,0 );stroke-width: .9;"></line>
  <line x1="1415" y1="659" x2="1415" y2="688" style=" stroke: rgb(0, 0,0 );stroke-width: .9;"></line>
  <line x1="1031" y1="712" x2="1246" y2="712" style=" stroke: rgb(0, 0,0 );stroke-width: .9;"></line>
  <line x1="969" y1="493" x2="969" y2="489" style=" stroke: rgb(0, 0,0 );stroke-width: .9;"></line>
  <line x1="858" y1="538" x2="858" y2="646" style=" stroke: rgb(0, 0,0 );stroke-width: .5;"></line>
  <line x1="858" y1="651" x2="858" y2="657" style=" stroke: rgb(0, 0,0 );stroke-width: .5;"></line>
  <line x1="858" y1="660" x2="858" y2="739" style=" stroke: rgb(0, 0,0 );stroke-width: .5;"></line>
  <line x1="858" y1="744" x2="858" y2="749" style=" stroke: rgb(0, 0,0 );stroke-width: .5;"></line>
  <line x1="858" y1="452" x2="858" y2="523" style=" stroke: rgb(0, 0,0 );stroke-width: .5;"></line>
  <line x1="858" y1="528" x2="858" y2="534" style=" stroke: rgb(0, 0,0 );stroke-width: .5;"></line>
  <line x1="858" y1="442" x2="858" y2="448" style=" stroke: rgb(0, 0,0 );stroke-width: .5;"></line>
  <line x1="648" y1="622" x2="648" y2="705" style=" stroke: rgb(0, 0,0 );stroke-width: .5;"></line>
  <line x1="648" y1="719" x2="648" y2="724" style=" stroke: rgb(0, 0,0 );stroke-width: .5;"></line>
  <line x1="648" y1="613" x2="648" y2="618" style=" stroke: rgb(0, 0,0 );stroke-width: .5;"></line>
  <line x1="1067" y1="622" x2="1067" y2="706" style=" stroke: rgb(0, 0,0 );stroke-width: .5;"></line>
  <line x1="1067" y1="719" x2="1067" y2="724" style=" stroke: rgb(0, 0,0 );stroke-width: .5;"></line>
  <line x1="1067" y1="613" x2="1067" y2="618" style=" stroke: rgb(0, 0,0 );stroke-width: .5;"></line>
  <line x1="687" y1="712" x2="450" y2="712" style=" stroke: rgb(0, 0,0 );stroke-width: .9;"></line>
  <line x1="1063" y1="487" x2="1068" y2="511" style=" stroke: rgb(0, 0,0 );stroke-width: .9;"></line>
  <line x1="1063" y1="487" x2="1055" y2="510" style=" stroke: rgb(0, 0,0 );stroke-width: .9;"></line>
  <line x1="1041" y1="552" x2="1048" y2="529" style=" stroke: rgb(0, 0,0 );stroke-width: .9;"></line>
  <line x1="1041" y1="552" x2="1059" y2="535" style=" stroke: rgb(0, 0,0 );stroke-width: .9;"></line>
  <line x1="1048" y1="529" x2="1059" y2="535" style=" stroke: rgb(0, 0,0 );stroke-width: .9;"></line>
  <line x1="1068" y1="511" x2="1055" y2="510" style=" stroke: rgb(0, 0,0 );stroke-width: .9;"></line>
  <line x1="1048" y1="557" x2="975" y2="502" style=" stroke: rgb(0, 0,0 );stroke-width: .9;"></line>
  <line x1="1061" y1="510" x2="1058" y2="521" style=" stroke: rgb(0, 0,0 );stroke-width: .9;"></line>
  <line x1="1058" y1="521" x2="1053" y2="532" style=" stroke: rgb(0, 0,0 );stroke-width: .9;"></line>
  <line x1="631" y1="616" x2="577" y2="540" style=" stroke: rgb(0, 0,0 );stroke-width: .9;"></line>
  <line x1="458" y1="697" x2="452" y2="673" style=" stroke: rgb(0, 0,0 );stroke-width: .9;"></line>
  <line x1="458" y1="697" x2="465" y2="673" style=" stroke: rgb(0, 0,0 );stroke-width: .9;"></line>
  <line x1="465" y1="673" x2="452" y2="673" style=" stroke: rgb(0, 0,0 );stroke-width: .9;"></line>
  <line x1="458" y1="653" x2="458" y2="673" style=" stroke: rgb(0, 0,0 );stroke-width: .9;"></line>
  <line x1="961" y1="485" x2="1423" y2="485" style=" stroke: rgb(0, 0,0 );stroke-width: .9;"></line>
  <line x1="1010" y1="494" x2="1010" y2="519" style=" stroke: rgb(0, 0,0 );stroke-width: .9;"></line>
  <line x1="1010" y1="539" x2="1010" y2="627" style=" stroke: rgb(0, 0,0 );stroke-width: .9;"></line>
  <line x1="1260" y1="712" x2="1421" y2="712" style=" stroke: rgb(0, 0,0 );stroke-width: .9;"></line>
</svg>
