<?xml version="1.0" encoding="UTF-8"?>
<svg xmlns="http://www.w3.org/2000/svg" height="100%" width="100%" viewBox="175 0 1400 1200" preserveAspectRatio="xMidYMin" class="item-chart">
  <style>
    svg { background-color: white; }

    text.heavy {
      font: 28px Arial, Verdana, sans-serif;
    }
  </style>

  <defs>
    <pattern id="diagonalHatch" patternUnits="userSpaceOnUse" width="4" height="8" patternTransform="rotate(-45 2 2)">
      <path d="M -1,2 l 6,0" stroke="black" stroke-width=".9"/>
    </pattern>
  </defs>

  <text x="858" y="902" alignment-baseline="middle" text-anchor="middle" tspan="" font-weight=" bold" fill="rgb(0,0,0)" class="heavy text-inject">N/AN/A</text>
  <text x="1253" y="656" alignment-baseline="middle" text-anchor="middle" tspan="" font-weight=" bold" fill="rgb(0,0,0)" class="heavy text-inject">N/A</text>
  <text x="857" y="230" alignment-baseline="middle" text-anchor="middle" tspan="" font-weight=" bold" fill="rgb(0,0,0)" class="heavy text-inject">N/A</text>
  <text x="1378" y="646" alignment-baseline="middle" text-anchor="middle" tspan="" font-weight=" bold" fill="rgb(0,0,0)" class="heavy text-inject">N/A</text>
  <text x="858" y="284" alignment-baseline="middle" text-anchor="middle" tspan="" font-weight=" bold" fill="rgb(0,0,0)" class="heavy text-inject">N/A</text>
  <text x="858" y="798" alignment-baseline="middle" text-anchor="middle" tspan="" font-weight=" bold" fill="rgb(0,0,0)" class="heavy text-inject">N/A</text>
  <text x="1453" y="272" alignment-baseline="middle" text-anchor="middle" tspan="" font-weight=" bold" fill="rgb(0,0,0)" class="heavy text-inject">N/A</text>
  <text x="410" y="1050" alignment-baseline="middle" text-anchor="left" tspan="" font-weight=" bold" fill="rgb(0,0,0)" class="heavy text-inject">N/A</text>
  <text x="520" y="1100" alignment-baseline="middle" text-anchor="left" tspan="" font-weight=" bold" fill="rgb(0,0,0)" class="heavy text-inject">N/A</text>
  <text x="858" y="851" alignment-baseline="middle" text-anchor="middle" tspan="" font-weight=" bold" fill="rgb(0,0,0)" class="heavy text-inject">N/A</text>
  <text x="528" y="465" alignment-baseline="middle" text-anchor="middle" tspan="" font-weight=" bold" fill="rgb(0,0,0)" class="heavy text-inject">N/A</text>
  <text x="420" y="1150" alignment-baseline="middle" text-anchor="left" tspan="" font-weight=" bold" fill="rgb(0,0,0)" class="heavy text-inject">N/A</text>
  <text x="740" y="1150" alignment-baseline="middle" text-anchor="left" tspan="" font-weight=" bold" fill="rgb(0,0,0)" class="heavy text-inject">N/A</text>
  <text x="533" y="506" alignment-baseline="middle" text-anchor="middle" tspan="" font-weight=" bold" fill="rgb(0,0,0)" class="heavy text-inject">N/A</text>
  <text x="625" y="1150" alignment-baseline="middle" text-anchor="left" tspan="" font-weight=" bold" fill="rgb(0,0,0)" class="heavy text-inject">N/A</text>
  <text x="420" y="40" alignment-baseline="middle" text-anchor="left" tspan="" font-weight=" bold" fill="rgb(0,0,0)" class="heavy text-inject">N/A</text>
  <text x="857" y="742" alignment-baseline="middle" text-anchor="middle" tspan="" font-weight=" bold" fill="rgb(0,0,0)" class="heavy text-inject">N/A</text>
  <text x="374" y="726" alignment-baseline="middle" text-anchor="middle" tspan="" font-weight=" bold" fill="rgb(0,0,0)" class="heavy text-inject">N/A</text>
  <text x="1225" y="320" alignment-baseline="middle" text-anchor="middle" tspan="" font-weight=" bold" fill="rgb(0,0,0)" class="heavy text-inject">N/A</text>
  <text x="450" y="90" alignment-baseline="middle" text-anchor="left" tspan="" font-weight=" bold" fill="rgb(0,0,0)" class="heavy text-inject">N/A</text>
  <text x="1101" y="266" alignment-baseline="middle" text-anchor="middle" tspan="" font-weight=" bold" fill="rgb(0,0,0)" class="heavy text-inject">N/A</text>

  <text x="225" y="40" alignment-baseline="middle" text-anchor="left" tspan="" font-weight=" bold" fill="rgb(0,0,0)" class="heavy">Flange Weight:</text>
  <text x="225" y="90" alignment-baseline="middle" text-anchor="left" tspan="" font-weight=" bold" fill="rgb(0,0,0)" class="heavy">S/Bolts and Nuts:</text>
  <text x="225" y="1050" alignment-baseline="middle" text-anchor="left" tspan="" font-weight=" bold" fill="rgb(0,0,0)" class="heavy">Ring Number:</text>
  <text x="225" y="1100" alignment-baseline="middle" text-anchor="left" tspan="" font-weight=" bold" fill="rgb(0,0,0)" class="heavy">Gap Between Flanges:</text>
  <text x="225" y="1150" alignment-baseline="middle" text-anchor="left" tspan="" font-weight=" bold" fill="rgb(0,0,0)" class="heavy">StudBolt Size:                   UNC (or               ) x               Long</text>
  <text x="1530" y="1150" alignment-baseline="middle" text-anchor="end" font-weight="bold" fill="rgb(0,0,0)" class="heavy">ASME B16.5 2020</text>

  <line x1="995" y1="603" x2="995" y2="624" style=" stroke: rgb(0, 0,0 );stroke-width: 2.5;"></line>
  <line x1="720" y1="603" x2="745" y2="603" style=" stroke: rgb(0, 0,0 );stroke-width: 2.5;"></line>
  <line x1="971" y1="603" x2="995" y2="603" style=" stroke: rgb(0, 0,0 );stroke-width: 2.5;"></line>
  <line x1="1017" y1="624" x2="995" y2="624" style=" stroke: rgb(0, 0,0 );stroke-width: 2.5;"></line>
  <line x1="745" y1="603" x2="745" y2="697" style=" stroke: rgb(0, 0,0 );stroke-width: 2.5;"></line>
  <line x1="971" y1="603" x2="971" y2="697" style=" stroke: rgb(0, 0,0 );stroke-width: 2.5;"></line>
  <line x1="1243" y1="217" x2="1231" y2="189" style=" stroke: rgb(0, 0,0 );stroke-width: 2.5;"></line>
  <line x1="1231" y1="189" x2="1212" y2="189" style=" stroke: rgb(0, 0,0 );stroke-width: 2.5;"></line>
  <line x1="1243" y1="217" x2="1287" y2="217" style=" stroke: rgb(0, 0,0 );stroke-width: 2.5;"></line>
  <line x1="1200" y1="217" x2="1140" y2="217" style=" stroke: rgb(0, 0,0 );stroke-width: 2.5;"></line>
  <line x1="1140" y1="217" x2="1138" y2="188" style=" stroke: rgb(0, 0,0 );stroke-width: 2.5;"></line>
  <line x1="1138" y1="188" x2="1143" y2="170" style=" stroke: rgb(0, 0,0 );stroke-width: 2.5;"></line>
  <line x1="1143" y1="170" x2="1141" y2="145" style=" stroke: rgb(0, 0,0 );stroke-width: 2.5;"></line>
  <line x1="1141" y1="145" x2="1163" y2="141" style=" stroke: rgb(0, 0,0 );stroke-width: 2.5;"></line>
  <line x1="1163" y1="141" x2="1204" y2="148" style=" stroke: rgb(0, 0,0 );stroke-width: 2.5;"></line>
  <line x1="1204" y1="148" x2="1240" y2="138" style=" stroke: rgb(0, 0,0 );stroke-width: 2.5;"></line>
  <line x1="1240" y1="138" x2="1271" y2="134" style=" stroke: rgb(0, 0,0 );stroke-width: 2.5;"></line>
  <line x1="1271" y1="134" x2="1299" y2="145" style=" stroke: rgb(0, 0,0 );stroke-width: 2.5;"></line>
  <line x1="1299" y1="145" x2="1319" y2="152" style=" stroke: rgb(0, 0,0 );stroke-width: 2.5;"></line>
  <line x1="1319" y1="152" x2="1311" y2="185" style=" stroke: rgb(0, 0,0 );stroke-width: 2.5;"></line>
  <line x1="1311" y1="185" x2="1298" y2="194" style=" stroke: rgb(0, 0,0 );stroke-width: 2.5;"></line>
  <line x1="1298" y1="194" x2="1287" y2="217" style=" stroke: rgb(0, 0,0 );stroke-width: 2.5;"></line>
  <line x1="1200" y1="217" x2="1212" y2="189" style=" stroke: rgb(0, 0,0 );stroke-width: 2.5;"></line>
  <line x1="593" y1="624" x2="593" y2="682" style=" stroke: rgb(0, 0,0 );stroke-width: 2.5;"></line>
  <line x1="1122" y1="624" x2="1122" y2="682" style=" stroke: rgb(0, 0,0 );stroke-width: 2.5;"></line>
  <line x1="1017" y1="624" x2="1122" y2="624" style=" stroke: rgb(0, 0,0 );stroke-width: 2.5;"></line>
  <line x1="695" y1="682" x2="695" y2="697" style=" stroke: rgb(0, 0,0 );stroke-width: 2.5;"></line>
  <line x1="1020" y1="682" x2="1020" y2="697" style=" stroke: rgb(0, 0,0 );stroke-width: 2.5;"></line>
  <line x1="593" y1="682" x2="695" y2="682" style=" stroke: rgb(0, 0,0 );stroke-width: 2.5;"></line>
  <line x1="1020" y1="682" x2="1122" y2="682" style=" stroke: rgb(0, 0,0 );stroke-width: 2.5;"></line>
  <line x1="614" y1="624" x2="614" y2="682" style=" stroke: rgb(0, 0,0 );stroke-width: 2.5;"></line>
  <line x1="683" y1="624" x2="683" y2="682" style=" stroke: rgb(0, 0,0 );stroke-width: 2.5;"></line>
  <line x1="1032" y1="624" x2="1032" y2="682" style=" stroke: rgb(0, 0,0 );stroke-width: 2.5;"></line>
  <line x1="1102" y1="624" x2="1102" y2="682" style=" stroke: rgb(0, 0,0 );stroke-width: 2.5;"></line>
  <line x1="732" y1="697" x2="727" y2="685" style=" stroke: rgb(0, 0,0 );stroke-width: 2.5;"></line>
  <line x1="714" y1="697" x2="719" y2="685" style=" stroke: rgb(0, 0,0 );stroke-width: 2.5;"></line>
  <line x1="719" y1="685" x2="727" y2="685" style=" stroke: rgb(0, 0,0 );stroke-width: 2.5;"></line>
  <line x1="695" y1="697" x2="714" y2="697" style=" stroke: rgb(0, 0,0 );stroke-width: 2.5;"></line>
  <line x1="984" y1="697" x2="989" y2="685" style=" stroke: rgb(0, 0,0 );stroke-width: 2.5;"></line>
  <line x1="1002" y1="697" x2="997" y2="685" style=" stroke: rgb(0, 0,0 );stroke-width: 2.5;"></line>
  <line x1="997" y1="685" x2="989" y2="685" style=" stroke: rgb(0, 0,0 );stroke-width: 2.5;"></line>
  <line x1="732" y1="697" x2="984" y2="697" style=" stroke: rgb(0, 0,0 );stroke-width: 2.5;"></line>
  <line x1="1002" y1="697" x2="1020" y2="697" style=" stroke: rgb(0, 0,0 );stroke-width: 2.5;"></line>
  <line x1="593" y1="624" x2="720" y2="624" style=" stroke: rgb(0, 0,0 );stroke-width: 2.5;"></line>
  <line x1="720" y1="603" x2="720" y2="624" style=" stroke: rgb(0, 0,0 );stroke-width: 2.5;"></line>

  <line x1="858" y1="376" x2="858" y2="681" style=" stroke: rgb(0, 0,0 );stroke-width: .5;"></line>
  <line x1="750" y1="681" x2="750" y2="374" style=" stroke: rgb(0, 0,0 );stroke-width: .5;"></line>
  <line x1="966" y1="681" x2="966" y2="378" style=" stroke: rgb(0, 0,0 );stroke-width: .5;"></line>
  <line x1="750" y1="681" x2="966" y2="681" style=" stroke: rgb(0, 0,0 );stroke-width: .5;"></line>
  <line x1="772" y1="681" x2="772" y2="365" style=" stroke: rgb(0, 0,0 );stroke-width: .5;"></line>
  <line x1="943" y1="681" x2="943" y2="387" style=" stroke: rgb(0, 0,0 );stroke-width: .5;"></line>
  <line x1="986" y1="603" x2="966" y2="583" style=" stroke: rgb(0, 0,0 );stroke-width: .5;"></line>
  <line x1="970" y1="694" x2="957" y2="681" style=" stroke: rgb(0, 0,0 );stroke-width: .5;"></line>
  <line x1="756" y1="681" x2="745" y2="692" style=" stroke: rgb(0, 0,0 );stroke-width: .5;"></line>
  <line x1="750" y1="584" x2="730" y2="603" style=" stroke: rgb(0, 0,0 );stroke-width: .5;"></line>
  <line x1="648" y1="612" x2="648" y2="692" style=" stroke: rgb(0, 0,0 );stroke-width: .5;"></line>
  <line x1="1067" y1="609" x2="1067" y2="693" style=" stroke: rgb(0, 0,0 );stroke-width: .5;"></line>
  <line x1="1142" y1="154" x2="1153" y2="142" style=" stroke: rgb(0, 0,0 );stroke-width: .5;"></line>
  <line x1="1142" y1="164" x2="1165" y2="141" style=" stroke: rgb(0, 0,0 );stroke-width: .5;"></line>
  <line x1="1142" y1="175" x2="1174" y2="143" style=" stroke: rgb(0, 0,0 );stroke-width: .5;"></line>
  <line x1="1138" y1="189" x2="1183" y2="144" style=" stroke: rgb(0, 0,0 );stroke-width: .5;"></line>
  <line x1="1139" y1="199" x2="1192" y2="146" style=" stroke: rgb(0, 0,0 );stroke-width: .5;"></line>
  <line x1="1139" y1="210" x2="1202" y2="147" style=" stroke: rgb(0, 0,0 );stroke-width: .5;"></line>
  <line x1="1142" y1="217" x2="1214" y2="145" style=" stroke: rgb(0, 0,0 );stroke-width: .5;"></line>
  <line x1="1153" y1="217" x2="1229" y2="141" style=" stroke: rgb(0, 0,0 );stroke-width: .5;"></line>
  <line x1="1163" y1="217" x2="1243" y2="138" style=" stroke: rgb(0, 0,0 );stroke-width: .5;"></line>
  <line x1="1174" y1="217" x2="1255" y2="136" style=" stroke: rgb(0, 0,0 );stroke-width: .5;"></line>
  <line x1="1185" y1="217" x2="1211" y2="191" style=" stroke: rgb(0, 0,0 );stroke-width: .5;"></line>
  <line x1="1195" y1="217" x2="1203" y2="209" style=" stroke: rgb(0, 0,0 );stroke-width: .5;"></line>
  <line x1="1224" y1="189" x2="1276" y2="136" style=" stroke: rgb(0, 0,0 );stroke-width: .5;"></line>
  <line x1="1213" y1="189" x2="1267" y2="135" style=" stroke: rgb(0, 0,0 );stroke-width: .5;"></line>
  <line x1="1232" y1="191" x2="1284" y2="139" style=" stroke: rgb(0, 0,0 );stroke-width: .5;"></line>
  <line x1="1235" y1="199" x2="1291" y2="142" style=" stroke: rgb(0, 0,0 );stroke-width: .5;"></line>
  <line x1="1238" y1="206" x2="1299" y2="145" style=" stroke: rgb(0, 0,0 );stroke-width: .5;"></line>
  <line x1="1241" y1="213" x2="1307" y2="148" style=" stroke: rgb(0, 0,0 );stroke-width: .5;"></line>
  <line x1="1248" y1="217" x2="1315" y2="151" style=" stroke: rgb(0, 0,0 );stroke-width: .5;"></line>
  <line x1="1259" y1="217" x2="1317" y2="159" style=" stroke: rgb(0, 0,0 );stroke-width: .5;"></line>
  <line x1="1270" y1="217" x2="1314" y2="173" style=" stroke: rgb(0, 0,0 );stroke-width: .5;"></line>
  <line x1="1280" y1="217" x2="1294" y2="203" style=" stroke: rgb(0, 0,0 );stroke-width: .5;"></line>
  <line x1="593" y1="634" x2="603" y2="624" style=" stroke: rgb(0, 0,0 );stroke-width: .5;"></line>
  <line x1="593" y1="644" x2="614" y2="624" style=" stroke: rgb(0, 0,0 );stroke-width: .5;"></line>
  <line x1="593" y1="655" x2="614" y2="634" style=" stroke: rgb(0, 0,0 );stroke-width: .5;"></line>
  <line x1="593" y1="666" x2="614" y2="645" style=" stroke: rgb(0, 0,0 );stroke-width: .5;"></line>
  <line x1="593" y1="676" x2="614" y2="656" style=" stroke: rgb(0, 0,0 );stroke-width: .5;"></line>
  <line x1="598" y1="682" x2="614" y2="666" style=" stroke: rgb(0, 0,0 );stroke-width: .5;"></line>
  <line x1="608" y1="682" x2="614" y2="677" style=" stroke: rgb(0, 0,0 );stroke-width: .5;"></line>
  <line x1="683" y1="634" x2="693" y2="624" style=" stroke: rgb(0, 0,0 );stroke-width: .5;"></line>
  <line x1="683" y1="644" x2="704" y2="624" style=" stroke: rgb(0, 0,0 );stroke-width: .5;"></line>
  <line x1="720" y1="608" x2="725" y2="603" style=" stroke: rgb(0, 0,0 );stroke-width: .5;"></line>
  <line x1="683" y1="655" x2="715" y2="624" style=" stroke: rgb(0, 0,0 );stroke-width: .5;"></line>
  <line x1="720" y1="619" x2="735" y2="603" style=" stroke: rgb(0, 0,0 );stroke-width: .5;"></line>
  <line x1="683" y1="666" x2="745" y2="604" style=" stroke: rgb(0, 0,0 );stroke-width: .5;"></line>
  <line x1="683" y1="676" x2="745" y2="615" style=" stroke: rgb(0, 0,0 );stroke-width: .5;"></line>
  <line x1="688" y1="682" x2="745" y2="626" style=" stroke: rgb(0, 0,0 );stroke-width: .5;"></line>
  <line x1="695" y1="686" x2="745" y2="636" style=" stroke: rgb(0, 0,0 );stroke-width: .5;"></line>
  <line x1="695" y1="696" x2="745" y2="647" style=" stroke: rgb(0, 0,0 );stroke-width: .5;"></line>
  <line x1="705" y1="697" x2="745" y2="657" style=" stroke: rgb(0, 0,0 );stroke-width: .5;"></line>
  <line x1="727" y1="686" x2="745" y2="668" style=" stroke: rgb(0, 0,0 );stroke-width: .5;"></line>
  <line x1="730" y1="693" x2="745" y2="679" style=" stroke: rgb(0, 0,0 );stroke-width: .5;"></line>
  <line x1="737" y1="697" x2="745" y2="689" style=" stroke: rgb(0, 0,0 );stroke-width: .5;"></line>
  <line x1="971" y1="613" x2="981" y2="603" style=" stroke: rgb(0, 0,0 );stroke-width: .5;"></line>
  <line x1="971" y1="624" x2="991" y2="603" style=" stroke: rgb(0, 0,0 );stroke-width: .5;"></line>
  <line x1="971" y1="635" x2="995" y2="610" style=" stroke: rgb(0, 0,0 );stroke-width: .5;"></line>
  <line x1="971" y1="645" x2="995" y2="621" style=" stroke: rgb(0, 0,0 );stroke-width: .5;"></line>
  <line x1="971" y1="656" x2="1003" y2="624" style=" stroke: rgb(0, 0,0 );stroke-width: .5;"></line>
  <line x1="971" y1="666" x2="1013" y2="624" style=" stroke: rgb(0, 0,0 );stroke-width: .5;"></line>
  <line x1="971" y1="677" x2="1024" y2="624" style=" stroke: rgb(0, 0,0 );stroke-width: .5;"></line>
  <line x1="971" y1="688" x2="1032" y2="626" style=" stroke: rgb(0, 0,0 );stroke-width: .5;"></line>
  <line x1="972" y1="697" x2="1032" y2="637" style=" stroke: rgb(0, 0,0 );stroke-width: .5;"></line>
  <line x1="983" y1="697" x2="984" y2="695" style=" stroke: rgb(0, 0,0 );stroke-width: .5;"></line>
  <line x1="999" y1="691" x2="1032" y2="658" style=" stroke: rgb(0, 0,0 );stroke-width: .5;"></line>
  <line x1="1004" y1="697" x2="1032" y2="669" style=" stroke: rgb(0, 0,0 );stroke-width: .5;"></line>
  <line x1="1015" y1="697" x2="1020" y2="691" style=" stroke: rgb(0, 0,0 );stroke-width: .5;"></line>
  <line x1="995" y1="685" x2="1032" y2="647" style=" stroke: rgb(0, 0,0 );stroke-width: .5;"></line>
  <line x1="1029" y1="682" x2="1032" y2="679" style=" stroke: rgb(0, 0,0 );stroke-width: .5;"></line>
  <line x1="1102" y1="634" x2="1112" y2="624" style=" stroke: rgb(0, 0,0 );stroke-width: .5;"></line>
  <line x1="1102" y1="644" x2="1122" y2="624" style=" stroke: rgb(0, 0,0 );stroke-width: .5;"></line>
  <line x1="1102" y1="655" x2="1122" y2="634" style=" stroke: rgb(0, 0,0 );stroke-width: .5;"></line>
  <line x1="1102" y1="666" x2="1122" y2="645" style=" stroke: rgb(0, 0,0 );stroke-width: .5;"></line>
  <line x1="1102" y1="676" x2="1122" y2="656" style=" stroke: rgb(0, 0,0 );stroke-width: .5;"></line>
  <line x1="1106" y1="682" x2="1122" y2="666" style=" stroke: rgb(0, 0,0 );stroke-width: .5;"></line>
  <line x1="1117" y1="682" x2="1122" y2="677" style=" stroke: rgb(0, 0,0 );stroke-width: .5;"></line>
  <line x1="750" y1="386" x2="772" y2="408" style=" stroke: rgb(0, 0,0 );stroke-width: .5;"></line>
  <line x1="750" y1="376" x2="772" y2="398" style=" stroke: rgb(0, 0,0 );stroke-width: .5;"></line>
  <line x1="755" y1="371" x2="772" y2="387" style=" stroke: rgb(0, 0,0 );stroke-width: .5;"></line>
  <line x1="763" y1="368" x2="772" y2="377" style=" stroke: rgb(0, 0,0 );stroke-width: .5;"></line>
  <line x1="750" y1="397" x2="772" y2="419" style=" stroke: rgb(0, 0,0 );stroke-width: .5;"></line>
  <line x1="750" y1="407" x2="772" y2="430" style=" stroke: rgb(0, 0,0 );stroke-width: .5;"></line>
  <line x1="750" y1="418" x2="772" y2="440" style=" stroke: rgb(0, 0,0 );stroke-width: .5;"></line>
  <line x1="750" y1="429" x2="772" y2="451" style=" stroke: rgb(0, 0,0 );stroke-width: .5;"></line>
  <line x1="750" y1="439" x2="772" y2="461" style=" stroke: rgb(0, 0,0 );stroke-width: .5;"></line>
  <line x1="750" y1="450" x2="772" y2="472" style=" stroke: rgb(0, 0,0 );stroke-width: .5;"></line>
  <line x1="750" y1="461" x2="772" y2="483" style=" stroke: rgb(0, 0,0 );stroke-width: .5;"></line>
  <line x1="750" y1="471" x2="772" y2="493" style=" stroke: rgb(0, 0,0 );stroke-width: .5;"></line>
  <line x1="750" y1="482" x2="772" y2="504" style=" stroke: rgb(0, 0,0 );stroke-width: .5;"></line>
  <line x1="750" y1="492" x2="772" y2="514" style=" stroke: rgb(0, 0,0 );stroke-width: .5;"></line>
  <line x1="750" y1="503" x2="772" y2="525" style=" stroke: rgb(0, 0,0 );stroke-width: .5;"></line>
  <line x1="750" y1="514" x2="772" y2="536" style=" stroke: rgb(0, 0,0 );stroke-width: .5;"></line>
  <line x1="750" y1="524" x2="772" y2="546" style=" stroke: rgb(0, 0,0 );stroke-width: .5;"></line>
  <line x1="750" y1="535" x2="772" y2="557" style=" stroke: rgb(0, 0,0 );stroke-width: .5;"></line>
  <line x1="750" y1="545" x2="772" y2="567" style=" stroke: rgb(0, 0,0 );stroke-width: .5;"></line>
  <line x1="750" y1="556" x2="772" y2="578" style=" stroke: rgb(0, 0,0 );stroke-width: .5;"></line>
  <line x1="750" y1="567" x2="772" y2="589" style=" stroke: rgb(0, 0,0 );stroke-width: .5;"></line>
  <line x1="750" y1="577" x2="772" y2="599" style=" stroke: rgb(0, 0,0 );stroke-width: .5;"></line>
  <line x1="750" y1="588" x2="772" y2="610" style=" stroke: rgb(0, 0,0 );stroke-width: .5;"></line>
  <line x1="750" y1="598" x2="772" y2="621" style=" stroke: rgb(0, 0,0 );stroke-width: .5;"></line>
  <line x1="750" y1="609" x2="772" y2="631" style=" stroke: rgb(0, 0,0 );stroke-width: .5;"></line>
  <line x1="750" y1="620" x2="772" y2="642" style=" stroke: rgb(0, 0,0 );stroke-width: .5;"></line>
  <line x1="750" y1="630" x2="772" y2="652" style=" stroke: rgb(0, 0,0 );stroke-width: .5;"></line>
  <line x1="750" y1="641" x2="772" y2="663" style=" stroke: rgb(0, 0,0 );stroke-width: .5;"></line>
  <line x1="750" y1="651" x2="772" y2="674" style=" stroke: rgb(0, 0,0 );stroke-width: .5;"></line>
  <line x1="750" y1="662" x2="768" y2="681" style=" stroke: rgb(0, 0,0 );stroke-width: .5;"></line>
  <line x1="750" y1="673" x2="758" y2="681" style=" stroke: rgb(0, 0,0 );stroke-width: .5;"></line>
  <line x1="943" y1="396" x2="966" y2="418" style=" stroke: rgb(0, 0,0 );stroke-width: .5;"></line>
  <line x1="945" y1="386" x2="966" y2="407" style=" stroke: rgb(0, 0,0 );stroke-width: .5;"></line>
  <line x1="953" y1="384" x2="966" y2="397" style=" stroke: rgb(0, 0,0 );stroke-width: .5;"></line>
  <line x1="943" y1="406" x2="966" y2="429" style=" stroke: rgb(0, 0,0 );stroke-width: .5;"></line>
  <line x1="943" y1="417" x2="966" y2="439" style=" stroke: rgb(0, 0,0 );stroke-width: .5;"></line>
  <line x1="943" y1="428" x2="966" y2="450" style=" stroke: rgb(0, 0,0 );stroke-width: .5;"></line>
  <line x1="943" y1="438" x2="966" y2="460" style=" stroke: rgb(0, 0,0 );stroke-width: .5;"></line>
  <line x1="943" y1="449" x2="966" y2="471" style=" stroke: rgb(0, 0,0 );stroke-width: .5;"></line>
  <line x1="943" y1="459" x2="966" y2="482" style=" stroke: rgb(0, 0,0 );stroke-width: .5;"></line>
  <line x1="943" y1="470" x2="966" y2="492" style=" stroke: rgb(0, 0,0 );stroke-width: .5;"></line>
  <line x1="943" y1="481" x2="966" y2="503" style=" stroke: rgb(0, 0,0 );stroke-width: .5;"></line>
  <line x1="943" y1="491" x2="966" y2="513" style=" stroke: rgb(0, 0,0 );stroke-width: .5;"></line>
  <line x1="943" y1="502" x2="966" y2="524" style=" stroke: rgb(0, 0,0 );stroke-width: .5;"></line>
  <line x1="943" y1="512" x2="966" y2="535" style=" stroke: rgb(0, 0,0 );stroke-width: .5;"></line>
  <line x1="943" y1="523" x2="966" y2="545" style=" stroke: rgb(0, 0,0 );stroke-width: .5;"></line>
  <line x1="943" y1="534" x2="966" y2="556" style=" stroke: rgb(0, 0,0 );stroke-width: .5;"></line>
  <line x1="943" y1="544" x2="966" y2="566" style=" stroke: rgb(0, 0,0 );stroke-width: .5;"></line>
  <line x1="943" y1="555" x2="966" y2="577" style=" stroke: rgb(0, 0,0 );stroke-width: .5;"></line>
  <line x1="943" y1="566" x2="966" y2="588" style=" stroke: rgb(0, 0,0 );stroke-width: .5;"></line>
  <line x1="943" y1="576" x2="966" y2="598" style=" stroke: rgb(0, 0,0 );stroke-width: .5;"></line>
  <line x1="943" y1="587" x2="966" y2="609" style=" stroke: rgb(0, 0,0 );stroke-width: .5;"></line>
  <line x1="943" y1="597" x2="966" y2="619" style=" stroke: rgb(0, 0,0 );stroke-width: .5;"></line>
  <line x1="943" y1="608" x2="966" y2="630" style=" stroke: rgb(0, 0,0 );stroke-width: .5;"></line>
  <line x1="943" y1="619" x2="966" y2="641" style=" stroke: rgb(0, 0,0 );stroke-width: .5;"></line>
  <line x1="943" y1="629" x2="966" y2="651" style=" stroke: rgb(0, 0,0 );stroke-width: .5;"></line>
  <line x1="943" y1="640" x2="966" y2="662" style=" stroke: rgb(0, 0,0 );stroke-width: .5;"></line>
  <line x1="943" y1="650" x2="966" y2="672" style=" stroke: rgb(0, 0,0 );stroke-width: .5;"></line>
  <line x1="943" y1="661" x2="963" y2="681" style=" stroke: rgb(0, 0,0 );stroke-width: .5;"></line>
  <line x1="943" y1="672" x2="952" y2="681" style=" stroke: rgb(0, 0,0 );stroke-width: .5;"></line>
  <line x1="720" y1="599" x2="720" y2="235" style=" stroke: rgb(0, 0,0 );stroke-width: .9;"></line>
  <line x1="996" y1="595" x2="996" y2="233" style=" stroke: rgb(0, 0,0 );stroke-width: .9;"></line>
  <line x1="720" y1="250" x2="743" y2="257" style=" stroke: rgb(0, 0,0 );stroke-width: .9;"></line>
  <line x1="720" y1="250" x2="743" y2="244" style=" stroke: rgb(0, 0,0 );stroke-width: .9;"></line>
  <line x1="743" y1="244" x2="743" y2="257" style=" stroke: rgb(0, 0,0 );stroke-width: .9;"></line>
  <line x1="743" y1="250" x2="972" y2="250" style=" stroke: rgb(0, 0,0 );stroke-width: .9;"></line>
  <line x1="996" y1="250" x2="972" y2="257" style=" stroke: rgb(0, 0,0 );stroke-width: .9;"></line>
  <line x1="996" y1="250" x2="972" y2="244" style=" stroke: rgb(0, 0,0 );stroke-width: .9;"></line>
  <line x1="972" y1="244" x2="972" y2="257" style=" stroke: rgb(0, 0,0 );stroke-width: .9;"></line>
  <line x1="746" y1="352" x2="746" y2="599" style=" stroke: rgb(0, 0,0 );stroke-width: .9;"></line>
  <line x1="969" y1="355" x2="969" y2="596" style=" stroke: rgb(0, 0,0 );stroke-width: .9;"></line>
  <line x1="1239" y1="189" x2="1461" y2="189" style=" stroke: rgb(0, 0,0 );stroke-width: .9;"></line>
  <line x1="1295" y1="217" x2="1461" y2="217" style=" stroke: rgb(0, 0,0 );stroke-width: .9;"></line>
  <line x1="1200" y1="225" x2="1200" y2="299" style=" stroke: rgb(0, 0,0 );stroke-width: .9;"></line>
  <line x1="1243" y1="225" x2="1243" y2="299" style=" stroke: rgb(0, 0,0 );stroke-width: .9;"></line>
  <line x1="1168" y1="293" x2="1196" y2="226" style=" stroke: rgb(0, 0,0 );stroke-width: .9;"></line>
  <line x1="1219" y1="291" x2="1223" y2="291" style=" stroke: rgb(0, 0,0 );stroke-width: .9;"></line>
  <line x1="1453" y1="165" x2="1453" y2="154" style=" stroke: rgb(0, 0,0 );stroke-width: .9;"></line>
  <line x1="1154" y1="276" x2="1149" y2="273" style=" stroke: rgb(0, 0,0 );stroke-width: .9;"></line>
  <line x1="1149" y1="273" x2="1139" y2="273" style=" stroke: rgb(0, 0,0 );stroke-width: .9;"></line>
  <line x1="1200" y1="291" x2="1219" y2="286" style=" stroke: rgb(0, 0,0 );stroke-width: .9;"></line>
  <line x1="1200" y1="291" x2="1219" y2="296" style=" stroke: rgb(0, 0,0 );stroke-width: .9;"></line>
  <line x1="1223" y1="296" x2="1223" y2="286" style=" stroke: rgb(0, 0,0 );stroke-width: .9;"></line>
  <line x1="1243" y1="291" x2="1223" y2="286" style=" stroke: rgb(0, 0,0 );stroke-width: .9;"></line>
  <line x1="1243" y1="291" x2="1223" y2="296" style=" stroke: rgb(0, 0,0 );stroke-width: .9;"></line>
  <line x1="1219" y1="296" x2="1219" y2="286" style=" stroke: rgb(0, 0,0 );stroke-width: .9;"></line>
  <line x1="1151" y1="281" x2="1156" y2="271" style=" stroke: rgb(0, 0,0 );stroke-width: .9;"></line>
  <line x1="1171" y1="285" x2="1156" y2="271" style=" stroke: rgb(0, 0,0 );stroke-width: .9;"></line>
  <line x1="1171" y1="285" x2="1151" y2="281" style=" stroke: rgb(0, 0,0 );stroke-width: .9;"></line>
  <line x1="1453" y1="189" x2="1447" y2="165" style=" stroke: rgb(0, 0,0 );stroke-width: .9;"></line>
  <line x1="1453" y1="189" x2="1460" y2="165" style=" stroke: rgb(0, 0,0 );stroke-width: .9;"></line>
  <line x1="1460" y1="165" x2="1447" y2="165" style=" stroke: rgb(0, 0,0 );stroke-width: .9;"></line>
  <line x1="1460" y1="241" x2="1453" y2="217" style=" stroke: rgb(0, 0,0 );stroke-width: .9;"></line>
  <line x1="1447" y1="241" x2="1453" y2="217" style=" stroke: rgb(0, 0,0 );stroke-width: .9;"></line>
  <line x1="1447" y1="241" x2="1460" y2="241" style=" stroke: rgb(0, 0,0 );stroke-width: .9;"></line>
  <line x1="1453" y1="241" x2="1453" y2="254" style=" stroke: rgb(0, 0,0 );stroke-width: .9;"></line>
  <line x1="585" y1="682" x2="450" y2="682" style=" stroke: rgb(0, 0,0 );stroke-width: .9;"></line>
  <line x1="687" y1="697" x2="450" y2="697" style=" stroke: rgb(0, 0,0 );stroke-width: .9;"></line>
  <line x1="458" y1="658" x2="458" y2="633" style=" stroke: rgb(0, 0,0 );stroke-width: .9;"></line>
  <line x1="458" y1="746" x2="458" y2="720" style=" stroke: rgb(0, 0,0 );stroke-width: .9;"></line>
  <line x1="458" y1="746" x2="353" y2="746" style=" stroke: rgb(0, 0,0 );stroke-width: .9;"></line>
  <line x1="593" y1="690" x2="593" y2="930" style=" stroke: rgb(0, 0,0 );stroke-width: .9;"></line>
  <line x1="648" y1="716" x2="648" y2="879" style=" stroke: rgb(0, 0,0 );stroke-width: .9;"></line>
  <line x1="695" y1="705" x2="695" y2="826" style=" stroke: rgb(0, 0,0 );stroke-width: .9;"></line>
  <line x1="1020" y1="705" x2="1020" y2="826" style=" stroke: rgb(0, 0,0 );stroke-width: .9;"></line>
  <line x1="1067" y1="706" x2="1067" y2="879" style=" stroke: rgb(0, 0,0 );stroke-width: .9;"></line>
  <line x1="1122" y1="690" x2="1122" y2="930" style=" stroke: rgb(0, 0,0 );stroke-width: .9;"></line>
  <line x1="723" y1="693" x2="723" y2="773" style=" stroke: rgb(0, 0,0 );stroke-width: .9;"></line>
  <line x1="993" y1="693" x2="993" y2="773" style=" stroke: rgb(0, 0,0 );stroke-width: .9;"></line>
  <line x1="723" y1="765" x2="746" y2="771" style=" stroke: rgb(0, 0,0 );stroke-width: .9;"></line>
  <line x1="746" y1="771" x2="746" y2="758" style=" stroke: rgb(0, 0,0 );stroke-width: .9;"></line>
  <line x1="695" y1="818" x2="719" y2="811" style=" stroke: rgb(0, 0,0 );stroke-width: .9;"></line>
  <line x1="695" y1="818" x2="719" y2="824" style=" stroke: rgb(0, 0,0 );stroke-width: .9;"></line>
  <line x1="719" y1="824" x2="719" y2="811" style=" stroke: rgb(0, 0,0 );stroke-width: .9;"></line>
  <line x1="648" y1="871" x2="672" y2="864" style=" stroke: rgb(0, 0,0 );stroke-width: .9;"></line>
  <line x1="648" y1="871" x2="672" y2="877" style=" stroke: rgb(0, 0,0 );stroke-width: .9;"></line>
  <line x1="672" y1="877" x2="672" y2="864" style=" stroke: rgb(0, 0,0 );stroke-width: .9;"></line>
  <line x1="593" y1="922" x2="617" y2="916" style=" stroke: rgb(0, 0,0 );stroke-width: .9;"></line>
  <line x1="593" y1="923" x2="617" y2="930" style=" stroke: rgb(0, 0,0 );stroke-width: .9;"></line>
  <line x1="617" y1="929" x2="617" y2="916" style=" stroke: rgb(0, 0,0 );stroke-width: .9;"></line>
  <line x1="993" y1="765" x2="969" y2="771" style=" stroke: rgb(0, 0,0 );stroke-width: .9;"></line>
  <line x1="993" y1="765" x2="969" y2="758" style=" stroke: rgb(0, 0,0 );stroke-width: .9;"></line>
  <line x1="969" y1="758" x2="969" y2="771" style=" stroke: rgb(0, 0,0 );stroke-width: .9;"></line>
  <line x1="1020" y1="818" x2="996" y2="824" style=" stroke: rgb(0, 0,0 );stroke-width: .9;"></line>
  <line x1="1020" y1="818" x2="996" y2="811" style=" stroke: rgb(0, 0,0 );stroke-width: .9;"></line>
  <line x1="996" y1="811" x2="996" y2="824" style=" stroke: rgb(0, 0,0 );stroke-width: .9;"></line>
  <line x1="1067" y1="871" x2="1043" y2="877" style=" stroke: rgb(0, 0,0 );stroke-width: .9;"></line>
  <line x1="1067" y1="871" x2="1043" y2="864" style=" stroke: rgb(0, 0,0 );stroke-width: .9;"></line>
  <line x1="1043" y1="864" x2="1043" y2="877" style=" stroke: rgb(0, 0,0 );stroke-width: .9;"></line>
  <line x1="1122" y1="922" x2="1099" y2="929" style=" stroke: rgb(0, 0,0 );stroke-width: .9;"></line>
  <line x1="1122" y1="922" x2="1099" y2="916" style=" stroke: rgb(0, 0,0 );stroke-width: .9;"></line>
  <line x1="1099" y1="916" x2="1099" y2="929" style=" stroke: rgb(0, 0,0 );stroke-width: .9;"></line>
  <line x1="458" y1="697" x2="465" y2="720" style=" stroke: rgb(0, 0,0 );stroke-width: .9;"></line>
  <line x1="458" y1="697" x2="452" y2="720" style=" stroke: rgb(0, 0,0 );stroke-width: .9;"></line>
  <line x1="452" y1="720" x2="465" y2="720" style=" stroke: rgb(0, 0,0 );stroke-width: .9;"></line>
  <line x1="458" y1="682" x2="452" y2="658" style=" stroke: rgb(0, 0,0 );stroke-width: .9;"></line>
  <line x1="458" y1="682" x2="465" y2="658" style=" stroke: rgb(0, 0,0 );stroke-width: .9;"></line>
  <line x1="465" y1="658" x2="452" y2="658" style=" stroke: rgb(0, 0,0 );stroke-width: .9;"></line>
  <line x1="723" y1="765" x2="746" y2="758" style=" stroke: rgb(0, 0,0 );stroke-width: .9;"></line>
  <line x1="746" y1="765" x2="969" y2="765" style=" stroke: rgb(0, 0,0 );stroke-width: .9;"></line>
  <line x1="719" y1="818" x2="996" y2="818" style=" stroke: rgb(0, 0,0 );stroke-width: .9;"></line>
  <line x1="672" y1="871" x2="1043" y2="871" style=" stroke: rgb(0, 0,0 );stroke-width: .9;"></line>
  <line x1="617" y1="922" x2="1099" y2="922" style=" stroke: rgb(0, 0,0 );stroke-width: .9;"></line>
  <line x1="969" y1="355" x2="969" y2="293" style=" stroke: rgb(0, 0,0 );stroke-width: .9;"></line>
  <line x1="969" y1="304" x2="945" y2="310" style=" stroke: rgb(0, 0,0 );stroke-width: .9;"></line>
  <line x1="969" y1="304" x2="945" y2="297" style=" stroke: rgb(0, 0,0 );stroke-width: .9;"></line>
  <line x1="945" y1="297" x2="945" y2="310" style=" stroke: rgb(0, 0,0 );stroke-width: .9;"></line>
  <line x1="746" y1="304" x2="770" y2="310" style=" stroke: rgb(0, 0,0 );stroke-width: .9;"></line>
  <line x1="746" y1="304" x2="770" y2="297" style=" stroke: rgb(0, 0,0 );stroke-width: .9;"></line>
  <line x1="770" y1="297" x2="770" y2="310" style=" stroke: rgb(0, 0,0 );stroke-width: .9;"></line>
  <line x1="746" y1="352" x2="746" y2="291" style=" stroke: rgb(0, 0,0 );stroke-width: .9;"></line>
  <line x1="770" y1="304" x2="945" y2="304" style=" stroke: rgb(0, 0,0 );stroke-width: .9;"></line>
  <line x1="1132" y1="682" x2="1388" y2="682" style=" stroke: rgb(0, 0,0 );stroke-width: .9;"></line>
  <line x1="1253" y1="682" x2="1260" y2="706" style=" stroke: rgb(0, 0,0 );stroke-width: .9;"></line>
  <line x1="1253" y1="682" x2="1247" y2="706" style=" stroke: rgb(0, 0,0 );stroke-width: .9;"></line>
  <line x1="1253" y1="706" x2="1253" y2="728" style=" stroke: rgb(0, 0,0 );stroke-width: .9;"></line>
  <line x1="1247" y1="706" x2="1260" y2="706" style=" stroke: rgb(0, 0,0 );stroke-width: .9;"></line>
  <line x1="1378" y1="682" x2="1385" y2="706" style=" stroke: rgb(0, 0,0 );stroke-width: .9;"></line>
  <line x1="1378" y1="682" x2="1371" y2="706" style=" stroke: rgb(0, 0,0 );stroke-width: .9;"></line>
  <line x1="1371" y1="706" x2="1385" y2="706" style=" stroke: rgb(0, 0,0 );stroke-width: .9;"></line>
  <line x1="1378" y1="706" x2="1378" y2="728" style=" stroke: rgb(0, 0,0 );stroke-width: .9;"></line>
  <line x1="1003" y1="603" x2="1239" y2="603" style=" stroke: rgb(0, 0,0 );stroke-width: .9;"></line>
  <line x1="1266" y1="603" x2="1388" y2="603" style=" stroke: rgb(0, 0,0 );stroke-width: .9;"></line>
  <line x1="1132" y1="624" x2="1264" y2="624" style=" stroke: rgb(0, 0,0 );stroke-width: .9;"></line>
  <line x1="1253" y1="578" x2="1253" y2="600" style=" stroke: rgb(0, 0,0 );stroke-width: .9;"></line>
  <line x1="1253" y1="624" x2="1260" y2="600" style=" stroke: rgb(0, 0,0 );stroke-width: .9;"></line>
  <line x1="1253" y1="624" x2="1247" y2="600" style=" stroke: rgb(0, 0,0 );stroke-width: .9;"></line>
  <line x1="1260" y1="600" x2="1247" y2="600" style=" stroke: rgb(0, 0,0 );stroke-width: .9;"></line>
  <line x1="1378" y1="603" x2="1385" y2="580" style=" stroke: rgb(0, 0,0 );stroke-width: .9;"></line>
  <line x1="1378" y1="603" x2="1371" y2="580" style=" stroke: rgb(0, 0,0 );stroke-width: .9;"></line>
  <line x1="1385" y1="580" x2="1371" y2="580" style=" stroke: rgb(0, 0,0 );stroke-width: .9;"></line>
  <line x1="1378" y1="556" x2="1378" y2="580" style=" stroke: rgb(0, 0,0 );stroke-width: .9;"></line>
  <line x1="750" y1="374" x2="761" y2="368" style=" stroke: rgb(0, 0,0 );stroke-width: .5;"></line>
  <line x1="761" y1="368" x2="776" y2="364" style=" stroke: rgb(0, 0,0 );stroke-width: .5;"></line>
  <line x1="776" y1="364" x2="792" y2="362" style=" stroke: rgb(0, 0,0 );stroke-width: .5;"></line>
  <line x1="792" y1="362" x2="809" y2="361" style=" stroke: rgb(0, 0,0 );stroke-width: .5;"></line>
  <line x1="809" y1="361" x2="826" y2="364" style=" stroke: rgb(0, 0,0 );stroke-width: .5;"></line>
  <line x1="826" y1="364" x2="843" y2="369" style=" stroke: rgb(0, 0,0 );stroke-width: .5;"></line>
  <line x1="843" y1="369" x2="858" y2="376" style=" stroke: rgb(0, 0,0 );stroke-width: .5;"></line>
  <line x1="858" y1="376" x2="872" y2="383" style=" stroke: rgb(0, 0,0 );stroke-width: .5;"></line>
  <line x1="872" y1="383" x2="889" y2="388" style=" stroke: rgb(0, 0,0 );stroke-width: .5;"></line>
  <line x1="889" y1="388" x2="906" y2="390" style=" stroke: rgb(0, 0,0 );stroke-width: .5;"></line>
  <line x1="906" y1="390" x2="923" y2="390" style=" stroke: rgb(0, 0,0 );stroke-width: .5;"></line>
  <line x1="923" y1="390" x2="938" y2="388" style=" stroke: rgb(0, 0,0 );stroke-width: .5;"></line>
  <line x1="938" y1="388" x2="955" y2="383" style=" stroke: rgb(0, 0,0 );stroke-width: .5;"></line>
  <line x1="955" y1="383" x2="966" y2="378" style=" stroke: rgb(0, 0,0 );stroke-width: .5;"></line>
  <line x1="648" y1="624" x2="629" y2="608" style=" stroke: rgb(0, 0,0 );stroke-width: .9;"></line>
  <line x1="648" y1="624" x2="640" y2="601" style=" stroke: rgb(0, 0,0 );stroke-width: .9;"></line>
  <line x1="640" y1="601" x2="629" y2="608" style=" stroke: rgb(0, 0,0 );stroke-width: .9;"></line>
  <line x1="635" y1="604" x2="581" y2="528" style=" stroke: rgb(0, 0,0 );stroke-width: .9;"></line>
  <line x1="960" y1="381" x2="966" y2="387" style=" stroke: rgb(0, 0,0 );stroke-width: .5;"></line>
</svg>
