<svg xmlns="http://www.w3.org/2000/svg" height="100%" width="100%" viewBox="175 0 1400 1200" preserveAspectRatio="xMidYMin" id="item-chart">
  <style>
    svg { background-color: white; }

    text.heavy {
      font: 28px Arial, Verdana, sans-serif;
    }
  </style>

  <defs>
    <pattern id="diagonalHatch" patternUnits="userSpaceOnUse" width="4" height="8" patternTransform="rotate(-45 2 2)">
      <path d="M -1,2 l 6,0" stroke="white" stroke-width=".9"/>
    </pattern>
  </defs>

  <text x="858" y="957" alignment-baseline="middle" text-anchor="middle" tspan="" font-weight=" bold" fill="rgb(0,0,0)" class="heavy text-inject">N/A</text>
  <text x="1252" y="703" alignment-baseline="middle" text-anchor="middle" tspan="" font-weight=" bold" fill="rgb(0,0,0)" class="heavy text-inject">N/A</text>
  <text x="858" y="853" alignment-baseline="middle" text-anchor="middle" tspan="" font-weight=" bold" fill="rgb(0,0,0)" class="heavy text-inject">N/A</text>
  <text x="374" y="781" alignment-baseline="middle" text-anchor="middle" tspan="" font-weight=" bold" fill="rgb(0,0,0)" class="heavy text-inject">N/A</text>
  <text x="410" y="1050" alignment-baseline="middle" text-anchor="left" tspan="" font-weight=" bold" fill="rgb(0,0,0)" class="heavy text-inject">N/A</text>
  <text x="520" y="1100" alignment-baseline="middle" text-anchor="left" tspan="" font-weight=" bold" fill="rgb(0,0,0)" class="heavy text-inject">N/A</text>
  <text x="858" y="906" alignment-baseline="middle" text-anchor="middle" tspan="" font-weight=" bold" fill="rgb(0,0,0)" class="heavy text-inject">N/A</text>
  <text x="528" y="520" alignment-baseline="middle" text-anchor="middle" tspan="" font-weight=" bold" fill="rgb(0,0,0)" class="heavy text-inject">N/A</text>
  <text x="415" y="1150" alignment-baseline="middle" text-anchor="left" tspan="" font-weight=" bold" fill="rgb(0,0,0)" class="heavy text-inject">N/A</text>
  <text x="725" y="1150" alignment-baseline="middle" text-anchor="left" tspan="" font-weight=" bold" fill="rgb(0,0,0)" class="heavy text-inject">N/A</text>
  <text x="533" y="561" alignment-baseline="middle" text-anchor="middle" tspan="" font-weight=" bold" fill="rgb(0,0,0)" class="heavy text-inject">N/A</text>
  <text x="620" y="1150" alignment-baseline="middle" text-anchor="left" tspan="" font-weight=" bold" fill="rgb(0,0,0)" class="heavy text-inject">N/A</text>
  <text x="425" y="40" alignment-baseline="middle" text-anchor="left" tspan="" font-weight=" bold" fill="rgb(0,0,0)" class="heavy text-inject">N/A</text>
  <text x="857" y="797" alignment-baseline="middle" text-anchor="middle" tspan="" font-weight=" bold" fill="rgb(0,0,0)" class="heavy text-inject">N/A</text>
  <text x="1453" y="277" alignment-baseline="middle" text-anchor="middle" tspan="" font-weight=" bold" fill="rgb(0,0,0)" class="heavy text-inject">N/A</text>
  <text x="1225" y="325" alignment-baseline="middle" text-anchor="middle" tspan="" font-weight=" bold" fill="rgb(0,0,0)" class="heavy text-inject">N/A</text>
  <text x="460" y="90" alignment-baseline="middle" text-anchor="left" tspan="" font-weight=" bold" fill="rgb(0,0,0)" class="heavy text-inject">N/A</text>
  <text x="1101" y="271" alignment-baseline="middle" text-anchor="middle" tspan="" font-weight=" bold" fill="rgb(0,0,0)" class="heavy text-inject">N/A</text>

  <text x="225" y="40" alignment-baseline="middle" text-anchor="left" tspan="" font-weight=" bold" fill="rgb(0,0,0)" class="heavy">Flange Weight:</text>
  <text x="225" y="90" alignment-baseline="middle" text-anchor="left" tspan="" font-weight=" bold" fill="rgb(0,0,0)" class="heavy">S/Bolts and Nuts:</text>
  <text x="225" y="1050" alignment-baseline="middle" text-anchor="left" tspan="" font-weight=" bold" fill="rgb(0,0,0)" class="heavy">Ring Number:</text>
  <text x="225" y="1100" alignment-baseline="middle" text-anchor="left" tspan="" font-weight=" bold" fill="rgb(0,0,0)" class="heavy">Gap Between Flanges:</text>
  <text x="225" y="1150" alignment-baseline="middle" text-anchor="left" tspan="" font-weight=" bold" fill="rgb(0,0,0)" class="heavy">StudBolt Size:                   UNC (or           ) x          Long</text>
  <text x="1530" y="1150" alignment-baseline="middle" text-anchor="end" font-weight="bold" fill="rgb(0,0,0)" class="heavy">ASME B16.5 2019</text>

  <line x1="698" y1="679" x2="1017" y2="679" style=" stroke: rgb(0, 0,0 );stroke-width: 2.5;"></line>
  <line x1="1243" y1="222" x2="1231" y2="194" style=" stroke: rgb(0, 0,0 );stroke-width: 2.5;"></line>
  <line x1="1231" y1="194" x2="1212" y2="194" style=" stroke: rgb(0, 0,0 );stroke-width: 2.5;"></line>
  <line x1="1243" y1="222" x2="1287" y2="222" style=" stroke: rgb(0, 0,0 );stroke-width: 2.5;"></line>
  <line x1="1200" y1="222" x2="1140" y2="222" style=" stroke: rgb(0, 0,0 );stroke-width: 2.5;"></line>
  <line x1="1140" y1="222" x2="1138" y2="193" style=" stroke: rgb(0, 0,0 );stroke-width: 2.5;"></line>
  <line x1="1138" y1="193" x2="1143" y2="175" style=" stroke: rgb(0, 0,0 );stroke-width: 2.5;"></line>
  <line x1="1143" y1="175" x2="1141" y2="150" style=" stroke: rgb(0, 0,0 );stroke-width: 2.5;"></line>
  <line x1="1141" y1="150" x2="1163" y2="146" style=" stroke: rgb(0, 0,0 );stroke-width: 2.5;"></line>
  <line x1="1163" y1="146" x2="1204" y2="153" style=" stroke: rgb(0, 0,0 );stroke-width: 2.5;"></line>
  <line x1="1204" y1="153" x2="1240" y2="143" style=" stroke: rgb(0, 0,0 );stroke-width: 2.5;"></line>
  <line x1="1240" y1="143" x2="1271" y2="139" style=" stroke: rgb(0, 0,0 );stroke-width: 2.5;"></line>
  <line x1="1271" y1="139" x2="1299" y2="150" style=" stroke: rgb(0, 0,0 );stroke-width: 2.5;"></line>
  <line x1="1299" y1="150" x2="1319" y2="157" style=" stroke: rgb(0, 0,0 );stroke-width: 2.5;"></line>
  <line x1="1319" y1="157" x2="1311" y2="190" style=" stroke: rgb(0, 0,0 );stroke-width: 2.5;"></line>
  <line x1="1311" y1="190" x2="1298" y2="199" style=" stroke: rgb(0, 0,0 );stroke-width: 2.5;"></line>
  <line x1="1298" y1="199" x2="1287" y2="222" style=" stroke: rgb(0, 0,0 );stroke-width: 2.5;"></line>
  <line x1="1200" y1="222" x2="1212" y2="194" style=" stroke: rgb(0, 0,0 );stroke-width: 2.5;"></line>
  <line x1="593" y1="679" x2="593" y2="737" style=" stroke: rgb(0, 0,0 );stroke-width: 2.5;"></line>
  <line x1="1122" y1="679" x2="1122" y2="737" style=" stroke: rgb(0, 0,0 );stroke-width: 2.5;"></line>
  <line x1="1017" y1="679" x2="1122" y2="679" style=" stroke: rgb(0, 0,0 );stroke-width: 2.5;"></line>
  <line x1="695" y1="737" x2="695" y2="752" style=" stroke: rgb(0, 0,0 );stroke-width: 2.5;"></line>
  <line x1="1020" y1="737" x2="1020" y2="752" style=" stroke: rgb(0, 0,0 );stroke-width: 2.5;"></line>
  <line x1="593" y1="737" x2="695" y2="737" style=" stroke: rgb(0, 0,0 );stroke-width: 2.5;"></line>
  <line x1="1020" y1="737" x2="1122" y2="737" style=" stroke: rgb(0, 0,0 );stroke-width: 2.5;"></line>
  <line x1="614" y1="679" x2="614" y2="737" style=" stroke: rgb(0, 0,0 );stroke-width: 2.5;"></line>
  <line x1="683" y1="679" x2="683" y2="737" style=" stroke: rgb(0, 0,0 );stroke-width: 2.5;"></line>
  <line x1="1032" y1="679" x2="1032" y2="737" style=" stroke: rgb(0, 0,0 );stroke-width: 2.5;"></line>
  <line x1="1102" y1="679" x2="1102" y2="737" style=" stroke: rgb(0, 0,0 );stroke-width: 2.5;"></line>
  <line x1="732" y1="752" x2="727" y2="740" style=" stroke: rgb(0, 0,0 );stroke-width: 2.5;"></line>
  <line x1="714" y1="752" x2="719" y2="740" style=" stroke: rgb(0, 0,0 );stroke-width: 2.5;"></line>
  <line x1="719" y1="740" x2="727" y2="740" style=" stroke: rgb(0, 0,0 );stroke-width: 2.5;"></line>
  <line x1="695" y1="752" x2="714" y2="752" style=" stroke: rgb(0, 0,0 );stroke-width: 2.5;"></line>
  <line x1="984" y1="752" x2="989" y2="740" style=" stroke: rgb(0, 0,0 );stroke-width: 2.5;"></line>
  <line x1="1002" y1="752" x2="997" y2="740" style=" stroke: rgb(0, 0,0 );stroke-width: 2.5;"></line>
  <line x1="997" y1="740" x2="989" y2="740" style=" stroke: rgb(0, 0,0 );stroke-width: 2.5;"></line>
  <line x1="732" y1="752" x2="984" y2="752" style=" stroke: rgb(0, 0,0 );stroke-width: 2.5;"></line>
  <line x1="1002" y1="752" x2="1020" y2="752" style=" stroke: rgb(0, 0,0 );stroke-width: 2.5;"></line>
  <line x1="1020" y1="750" x2="1019" y2="752" style=" stroke: rgb(0, 0,0 );stroke-width: 2.5;"></line>
  <line x1="593" y1="679" x2="698" y2="679" style=" stroke: rgb(0, 0,0 );stroke-width: 2.5;"></line>

  <line x1="648" y1="668" x2="648" y2="748" style=" stroke: rgb(0, 0,0 );stroke-width: .5;"></line>
  <line x1="1067" y1="666" x2="1067" y2="754" style=" stroke: rgb(0, 0,0 );stroke-width: .5;"></line>
  <line x1="1142" y1="159" x2="1153" y2="147" style=" stroke: rgb(0, 0,0 );stroke-width: .5;"></line>
  <line x1="1142" y1="169" x2="1165" y2="146" style=" stroke: rgb(0, 0,0 );stroke-width: .5;"></line>
  <line x1="1142" y1="180" x2="1174" y2="148" style=" stroke: rgb(0, 0,0 );stroke-width: .5;"></line>
  <line x1="1138" y1="194" x2="1183" y2="149" style=" stroke: rgb(0, 0,0 );stroke-width: .5;"></line>
  <line x1="1139" y1="204" x2="1192" y2="151" style=" stroke: rgb(0, 0,0 );stroke-width: .5;"></line>
  <line x1="1139" y1="215" x2="1202" y2="152" style=" stroke: rgb(0, 0,0 );stroke-width: .5;"></line>
  <line x1="1142" y1="222" x2="1214" y2="150" style=" stroke: rgb(0, 0,0 );stroke-width: .5;"></line>
  <line x1="1153" y1="222" x2="1229" y2="146" style=" stroke: rgb(0, 0,0 );stroke-width: .5;"></line>
  <line x1="1163" y1="222" x2="1243" y2="143" style=" stroke: rgb(0, 0,0 );stroke-width: .5;"></line>
  <line x1="1174" y1="222" x2="1255" y2="141" style=" stroke: rgb(0, 0,0 );stroke-width: .5;"></line>
  <line x1="1185" y1="222" x2="1211" y2="196" style=" stroke: rgb(0, 0,0 );stroke-width: .5;"></line>
  <line x1="1195" y1="222" x2="1203" y2="214" style=" stroke: rgb(0, 0,0 );stroke-width: .5;"></line>
  <line x1="1224" y1="194" x2="1276" y2="141" style=" stroke: rgb(0, 0,0 );stroke-width: .5;"></line>
  <line x1="1213" y1="194" x2="1267" y2="140" style=" stroke: rgb(0, 0,0 );stroke-width: .5;"></line>
  <line x1="1232" y1="196" x2="1284" y2="144" style=" stroke: rgb(0, 0,0 );stroke-width: .5;"></line>
  <line x1="1235" y1="204" x2="1291" y2="147" style=" stroke: rgb(0, 0,0 );stroke-width: .5;"></line>
  <line x1="1238" y1="211" x2="1299" y2="150" style=" stroke: rgb(0, 0,0 );stroke-width: .5;"></line>
  <line x1="1241" y1="218" x2="1307" y2="153" style=" stroke: rgb(0, 0,0 );stroke-width: .5;"></line>
  <line x1="1248" y1="222" x2="1315" y2="156" style=" stroke: rgb(0, 0,0 );stroke-width: .5;"></line>
  <line x1="1259" y1="222" x2="1317" y2="164" style=" stroke: rgb(0, 0,0 );stroke-width: .5;"></line>
  <line x1="1270" y1="222" x2="1314" y2="178" style=" stroke: rgb(0, 0,0 );stroke-width: .5;"></line>
  <line x1="1280" y1="222" x2="1294" y2="208" style=" stroke: rgb(0, 0,0 );stroke-width: .5;"></line>
  <line x1="593" y1="689" x2="603" y2="679" style=" stroke: rgb(0, 0,0 );stroke-width: .5;"></line>
  <line x1="593" y1="699" x2="614" y2="679" style=" stroke: rgb(0, 0,0 );stroke-width: .5;"></line>
  <line x1="593" y1="710" x2="614" y2="689" style=" stroke: rgb(0, 0,0 );stroke-width: .5;"></line>
  <line x1="593" y1="721" x2="614" y2="700" style=" stroke: rgb(0, 0,0 );stroke-width: .5;"></line>
  <line x1="593" y1="731" x2="614" y2="711" style=" stroke: rgb(0, 0,0 );stroke-width: .5;"></line>
  <line x1="598" y1="737" x2="614" y2="721" style=" stroke: rgb(0, 0,0 );stroke-width: .5;"></line>
  <line x1="608" y1="737" x2="614" y2="732" style=" stroke: rgb(0, 0,0 );stroke-width: .5;"></line>
  <line x1="683" y1="689" x2="693" y2="679" style=" stroke: rgb(0, 0,0 );stroke-width: .5;"></line>
  <line x1="683" y1="699" x2="704" y2="679" style=" stroke: rgb(0, 0,0 );stroke-width: .5;"></line>
  <line x1="683" y1="710" x2="715" y2="679" style=" stroke: rgb(0, 0,0 );stroke-width: .5;"></line>
  <line x1="683" y1="721" x2="725" y2="679" style=" stroke: rgb(0, 0,0 );stroke-width: .5;"></line>
  <line x1="683" y1="731" x2="736" y2="679" style=" stroke: rgb(0, 0,0 );stroke-width: .5;"></line>
  <line x1="688" y1="737" x2="747" y2="679" style=" stroke: rgb(0, 0,0 );stroke-width: .5;"></line>
  <line x1="695" y1="741" x2="757" y2="679" style=" stroke: rgb(0, 0,0 );stroke-width: .5;"></line>
  <line x1="695" y1="751" x2="768" y2="679" style=" stroke: rgb(0, 0,0 );stroke-width: .5;"></line>
  <line x1="705" y1="752" x2="778" y2="679" style=" stroke: rgb(0, 0,0 );stroke-width: .5;"></line>
  <line x1="727" y1="741" x2="789" y2="679" style=" stroke: rgb(0, 0,0 );stroke-width: .5;"></line>
  <line x1="730" y1="748" x2="800" y2="679" style=" stroke: rgb(0, 0,0 );stroke-width: .5;"></line>
  <line x1="737" y1="751" x2="810" y2="679" style=" stroke: rgb(0, 0,0 );stroke-width: .5;"></line>
  <line x1="748" y1="752" x2="821" y2="679" style=" stroke: rgb(0, 0,0 );stroke-width: .5;"></line>
  <line x1="759" y1="752" x2="831" y2="679" style=" stroke: rgb(0, 0,0 );stroke-width: .5;"></line>
  <line x1="769" y1="752" x2="842" y2="679" style=" stroke: rgb(0, 0,0 );stroke-width: .5;"></line>
  <line x1="780" y1="751" x2="853" y2="679" style=" stroke: rgb(0, 0,0 );stroke-width: .5;"></line>
  <line x1="790" y1="752" x2="863" y2="679" style=" stroke: rgb(0, 0,0 );stroke-width: .5;"></line>
  <line x1="801" y1="752" x2="874" y2="679" style=" stroke: rgb(0, 0,0 );stroke-width: .5;"></line>
  <line x1="812" y1="752" x2="884" y2="679" style=" stroke: rgb(0, 0,0 );stroke-width: .5;"></line>
  <line x1="822" y1="751" x2="895" y2="679" style=" stroke: rgb(0, 0,0 );stroke-width: .5;"></line>
  <line x1="833" y1="752" x2="906" y2="679" style=" stroke: rgb(0, 0,0 );stroke-width: .5;"></line>
  <line x1="843" y1="752" x2="916" y2="679" style=" stroke: rgb(0, 0,0 );stroke-width: .5;"></line>
  <line x1="854" y1="752" x2="927" y2="679" style=" stroke: rgb(0, 0,0 );stroke-width: .5;"></line>
  <line x1="865" y1="751" x2="937" y2="679" style=" stroke: rgb(0, 0,0 );stroke-width: .5;"></line>
  <line x1="875" y1="752" x2="948" y2="679" style=" stroke: rgb(0, 0,0 );stroke-width: .5;"></line>
  <line x1="886" y1="752" x2="959" y2="679" style=" stroke: rgb(0, 0,0 );stroke-width: .5;"></line>
  <line x1="896" y1="752" x2="969" y2="679" style=" stroke: rgb(0, 0,0 );stroke-width: .5;"></line>
  <line x1="907" y1="751" x2="980" y2="679" style=" stroke: rgb(0, 0,0 );stroke-width: .5;"></line>
  <line x1="918" y1="752" x2="990" y2="679" style=" stroke: rgb(0, 0,0 );stroke-width: .5;"></line>
  <line x1="928" y1="752" x2="1001" y2="679" style=" stroke: rgb(0, 0,0 );stroke-width: .5;"></line>
  <line x1="939" y1="752" x2="1012" y2="679" style=" stroke: rgb(0, 0,0 );stroke-width: .5;"></line>
  <line x1="950" y1="751" x2="1022" y2="679" style=" stroke: rgb(0, 0,0 );stroke-width: .5;"></line>
  <line x1="960" y1="752" x2="1032" y2="680" style=" stroke: rgb(0, 0,0 );stroke-width: .5;"></line>
  <line x1="971" y1="752" x2="1032" y2="690" style=" stroke: rgb(0, 0,0 );stroke-width: .5;"></line>
  <line x1="981" y1="752" x2="985" y2="747" style=" stroke: rgb(0, 0,0 );stroke-width: .5;"></line>
  <line x1="999" y1="745" x2="1032" y2="712" style=" stroke: rgb(0, 0,0 );stroke-width: .5;"></line>
  <line x1="1002" y1="752" x2="1032" y2="722" style=" stroke: rgb(0, 0,0 );stroke-width: .5;"></line>
  <line x1="1013" y1="752" x2="1020" y2="745" style=" stroke: rgb(0, 0,0 );stroke-width: .5;"></line>
  <line x1="993" y1="740" x2="1032" y2="701" style=" stroke: rgb(0, 0,0 );stroke-width: .5;"></line>
  <line x1="1028" y1="737" x2="1032" y2="733" style=" stroke: rgb(0, 0,0 );stroke-width: .5;"></line>
  <line x1="1102" y1="689" x2="1112" y2="679" style=" stroke: rgb(0, 0,0 );stroke-width: .5;"></line>
  <line x1="1102" y1="699" x2="1122" y2="679" style=" stroke: rgb(0, 0,0 );stroke-width: .5;"></line>
  <line x1="1102" y1="710" x2="1122" y2="689" style=" stroke: rgb(0, 0,0 );stroke-width: .5;"></line>
  <line x1="1102" y1="721" x2="1122" y2="700" style=" stroke: rgb(0, 0,0 );stroke-width: .5;"></line>
  <line x1="1102" y1="731" x2="1122" y2="711" style=" stroke: rgb(0, 0,0 );stroke-width: .5;"></line>
  <line x1="1106" y1="737" x2="1122" y2="721" style=" stroke: rgb(0, 0,0 );stroke-width: .5;"></line>
  <line x1="1117" y1="737" x2="1122" y2="732" style=" stroke: rgb(0, 0,0 );stroke-width: .5;"></line>
  <line x1="1239" y1="194" x2="1461" y2="194" style=" stroke: rgb(0, 0,0 );stroke-width: .9;"></line>
  <line x1="1295" y1="222" x2="1461" y2="222" style=" stroke: rgb(0, 0,0 );stroke-width: .9;"></line>
  <line x1="1200" y1="230" x2="1200" y2="304" style=" stroke: rgb(0, 0,0 );stroke-width: .9;"></line>
  <line x1="1243" y1="230" x2="1243" y2="304" style=" stroke: rgb(0, 0,0 );stroke-width: .9;"></line>
  <line x1="1168" y1="298" x2="1196" y2="231" style=" stroke: rgb(0, 0,0 );stroke-width: .9;"></line>
  <line x1="1219" y1="296" x2="1223" y2="296" style=" stroke: rgb(0, 0,0 );stroke-width: .9;"></line>
  <line x1="1453" y1="170" x2="1453" y2="159" style=" stroke: rgb(0, 0,0 );stroke-width: .9;"></line>
  <line x1="1154" y1="281" x2="1149" y2="278" style=" stroke: rgb(0, 0,0 );stroke-width: .9;"></line>
  <line x1="1149" y1="278" x2="1139" y2="278" style=" stroke: rgb(0, 0,0 );stroke-width: .9;"></line>
  <line x1="1200" y1="296" x2="1219" y2="291" style=" stroke: rgb(0, 0,0 );stroke-width: .9;"></line>
  <line x1="1200" y1="296" x2="1219" y2="301" style=" stroke: rgb(0, 0,0 );stroke-width: .9;"></line>
  <line x1="1223" y1="301" x2="1223" y2="291" style=" stroke: rgb(0, 0,0 );stroke-width: .9;"></line>
  <line x1="1243" y1="296" x2="1223" y2="291" style=" stroke: rgb(0, 0,0 );stroke-width: .9;"></line>
  <line x1="1243" y1="296" x2="1223" y2="301" style=" stroke: rgb(0, 0,0 );stroke-width: .9;"></line>
  <line x1="1219" y1="301" x2="1219" y2="291" style=" stroke: rgb(0, 0,0 );stroke-width: .9;"></line>
  <line x1="1151" y1="286" x2="1156" y2="276" style=" stroke: rgb(0, 0,0 );stroke-width: .9;"></line>
  <line x1="1171" y1="290" x2="1156" y2="276" style=" stroke: rgb(0, 0,0 );stroke-width: .9;"></line>
  <line x1="1171" y1="290" x2="1151" y2="286" style=" stroke: rgb(0, 0,0 );stroke-width: .9;"></line>
  <line x1="1453" y1="194" x2="1447" y2="170" style=" stroke: rgb(0, 0,0 );stroke-width: .9;"></line>
  <line x1="1453" y1="194" x2="1460" y2="170" style=" stroke: rgb(0, 0,0 );stroke-width: .9;"></line>
  <line x1="1460" y1="170" x2="1447" y2="170" style=" stroke: rgb(0, 0,0 );stroke-width: .9;"></line>
  <line x1="1460" y1="246" x2="1453" y2="222" style=" stroke: rgb(0, 0,0 );stroke-width: .9;"></line>
  <line x1="1447" y1="246" x2="1453" y2="222" style=" stroke: rgb(0, 0,0 );stroke-width: .9;"></line>
  <line x1="1447" y1="246" x2="1460" y2="246" style=" stroke: rgb(0, 0,0 );stroke-width: .9;"></line>
  <line x1="1453" y1="246" x2="1453" y2="259" style=" stroke: rgb(0, 0,0 );stroke-width: .9;"></line>
  <line x1="585" y1="737" x2="450" y2="737" style=" stroke: rgb(0, 0,0 );stroke-width: .9;"></line>
  <line x1="687" y1="752" x2="450" y2="752" style=" stroke: rgb(0, 0,0 );stroke-width: .9;"></line>
  <line x1="458" y1="713" x2="458" y2="688" style=" stroke: rgb(0, 0,0 );stroke-width: .9;"></line>
  <line x1="458" y1="801" x2="458" y2="775" style=" stroke: rgb(0, 0,0 );stroke-width: .9;"></line>
  <line x1="458" y1="801" x2="353" y2="801" style=" stroke: rgb(0, 0,0 );stroke-width: .9;"></line>
  <line x1="593" y1="745" x2="593" y2="985" style=" stroke: rgb(0, 0,0 );stroke-width: .9;"></line>
  <line x1="648" y1="771" x2="648" y2="934" style=" stroke: rgb(0, 0,0 );stroke-width: .9;"></line>
  <line x1="695" y1="760" x2="695" y2="881" style=" stroke: rgb(0, 0,0 );stroke-width: .9;"></line>
  <line x1="1020" y1="760" x2="1020" y2="881" style=" stroke: rgb(0, 0,0 );stroke-width: .9;"></line>
  <line x1="1067" y1="764" x2="1067" y2="934" style=" stroke: rgb(0, 0,0 );stroke-width: .9;"></line>
  <line x1="1122" y1="745" x2="1122" y2="985" style=" stroke: rgb(0, 0,0 );stroke-width: .9;"></line>
  <line x1="723" y1="748" x2="723" y2="828" style=" stroke: rgb(0, 0,0 );stroke-width: .9;"></line>
  <line x1="993" y1="748" x2="993" y2="828" style=" stroke: rgb(0, 0,0 );stroke-width: .9;"></line>
  <line x1="723" y1="820" x2="746" y2="826" style=" stroke: rgb(0, 0,0 );stroke-width: .9;"></line>
  <line x1="746" y1="826" x2="746" y2="813" style=" stroke: rgb(0, 0,0 );stroke-width: .9;"></line>
  <line x1="695" y1="873" x2="719" y2="866" style=" stroke: rgb(0, 0,0 );stroke-width: .9;"></line>
  <line x1="695" y1="873" x2="719" y2="879" style=" stroke: rgb(0, 0,0 );stroke-width: .9;"></line>
  <line x1="719" y1="879" x2="719" y2="866" style=" stroke: rgb(0, 0,0 );stroke-width: .9;"></line>
  <line x1="648" y1="926" x2="672" y2="919" style=" stroke: rgb(0, 0,0 );stroke-width: .9;"></line>
  <line x1="648" y1="926" x2="672" y2="932" style=" stroke: rgb(0, 0,0 );stroke-width: .9;"></line>
  <line x1="672" y1="932" x2="672" y2="919" style=" stroke: rgb(0, 0,0 );stroke-width: .9;"></line>
  <line x1="593" y1="977" x2="617" y2="971" style=" stroke: rgb(0, 0,0 );stroke-width: .9;"></line>
  <line x1="593" y1="978" x2="617" y2="985" style=" stroke: rgb(0, 0,0 );stroke-width: .9;"></line>
  <line x1="617" y1="984" x2="617" y2="971" style=" stroke: rgb(0, 0,0 );stroke-width: .9;"></line>
  <line x1="993" y1="820" x2="969" y2="826" style=" stroke: rgb(0, 0,0 );stroke-width: .9;"></line>
  <line x1="993" y1="820" x2="969" y2="813" style=" stroke: rgb(0, 0,0 );stroke-width: .9;"></line>
  <line x1="969" y1="813" x2="969" y2="826" style=" stroke: rgb(0, 0,0 );stroke-width: .9;"></line>
  <line x1="1020" y1="873" x2="996" y2="879" style=" stroke: rgb(0, 0,0 );stroke-width: .9;"></line>
  <line x1="1020" y1="873" x2="996" y2="866" style=" stroke: rgb(0, 0,0 );stroke-width: .9;"></line>
  <line x1="996" y1="866" x2="996" y2="879" style=" stroke: rgb(0, 0,0 );stroke-width: .9;"></line>
  <line x1="1067" y1="926" x2="1043" y2="932" style=" stroke: rgb(0, 0,0 );stroke-width: .9;"></line>
  <line x1="1067" y1="926" x2="1043" y2="919" style=" stroke: rgb(0, 0,0 );stroke-width: .9;"></line>
  <line x1="1043" y1="919" x2="1043" y2="932" style=" stroke: rgb(0, 0,0 );stroke-width: .9;"></line>
  <line x1="1122" y1="977" x2="1099" y2="984" style=" stroke: rgb(0, 0,0 );stroke-width: .9;"></line>
  <line x1="1122" y1="977" x2="1099" y2="971" style=" stroke: rgb(0, 0,0 );stroke-width: .9;"></line>
  <line x1="1099" y1="971" x2="1099" y2="984" style=" stroke: rgb(0, 0,0 );stroke-width: .9;"></line>
  <line x1="458" y1="752" x2="465" y2="775" style=" stroke: rgb(0, 0,0 );stroke-width: .9;"></line>
  <line x1="458" y1="752" x2="452" y2="775" style=" stroke: rgb(0, 0,0 );stroke-width: .9;"></line>
  <line x1="452" y1="775" x2="465" y2="775" style=" stroke: rgb(0, 0,0 );stroke-width: .9;"></line>
  <line x1="458" y1="737" x2="452" y2="713" style=" stroke: rgb(0, 0,0 );stroke-width: .9;"></line>
  <line x1="458" y1="737" x2="465" y2="713" style=" stroke: rgb(0, 0,0 );stroke-width: .9;"></line>
  <line x1="465" y1="713" x2="452" y2="713" style=" stroke: rgb(0, 0,0 );stroke-width: .9;"></line>
  <line x1="723" y1="820" x2="746" y2="813" style=" stroke: rgb(0, 0,0 );stroke-width: .9;"></line>
  <line x1="746" y1="820" x2="969" y2="820" style=" stroke: rgb(0, 0,0 );stroke-width: .9;"></line>
  <line x1="719" y1="873" x2="996" y2="873" style=" stroke: rgb(0, 0,0 );stroke-width: .9;"></line>
  <line x1="672" y1="926" x2="1043" y2="926" style=" stroke: rgb(0, 0,0 );stroke-width: .9;"></line>
  <line x1="617" y1="977" x2="1099" y2="977" style=" stroke: rgb(0, 0,0 );stroke-width: .9;"></line>
  <line x1="1130" y1="737" x2="1260" y2="737" style=" stroke: rgb(0, 0,0 );stroke-width: .9;"></line>
  <line x1="1130" y1="679" x2="1260" y2="679" style=" stroke: rgb(0, 0,0 );stroke-width: .9;"></line>
  <line x1="1252" y1="737" x2="1257" y2="756" style=" stroke: rgb(0, 0,0 );stroke-width: .9;"></line>
  <line x1="1252" y1="737" x2="1247" y2="756" style=" stroke: rgb(0, 0,0 );stroke-width: .9;"></line>
  <line x1="1247" y1="756" x2="1257" y2="756" style=" stroke: rgb(0, 0,0 );stroke-width: .9;"></line>
  <line x1="1252" y1="756" x2="1252" y2="774" style=" stroke: rgb(0, 0,0 );stroke-width: .9;"></line>
  <line x1="1252" y1="641" x2="1252" y2="660" style=" stroke: rgb(0, 0,0 );stroke-width: .9;"></line>
  <line x1="1257" y1="660" x2="1247" y2="660" style=" stroke: rgb(0, 0,0 );stroke-width: .9;"></line>
  <line x1="1252" y1="679" x2="1247" y2="660" style=" stroke: rgb(0, 0,0 );stroke-width: .9;"></line>
  <line x1="1252" y1="679" x2="1257" y2="660" style=" stroke: rgb(0, 0,0 );stroke-width: .9;"></line>
  <line x1="648" y1="679" x2="629" y2="663" style=" stroke: rgb(0, 0,0 );stroke-width: .9;"></line>
  <line x1="648" y1="679" x2="640" y2="656" style=" stroke: rgb(0, 0,0 );stroke-width: .9;"></line>
  <line x1="640" y1="656" x2="629" y2="663" style=" stroke: rgb(0, 0,0 );stroke-width: .9;"></line>
  <line x1="635" y1="659" x2="581" y2="583" style=" stroke: rgb(0, 0,0 );stroke-width: .9;"></line>
</svg>
