<svg xmlns="http://www.w3.org/2000/svg" height="100%" width="100%" viewBox="175 0 1400 1200" preserveAspectRatio="xMidYMin" id="item-chart">
  <style>
    svg { background-color: white; }

    text.heavy {
      font: 28px Arial, Verdana, sans-serif;
    }
  </style>

  <defs>
    <pattern id="diagonalHatch" patternUnits="userSpaceOnUse" width="4" height="8" patternTransform="rotate(-45 2 2)">
      <path d="M -1,2 l 6,0" stroke="white" stroke-width=".9"/>
    </pattern>
  </defs>

  <text x="858" y="957" alignment-baseline="middle" text-anchor="middle" tspan="" font-weight=" bold" fill="rgb(0,0,0)" class="heavy text-inject">N/A</text>
  <text x="1251" y="710" alignment-baseline="middle" text-anchor="middle" tspan="" font-weight=" bold" fill="rgb(0,0,0)" class="heavy text-inject">N/A</text>
  <text x="857" y="235" alignment-baseline="middle" text-anchor="middle" tspan="" font-weight=" bold" fill="rgb(0,0,0)" class="heavy text-inject">N/A</text>
  <text x="858" y="289" alignment-baseline="middle" text-anchor="middle" tspan="" font-weight=" bold" fill="rgb(0,0,0)" class="heavy text-inject">N/A</text>
  <text x="1376" y="700" alignment-baseline="middle" text-anchor="middle" tspan="" font-weight=" bold" fill="rgb(0,0,0)" class="heavy text-inject">N/A</text>
  <text x="858" y="853" alignment-baseline="middle" text-anchor="middle" tspan="" font-weight=" bold" fill="rgb(0,0,0)" class="heavy text-inject">N/A</text>
  <text x="374" y="781" alignment-baseline="middle" text-anchor="middle" tspan="" font-weight=" bold" fill="rgb(0,0,0)" class="heavy text-inject">N/A</text>
  <text x="410" y="1050" alignment-baseline="middle" text-anchor="left" tspan="" font-weight=" bold" fill="rgb(0,0,0)" class="heavy text-inject">N/A</text>
  <text x="520" y="1100" alignment-baseline="middle" text-anchor="left" tspan="" font-weight=" bold" fill="rgb(0,0,0)" class="heavy text-inject">N/A</text>
  <text x="817" y="601" alignment-baseline="middle" text-anchor="middle" tspan="" font-weight=" bold" fill="rgb(0,0,0)" class="heavy text-inject">N/A</text>
  <text x="858" y="906" alignment-baseline="middle" text-anchor="middle" tspan="" font-weight=" bold" fill="rgb(0,0,0)" class="heavy text-inject">N/A</text>
  <text x="528" y="520" alignment-baseline="middle" text-anchor="middle" tspan="" font-weight=" bold" fill="rgb(0,0,0)" class="heavy text-inject">N/A</text>
  <text x="420" y="1150" alignment-baseline="middle" text-anchor="left" tspan="" font-weight=" bold" fill="rgb(0,0,0)" class="heavy text-inject">N/A</text>
  <text x="730" y="1150" alignment-baseline="middle" text-anchor="left" tspan="" font-weight=" bold" fill="rgb(0,0,0)" class="heavy text-inject">N/A</text>
  <text x="533" y="561" alignment-baseline="middle" text-anchor="middle" tspan="" font-weight=" bold" fill="rgb(0,0,0)" class="heavy text-inject">N/A</text>
  <text x="620" y="1150" alignment-baseline="middle" text-anchor="left" tspan="" font-weight=" bold" fill="rgb(0,0,0)" class="heavy text-inject">N/A</text>
  <text x="420" y="40" alignment-baseline="middle" text-anchor="left" tspan="" font-weight=" bold" fill="rgb(0,0,0)" class="heavy text-inject">N/A</text>
  <text x="857" y="797" alignment-baseline="middle" text-anchor="middle" tspan="" font-weight=" bold" fill="rgb(0,0,0)" class="heavy text-inject">N/A</text>
  <text x="1453" y="277" alignment-baseline="middle" text-anchor="middle" tspan="" font-weight=" bold" fill="rgb(0,0,0)" class="heavy text-inject">N/A</text>
  <text x="1225" y="325" alignment-baseline="middle" text-anchor="middle" tspan="" font-weight=" bold" fill="rgb(0,0,0)" class="heavy text-inject">N/A</text>
  <text x="450" y="90" alignment-baseline="middle" text-anchor="left" tspan="" font-weight=" bold" fill="rgb(0,0,0)" class="heavy text-inject">N/A</text>
  <text x="1101" y="271" alignment-baseline="middle" text-anchor="middle" tspan="" font-weight=" bold" fill="rgb(0,0,0)" class="heavy text-inject">N/A</text>

  <text x="1530" y="1150" alignment-baseline="middle" text-anchor="end" font-weight="bold" fill="rgb(0,0,0)" class="heavy">ASME B16.5 2019</text>
  <text x="225" y="1150" alignment-baseline="middle" text-anchor="left" tspan="" font-weight=" bold" fill="rgb(0,0,0)" class="heavy">StudBolt Size:                   UNC (or           ) x          Long</text>
  <text x="225" y="1050" alignment-baseline="middle" text-anchor="left" tspan="" font-weight=" bold" fill="rgb(0,0,0)" class="heavy">Ring Number:</text>
  <text x="225" y="1100" alignment-baseline="middle" text-anchor="left" tspan="" font-weight=" bold" fill="rgb(0,0,0)" class="heavy">Gap Between Flanges:</text>
  <text x="225" y="40" alignment-baseline="middle" text-anchor="left" tspan="" font-weight=" bold" fill="rgb(0,0,0)" class="heavy">Flange Weight:</text>
  <text x="225" y="90" alignment-baseline="middle" text-anchor="left" tspan="" font-weight=" bold" fill="rgb(0,0,0)" class="heavy">S/Bolts and Nuts:</text>

  <line x1="858" y1="397" x2="858" y2="701" style=" stroke: rgb(0, 0,0 );stroke-width: .5;"></line>
  <line x1="767" y1="701" x2="767" y2="389" style=" stroke: rgb(0, 0,0 );stroke-width: .5;"></line>
  <line x1="948" y1="701" x2="948" y2="406" style=" stroke: rgb(0, 0,0 );stroke-width: .5;"></line>
  <line x1="745" y1="641" x2="732" y2="658" style=" stroke: rgb(0, 0,0 );stroke-width: .5;"></line>
  <line x1="971" y1="641" x2="988" y2="658" style=" stroke: rgb(0, 0,0 );stroke-width: .5;"></line>
  <line x1="745" y1="658" x2="745" y2="397" style=" stroke: rgb(0, 0,0 );stroke-width: .5;"></line>
  <line x1="971" y1="658" x2="971" y2="397" style=" stroke: rgb(0, 0,0 );stroke-width: .5;"></line>
  <line x1="648" y1="666" x2="648" y2="747" style=" stroke: rgb(0, 0,0 );stroke-width: .5;"></line>
  <line x1="1067" y1="666" x2="1067" y2="751" style=" stroke: rgb(0, 0,0 );stroke-width: .5;"></line>
  <line x1="1142" y1="159" x2="1153" y2="147" style=" stroke: rgb(0, 0,0 );stroke-width: .5;"></line>
  <line x1="1142" y1="169" x2="1165" y2="146" style=" stroke: rgb(0, 0,0 );stroke-width: .5;"></line>
  <line x1="1142" y1="180" x2="1174" y2="148" style=" stroke: rgb(0, 0,0 );stroke-width: .5;"></line>
  <line x1="1138" y1="194" x2="1183" y2="149" style=" stroke: rgb(0, 0,0 );stroke-width: .5;"></line>
  <line x1="1139" y1="204" x2="1192" y2="151" style=" stroke: rgb(0, 0,0 );stroke-width: .5;"></line>
  <line x1="1139" y1="215" x2="1202" y2="152" style=" stroke: rgb(0, 0,0 );stroke-width: .5;"></line>
  <line x1="1142" y1="222" x2="1214" y2="150" style=" stroke: rgb(0, 0,0 );stroke-width: .5;"></line>
  <line x1="1153" y1="222" x2="1229" y2="146" style=" stroke: rgb(0, 0,0 );stroke-width: .5;"></line>
  <line x1="1163" y1="222" x2="1243" y2="143" style=" stroke: rgb(0, 0,0 );stroke-width: .5;"></line>
  <line x1="1174" y1="222" x2="1255" y2="141" style=" stroke: rgb(0, 0,0 );stroke-width: .5;"></line>
  <line x1="1185" y1="222" x2="1211" y2="196" style=" stroke: rgb(0, 0,0 );stroke-width: .5;"></line>
  <line x1="1195" y1="222" x2="1203" y2="214" style=" stroke: rgb(0, 0,0 );stroke-width: .5;"></line>
  <line x1="1213" y1="194" x2="1267" y2="140" style=" stroke: rgb(0, 0,0 );stroke-width: .5;"></line>
  <line x1="1224" y1="194" x2="1276" y2="141" style=" stroke: rgb(0, 0,0 );stroke-width: .5;"></line>
  <line x1="1232" y1="196" x2="1284" y2="144" style=" stroke: rgb(0, 0,0 );stroke-width: .5;"></line>
  <line x1="1235" y1="204" x2="1291" y2="147" style=" stroke: rgb(0, 0,0 );stroke-width: .5;"></line>
  <line x1="1238" y1="211" x2="1299" y2="150" style=" stroke: rgb(0, 0,0 );stroke-width: .5;"></line>
  <line x1="1241" y1="218" x2="1307" y2="153" style=" stroke: rgb(0, 0,0 );stroke-width: .5;"></line>
  <line x1="1248" y1="222" x2="1315" y2="156" style=" stroke: rgb(0, 0,0 );stroke-width: .5;"></line>
  <line x1="1259" y1="222" x2="1317" y2="164" style=" stroke: rgb(0, 0,0 );stroke-width: .5;"></line>
  <line x1="1270" y1="222" x2="1314" y2="178" style=" stroke: rgb(0, 0,0 );stroke-width: .5;"></line>
  <line x1="1280" y1="222" x2="1294" y2="208" style=" stroke: rgb(0, 0,0 );stroke-width: .5;"></line>
  <line x1="593" y1="689" x2="603" y2="679" style=" stroke: rgb(0, 0,0 );stroke-width: .5;"></line>
  <line x1="593" y1="699" x2="614" y2="679" style=" stroke: rgb(0, 0,0 );stroke-width: .5;"></line>
  <line x1="593" y1="710" x2="614" y2="689" style=" stroke: rgb(0, 0,0 );stroke-width: .5;"></line>
  <line x1="593" y1="721" x2="614" y2="700" style=" stroke: rgb(0, 0,0 );stroke-width: .5;"></line>
  <line x1="593" y1="731" x2="614" y2="711" style=" stroke: rgb(0, 0,0 );stroke-width: .5;"></line>
  <line x1="598" y1="737" x2="614" y2="721" style=" stroke: rgb(0, 0,0 );stroke-width: .5;"></line>
  <line x1="593" y1="753" x2="594" y2="752" style=" stroke: rgb(0, 0,0 );stroke-width: .5;"></line>
  <line x1="608" y1="737" x2="614" y2="732" style=" stroke: rgb(0, 0,0 );stroke-width: .5;"></line>
  <line x1="683" y1="689" x2="693" y2="679" style=" stroke: rgb(0, 0,0 );stroke-width: .5;"></line>
  <line x1="683" y1="699" x2="704" y2="679" style=" stroke: rgb(0, 0,0 );stroke-width: .5;"></line>
  <line x1="683" y1="710" x2="715" y2="679" style=" stroke: rgb(0, 0,0 );stroke-width: .5;"></line>
  <line x1="683" y1="721" x2="745" y2="659" style=" stroke: rgb(0, 0,0 );stroke-width: .5;"></line>
  <line x1="683" y1="731" x2="745" y2="670" style=" stroke: rgb(0, 0,0 );stroke-width: .5;"></line>
  <line x1="688" y1="737" x2="745" y2="681" style=" stroke: rgb(0, 0,0 );stroke-width: .5;"></line>
  <line x1="720" y1="673" x2="735" y2="658" style=" stroke: rgb(0, 0,0 );stroke-width: .5;"></line>
  <line x1="720" y1="663" x2="725" y2="658" style=" stroke: rgb(0, 0,0 );stroke-width: .5;"></line>
  <line x1="695" y1="741" x2="745" y2="691" style=" stroke: rgb(0, 0,0 );stroke-width: .5;"></line>
  <line x1="695" y1="751" x2="745" y2="701" style=" stroke: rgb(0, 0,0 );stroke-width: .5;"></line>
  <line x1="705" y1="752" x2="756" y2="701" style=" stroke: rgb(0, 0,0 );stroke-width: .5;"></line>
  <line x1="727" y1="741" x2="762" y2="706" style=" stroke: rgb(0, 0,0 );stroke-width: .5;"></line>
  <line x1="730" y1="748" x2="762" y2="716" style=" stroke: rgb(0, 0,0 );stroke-width: .5;"></line>
  <line x1="748" y1="752" x2="762" y2="738" style=" stroke: rgb(0, 0,0 );stroke-width: .5;"></line>
  <line x1="759" y1="752" x2="762" y2="748" style=" stroke: rgb(0, 0,0 );stroke-width: .5;"></line>
  <line x1="737" y1="752" x2="762" y2="727" style=" stroke: rgb(0, 0,0 );stroke-width: .5;"></line>
  <line x1="971" y1="668" x2="981" y2="658" style=" stroke: rgb(0, 0,0 );stroke-width: .5;"></line>
  <line x1="971" y1="679" x2="991" y2="658" style=" stroke: rgb(0, 0,0 );stroke-width: .5;"></line>
  <line x1="954" y1="706" x2="959" y2="701" style=" stroke: rgb(0, 0,0 );stroke-width: .5;"></line>
  <line x1="954" y1="717" x2="969" y2="701" style=" stroke: rgb(0, 0,0 );stroke-width: .5;"></line>
  <line x1="954" y1="728" x2="1003" y2="679" style=" stroke: rgb(0, 0,0 );stroke-width: .5;"></line>
  <line x1="954" y1="738" x2="1013" y2="679" style=" stroke: rgb(0, 0,0 );stroke-width: .5;"></line>
  <line x1="954" y1="749" x2="1024" y2="679" style=" stroke: rgb(0, 0,0 );stroke-width: .5;"></line>
  <line x1="962" y1="752" x2="1032" y2="681" style=" stroke: rgb(0, 0,0 );stroke-width: .5;"></line>
  <line x1="972" y1="752" x2="1032" y2="692" style=" stroke: rgb(0, 0,0 );stroke-width: .5;"></line>
  <line x1="971" y1="690" x2="995" y2="665" style=" stroke: rgb(0, 0,0 );stroke-width: .5;"></line>
  <line x1="971" y1="700" x2="995" y2="676" style=" stroke: rgb(0, 0,0 );stroke-width: .5;"></line>
  <line x1="983" y1="752" x2="984" y2="750" style=" stroke: rgb(0, 0,0 );stroke-width: .5;"></line>
  <line x1="999" y1="746" x2="1032" y2="713" style=" stroke: rgb(0, 0,0 );stroke-width: .5;"></line>
  <line x1="1004" y1="752" x2="1032" y2="724" style=" stroke: rgb(0, 0,0 );stroke-width: .5;"></line>
  <line x1="1015" y1="752" x2="1020" y2="746" style=" stroke: rgb(0, 0,0 );stroke-width: .5;"></line>
  <line x1="995" y1="740" x2="1032" y2="702" style=" stroke: rgb(0, 0,0 );stroke-width: .5;"></line>
  <line x1="1029" y1="737" x2="1032" y2="734" style=" stroke: rgb(0, 0,0 );stroke-width: .5;"></line>
  <line x1="1102" y1="689" x2="1112" y2="679" style=" stroke: rgb(0, 0,0 );stroke-width: .5;"></line>
  <line x1="1102" y1="699" x2="1122" y2="679" style=" stroke: rgb(0, 0,0 );stroke-width: .5;"></line>
  <line x1="1102" y1="710" x2="1122" y2="689" style=" stroke: rgb(0, 0,0 );stroke-width: .5;"></line>
  <line x1="1102" y1="721" x2="1122" y2="700" style=" stroke: rgb(0, 0,0 );stroke-width: .5;"></line>
  <line x1="1102" y1="731" x2="1122" y2="711" style=" stroke: rgb(0, 0,0 );stroke-width: .5;"></line>
  <line x1="1106" y1="737" x2="1122" y2="721" style=" stroke: rgb(0, 0,0 );stroke-width: .5;"></line>
  <line x1="1117" y1="737" x2="1122" y2="732" style=" stroke: rgb(0, 0,0 );stroke-width: .5;"></line>
  <line x1="745" y1="407" x2="767" y2="429" style=" stroke: rgb(0, 0,0 );stroke-width: .5;"></line>
  <line x1="745" y1="397" x2="767" y2="419" style=" stroke: rgb(0, 0,0 );stroke-width: .5;"></line>
  <line x1="752" y1="393" x2="767" y2="408" style=" stroke: rgb(0, 0,0 );stroke-width: .5;"></line>
  <line x1="759" y1="390" x2="767" y2="397" style=" stroke: rgb(0, 0,0 );stroke-width: .5;"></line>
  <line x1="745" y1="418" x2="767" y2="440" style=" stroke: rgb(0, 0,0 );stroke-width: .5;"></line>
  <line x1="745" y1="428" x2="767" y2="450" style=" stroke: rgb(0, 0,0 );stroke-width: .5;"></line>
  <line x1="745" y1="439" x2="767" y2="461" style=" stroke: rgb(0, 0,0 );stroke-width: .5;"></line>
  <line x1="745" y1="450" x2="767" y2="472" style=" stroke: rgb(0, 0,0 );stroke-width: .5;"></line>
  <line x1="745" y1="460" x2="767" y2="482" style=" stroke: rgb(0, 0,0 );stroke-width: .5;"></line>
  <line x1="745" y1="471" x2="767" y2="493" style=" stroke: rgb(0, 0,0 );stroke-width: .5;"></line>
  <line x1="745" y1="481" x2="767" y2="503" style=" stroke: rgb(0, 0,0 );stroke-width: .5;"></line>
  <line x1="745" y1="492" x2="767" y2="514" style=" stroke: rgb(0, 0,0 );stroke-width: .5;"></line>
  <line x1="745" y1="503" x2="767" y2="525" style=" stroke: rgb(0, 0,0 );stroke-width: .5;"></line>
  <line x1="745" y1="513" x2="767" y2="535" style=" stroke: rgb(0, 0,0 );stroke-width: .5;"></line>
  <line x1="745" y1="524" x2="767" y2="546" style=" stroke: rgb(0, 0,0 );stroke-width: .5;"></line>
  <line x1="745" y1="534" x2="767" y2="557" style=" stroke: rgb(0, 0,0 );stroke-width: .5;"></line>
  <line x1="745" y1="545" x2="767" y2="567" style=" stroke: rgb(0, 0,0 );stroke-width: .5;"></line>
  <line x1="745" y1="556" x2="767" y2="578" style=" stroke: rgb(0, 0,0 );stroke-width: .5;"></line>
  <line x1="745" y1="566" x2="767" y2="588" style=" stroke: rgb(0, 0,0 );stroke-width: .5;"></line>
  <line x1="745" y1="577" x2="767" y2="599" style=" stroke: rgb(0, 0,0 );stroke-width: .5;"></line>
  <line x1="745" y1="587" x2="767" y2="610" style=" stroke: rgb(0, 0,0 );stroke-width: .5;"></line>
  <line x1="745" y1="598" x2="767" y2="620" style=" stroke: rgb(0, 0,0 );stroke-width: .5;"></line>
  <line x1="745" y1="609" x2="767" y2="631" style=" stroke: rgb(0, 0,0 );stroke-width: .5;"></line>
  <line x1="745" y1="619" x2="767" y2="641" style=" stroke: rgb(0, 0,0 );stroke-width: .5;"></line>
  <line x1="745" y1="630" x2="767" y2="652" style=" stroke: rgb(0, 0,0 );stroke-width: .5;"></line>
  <line x1="745" y1="640" x2="767" y2="663" style=" stroke: rgb(0, 0,0 );stroke-width: .5;"></line>
  <line x1="745" y1="651" x2="767" y2="673" style=" stroke: rgb(0, 0,0 );stroke-width: .5;"></line>
  <line x1="745" y1="662" x2="767" y2="684" style=" stroke: rgb(0, 0,0 );stroke-width: .5;"></line>
  <line x1="745" y1="672" x2="767" y2="694" style=" stroke: rgb(0, 0,0 );stroke-width: .5;"></line>
  <line x1="745" y1="683" x2="763" y2="701" style=" stroke: rgb(0, 0,0 );stroke-width: .5;"></line>
  <line x1="745" y1="694" x2="753" y2="701" style=" stroke: rgb(0, 0,0 );stroke-width: .5;"></line>
  <line x1="948" y1="417" x2="971" y2="439" style=" stroke: rgb(0, 0,0 );stroke-width: .5;"></line>
  <line x1="949" y1="406" x2="971" y2="428" style=" stroke: rgb(0, 0,0 );stroke-width: .5;"></line>
  <line x1="957" y1="404" x2="971" y2="418" style=" stroke: rgb(0, 0,0 );stroke-width: .5;"></line>
  <line x1="964" y1="400" x2="971" y2="407" style=" stroke: rgb(0, 0,0 );stroke-width: .5;"></line>
  <line x1="948" y1="427" x2="971" y2="449" style=" stroke: rgb(0, 0,0 );stroke-width: .5;"></line>
  <line x1="948" y1="438" x2="971" y2="460" style=" stroke: rgb(0, 0,0 );stroke-width: .5;"></line>
  <line x1="948" y1="448" x2="971" y2="471" style=" stroke: rgb(0, 0,0 );stroke-width: .5;"></line>
  <line x1="948" y1="459" x2="971" y2="481" style=" stroke: rgb(0, 0,0 );stroke-width: .5;"></line>
  <line x1="948" y1="470" x2="971" y2="492" style=" stroke: rgb(0, 0,0 );stroke-width: .5;"></line>
  <line x1="948" y1="480" x2="971" y2="502" style=" stroke: rgb(0, 0,0 );stroke-width: .5;"></line>
  <line x1="948" y1="491" x2="971" y2="513" style=" stroke: rgb(0, 0,0 );stroke-width: .5;"></line>
  <line x1="948" y1="502" x2="971" y2="524" style=" stroke: rgb(0, 0,0 );stroke-width: .5;"></line>
  <line x1="948" y1="512" x2="971" y2="534" style=" stroke: rgb(0, 0,0 );stroke-width: .5;"></line>
  <line x1="948" y1="523" x2="971" y2="545" style=" stroke: rgb(0, 0,0 );stroke-width: .5;"></line>
  <line x1="948" y1="533" x2="971" y2="555" style=" stroke: rgb(0, 0,0 );stroke-width: .5;"></line>
  <line x1="948" y1="544" x2="971" y2="566" style=" stroke: rgb(0, 0,0 );stroke-width: .5;"></line>
  <line x1="948" y1="555" x2="971" y2="577" style=" stroke: rgb(0, 0,0 );stroke-width: .5;"></line>
  <line x1="948" y1="565" x2="971" y2="587" style=" stroke: rgb(0, 0,0 );stroke-width: .5;"></line>
  <line x1="948" y1="576" x2="971" y2="598" style=" stroke: rgb(0, 0,0 );stroke-width: .5;"></line>
  <line x1="948" y1="586" x2="971" y2="608" style=" stroke: rgb(0, 0,0 );stroke-width: .5;"></line>
  <line x1="948" y1="597" x2="971" y2="619" style=" stroke: rgb(0, 0,0 );stroke-width: .5;"></line>
  <line x1="948" y1="608" x2="971" y2="630" style=" stroke: rgb(0, 0,0 );stroke-width: .5;"></line>
  <line x1="948" y1="618" x2="971" y2="640" style=" stroke: rgb(0, 0,0 );stroke-width: .5;"></line>
  <line x1="948" y1="629" x2="971" y2="651" style=" stroke: rgb(0, 0,0 );stroke-width: .5;"></line>
  <line x1="948" y1="639" x2="971" y2="662" style=" stroke: rgb(0, 0,0 );stroke-width: .5;"></line>
  <line x1="948" y1="650" x2="971" y2="672" style=" stroke: rgb(0, 0,0 );stroke-width: .5;"></line>
  <line x1="948" y1="661" x2="971" y2="683" style=" stroke: rgb(0, 0,0 );stroke-width: .5;"></line>
  <line x1="948" y1="671" x2="971" y2="693" style=" stroke: rgb(0, 0,0 );stroke-width: .5;"></line>
  <line x1="948" y1="682" x2="968" y2="701" style=" stroke: rgb(0, 0,0 );stroke-width: .5;"></line>
  <line x1="948" y1="692" x2="957" y2="701" style=" stroke: rgb(0, 0,0 );stroke-width: .5;"></line>
  <line x1="720" y1="658" x2="720" y2="679" style=" stroke: rgb(0, 0,0 );stroke-width: 2.5;"></line>
  <line x1="995" y1="658" x2="995" y2="679" style=" stroke: rgb(0, 0,0 );stroke-width: 2.5;"></line>
  <line x1="745" y1="701" x2="971" y2="701" style=" stroke: rgb(0, 0,0 );stroke-width: 2.5;"></line>
  <line x1="720" y1="658" x2="745" y2="658" style=" stroke: rgb(0, 0,0 );stroke-width: 2.5;"></line>
  <line x1="971" y1="658" x2="995" y2="658" style=" stroke: rgb(0, 0,0 );stroke-width: 2.5;"></line>
  <line x1="762" y1="701" x2="762" y2="752" style=" stroke: rgb(0, 0,0 );stroke-width: 2.5;"></line>
  <line x1="954" y1="701" x2="954" y2="752" style=" stroke: rgb(0, 0,0 );stroke-width: 2.5;"></line>
  <line x1="745" y1="701" x2="745" y2="658" style=" stroke: rgb(0, 0,0 );stroke-width: 2.5;"></line>
  <line x1="971" y1="701" x2="971" y2="658" style=" stroke: rgb(0, 0,0 );stroke-width: 2.5;"></line>
  <line x1="719" y1="648" x2="719" y2="239" style=" stroke: rgb(0, 0,0 );stroke-width: .9;"></line>
  <line x1="997" y1="648" x2="997" y2="236" style=" stroke: rgb(0, 0,0 );stroke-width: .9;"></line>
  <line x1="719" y1="255" x2="743" y2="262" style=" stroke: rgb(0, 0,0 );stroke-width: .9;"></line>
  <line x1="719" y1="255" x2="743" y2="248" style=" stroke: rgb(0, 0,0 );stroke-width: .9;"></line>
  <line x1="743" y1="248" x2="743" y2="262" style=" stroke: rgb(0, 0,0 );stroke-width: .9;"></line>
  <line x1="743" y1="255" x2="776" y2="255" style=" stroke: rgb(0, 0,0 );stroke-width: .9;"></line>
  <line x1="997" y1="255" x2="973" y2="262" style=" stroke: rgb(0, 0,0 );stroke-width: .9;"></line>
  <line x1="997" y1="255" x2="973" y2="248" style=" stroke: rgb(0, 0,0 );stroke-width: .9;"></line>
  <line x1="973" y1="248" x2="973" y2="262" style=" stroke: rgb(0, 0,0 );stroke-width: .9;"></line>
  <line x1="935" y1="255" x2="973" y2="255" style=" stroke: rgb(0, 0,0 );stroke-width: .9;"></line>
  <line x1="746" y1="357" x2="746" y2="383" style=" stroke: rgb(0, 0,0 );stroke-width: .9;"></line>
  <line x1="969" y1="360" x2="969" y2="381" style=" stroke: rgb(0, 0,0 );stroke-width: .9;"></line>
  <line x1="749" y1="658" x2="825" y2="658" style=" stroke: rgb(0, 0,0 );stroke-width: .9;"></line>
  <line x1="817" y1="635" x2="817" y2="617" style=" stroke: rgb(0, 0,0 );stroke-width: .9;"></line>
  <line x1="817" y1="658" x2="811" y2="635" style=" stroke: rgb(0, 0,0 );stroke-width: .9;"></line>
  <line x1="817" y1="658" x2="824" y2="635" style=" stroke: rgb(0, 0,0 );stroke-width: .9;"></line>
  <line x1="824" y1="635" x2="811" y2="635" style=" stroke: rgb(0, 0,0 );stroke-width: .9;"></line>
  <line x1="817" y1="744" x2="817" y2="725" style=" stroke: rgb(0, 0,0 );stroke-width: .9;"></line>
  <line x1="817" y1="702" x2="824" y2="725" style=" stroke: rgb(0, 0,0 );stroke-width: .9;"></line>
  <line x1="817" y1="702" x2="811" y2="725" style=" stroke: rgb(0, 0,0 );stroke-width: .9;"></line>
  <line x1="811" y1="725" x2="824" y2="725" style=" stroke: rgb(0, 0,0 );stroke-width: .9;"></line>
  <line x1="1243" y1="222" x2="1231" y2="194" style=" stroke: rgb(0, 0,0 );stroke-width: 2.5;"></line>
  <line x1="1231" y1="194" x2="1212" y2="194" style=" stroke: rgb(0, 0,0 );stroke-width: 2.5;"></line>
  <line x1="1243" y1="222" x2="1287" y2="222" style=" stroke: rgb(0, 0,0 );stroke-width: 2.5;"></line>
  <line x1="1200" y1="222" x2="1140" y2="222" style=" stroke: rgb(0, 0,0 );stroke-width: 2.5;"></line>
  <line x1="1140" y1="222" x2="1138" y2="193" style=" stroke: rgb(0, 0,0 );stroke-width: 2.5;"></line>
  <line x1="1138" y1="193" x2="1143" y2="175" style=" stroke: rgb(0, 0,0 );stroke-width: 2.5;"></line>
  <line x1="1143" y1="175" x2="1141" y2="150" style=" stroke: rgb(0, 0,0 );stroke-width: 2.5;"></line>
  <line x1="1141" y1="150" x2="1163" y2="146" style=" stroke: rgb(0, 0,0 );stroke-width: 2.5;"></line>
  <line x1="1163" y1="146" x2="1204" y2="153" style=" stroke: rgb(0, 0,0 );stroke-width: 2.5;"></line>
  <line x1="1204" y1="153" x2="1240" y2="143" style=" stroke: rgb(0, 0,0 );stroke-width: 2.5;"></line>
  <line x1="1240" y1="143" x2="1271" y2="139" style=" stroke: rgb(0, 0,0 );stroke-width: 2.5;"></line>
  <line x1="1271" y1="139" x2="1299" y2="150" style=" stroke: rgb(0, 0,0 );stroke-width: 2.5;"></line>
  <line x1="1299" y1="150" x2="1319" y2="157" style=" stroke: rgb(0, 0,0 );stroke-width: 2.5;"></line>
  <line x1="1319" y1="157" x2="1311" y2="190" style=" stroke: rgb(0, 0,0 );stroke-width: 2.5;"></line>
  <line x1="1311" y1="190" x2="1298" y2="199" style=" stroke: rgb(0, 0,0 );stroke-width: 2.5;"></line>
  <line x1="1298" y1="199" x2="1287" y2="222" style=" stroke: rgb(0, 0,0 );stroke-width: 2.5;"></line>
  <line x1="1239" y1="194" x2="1461" y2="194" style=" stroke: rgb(0, 0,0 );stroke-width: .9;"></line>
  <line x1="1295" y1="222" x2="1461" y2="222" style=" stroke: rgb(0, 0,0 );stroke-width: .9;"></line>
  <line x1="1200" y1="230" x2="1200" y2="304" style=" stroke: rgb(0, 0,0 );stroke-width: .9;"></line>
  <line x1="1243" y1="230" x2="1243" y2="304" style=" stroke: rgb(0, 0,0 );stroke-width: .9;"></line>
  <line x1="1168" y1="298" x2="1196" y2="231" style=" stroke: rgb(0, 0,0 );stroke-width: .9;"></line>
  <line x1="1200" y1="222" x2="1212" y2="194" style=" stroke: rgb(0, 0,0 );stroke-width: 2.5;"></line>
  <line x1="1219" y1="296" x2="1223" y2="296" style=" stroke: rgb(0, 0,0 );stroke-width: .9;"></line>
  <line x1="1453" y1="170" x2="1453" y2="159" style=" stroke: rgb(0, 0,0 );stroke-width: .9;"></line>
  <line x1="1154" y1="281" x2="1149" y2="278" style=" stroke: rgb(0, 0,0 );stroke-width: .9;"></line>
  <line x1="1149" y1="278" x2="1139" y2="278" style=" stroke: rgb(0, 0,0 );stroke-width: .9;"></line>
  <line x1="1200" y1="296" x2="1219" y2="291" style=" stroke: rgb(0, 0,0 );stroke-width: .9;"></line>
  <line x1="1200" y1="296" x2="1219" y2="301" style=" stroke: rgb(0, 0,0 );stroke-width: .9;"></line>
  <line x1="1223" y1="301" x2="1223" y2="291" style=" stroke: rgb(0, 0,0 );stroke-width: .9;"></line>
  <line x1="1243" y1="296" x2="1223" y2="291" style=" stroke: rgb(0, 0,0 );stroke-width: .9;"></line>
  <line x1="1243" y1="296" x2="1223" y2="301" style=" stroke: rgb(0, 0,0 );stroke-width: .9;"></line>
  <line x1="1219" y1="301" x2="1219" y2="291" style=" stroke: rgb(0, 0,0 );stroke-width: .9;"></line>
  <line x1="1151" y1="286" x2="1156" y2="276" style=" stroke: rgb(0, 0,0 );stroke-width: .9;"></line>
  <line x1="1171" y1="290" x2="1156" y2="276" style=" stroke: rgb(0, 0,0 );stroke-width: .9;"></line>
  <line x1="1171" y1="290" x2="1151" y2="286" style=" stroke: rgb(0, 0,0 );stroke-width: .9;"></line>
  <line x1="1453" y1="194" x2="1447" y2="170" style=" stroke: rgb(0, 0,0 );stroke-width: .9;"></line>
  <line x1="1453" y1="194" x2="1460" y2="170" style=" stroke: rgb(0, 0,0 );stroke-width: .9;"></line>
  <line x1="1460" y1="170" x2="1447" y2="170" style=" stroke: rgb(0, 0,0 );stroke-width: .9;"></line>
  <line x1="1460" y1="246" x2="1453" y2="222" style=" stroke: rgb(0, 0,0 );stroke-width: .9;"></line>
  <line x1="1447" y1="246" x2="1453" y2="222" style=" stroke: rgb(0, 0,0 );stroke-width: .9;"></line>
  <line x1="1447" y1="246" x2="1460" y2="246" style=" stroke: rgb(0, 0,0 );stroke-width: .9;"></line>
  <line x1="1453" y1="246" x2="1453" y2="259" style=" stroke: rgb(0, 0,0 );stroke-width: .9;"></line>
  <line x1="593" y1="679" x2="593" y2="737" style=" stroke: rgb(0, 0,0 );stroke-width: 2.5;"></line>
  <line x1="1122" y1="679" x2="1122" y2="737" style=" stroke: rgb(0, 0,0 );stroke-width: 2.5;"></line>
  <line x1="995" y1="679" x2="1122" y2="679" style=" stroke: rgb(0, 0,0 );stroke-width: 2.5;"></line>
  <line x1="695" y1="737" x2="695" y2="752" style=" stroke: rgb(0, 0,0 );stroke-width: 2.5;"></line>
  <line x1="1020" y1="737" x2="1020" y2="752" style=" stroke: rgb(0, 0,0 );stroke-width: 2.5;"></line>
  <line x1="593" y1="737" x2="695" y2="737" style=" stroke: rgb(0, 0,0 );stroke-width: 2.5;"></line>
  <line x1="1020" y1="737" x2="1122" y2="737" style=" stroke: rgb(0, 0,0 );stroke-width: 2.5;"></line>
  <line x1="614" y1="679" x2="614" y2="737" style=" stroke: rgb(0, 0,0 );stroke-width: 2.5;"></line>
  <line x1="683" y1="679" x2="683" y2="737" style=" stroke: rgb(0, 0,0 );stroke-width: 2.5;"></line>
  <line x1="1032" y1="679" x2="1032" y2="737" style=" stroke: rgb(0, 0,0 );stroke-width: 2.5;"></line>
  <line x1="1102" y1="679" x2="1102" y2="737" style=" stroke: rgb(0, 0,0 );stroke-width: 2.5;"></line>
  <line x1="585" y1="737" x2="450" y2="737" style=" stroke: rgb(0, 0,0 );stroke-width: .9;"></line>
  <line x1="687" y1="752" x2="450" y2="752" style=" stroke: rgb(0, 0,0 );stroke-width: .9;"></line>
  <line x1="458" y1="713" x2="458" y2="688" style=" stroke: rgb(0, 0,0 );stroke-width: .9;"></line>
  <line x1="458" y1="801" x2="458" y2="775" style=" stroke: rgb(0, 0,0 );stroke-width: .9;"></line>
  <line x1="458" y1="801" x2="353" y2="801" style=" stroke: rgb(0, 0,0 );stroke-width: .9;"></line>
  <line x1="593" y1="745" x2="593" y2="985" style=" stroke: rgb(0, 0,0 );stroke-width: .9;"></line>
  <line x1="648" y1="771" x2="648" y2="934" style=" stroke: rgb(0, 0,0 );stroke-width: .9;"></line>
  <line x1="695" y1="760" x2="695" y2="881" style=" stroke: rgb(0, 0,0 );stroke-width: .9;"></line>
  <line x1="1020" y1="760" x2="1020" y2="881" style=" stroke: rgb(0, 0,0 );stroke-width: .9;"></line>
  <line x1="1067" y1="762" x2="1067" y2="934" style=" stroke: rgb(0, 0,0 );stroke-width: .9;"></line>
  <line x1="1122" y1="745" x2="1122" y2="985" style=" stroke: rgb(0, 0,0 );stroke-width: .9;"></line>
  <line x1="732" y1="752" x2="727" y2="740" style=" stroke: rgb(0, 0,0 );stroke-width: 2.5;"></line>
  <line x1="714" y1="752" x2="719" y2="740" style=" stroke: rgb(0, 0,0 );stroke-width: 2.5;"></line>
  <line x1="719" y1="740" x2="727" y2="740" style=" stroke: rgb(0, 0,0 );stroke-width: 2.5;"></line>
  <line x1="695" y1="752" x2="714" y2="752" style=" stroke: rgb(0, 0,0 );stroke-width: 2.5;"></line>
  <line x1="984" y1="752" x2="989" y2="740" style=" stroke: rgb(0, 0,0 );stroke-width: 2.5;"></line>
  <line x1="1002" y1="752" x2="997" y2="740" style=" stroke: rgb(0, 0,0 );stroke-width: 2.5;"></line>
  <line x1="997" y1="740" x2="989" y2="740" style=" stroke: rgb(0, 0,0 );stroke-width: 2.5;"></line>
  <line x1="732" y1="752" x2="984" y2="752" style=" stroke: rgb(0, 0,0 );stroke-width: 2.5;"></line>
  <line x1="1002" y1="752" x2="1020" y2="752" style=" stroke: rgb(0, 0,0 );stroke-width: 2.5;"></line>
  <line x1="723" y1="748" x2="723" y2="828" style=" stroke: rgb(0, 0,0 );stroke-width: .9;"></line>
  <line x1="993" y1="748" x2="993" y2="828" style=" stroke: rgb(0, 0,0 );stroke-width: .9;"></line>
  <line x1="723" y1="820" x2="746" y2="826" style=" stroke: rgb(0, 0,0 );stroke-width: .9;"></line>
  <line x1="746" y1="826" x2="746" y2="813" style=" stroke: rgb(0, 0,0 );stroke-width: .9;"></line>
  <line x1="695" y1="873" x2="719" y2="866" style=" stroke: rgb(0, 0,0 );stroke-width: .9;"></line>
  <line x1="695" y1="873" x2="719" y2="879" style=" stroke: rgb(0, 0,0 );stroke-width: .9;"></line>
  <line x1="719" y1="879" x2="719" y2="866" style=" stroke: rgb(0, 0,0 );stroke-width: .9;"></line>
  <line x1="648" y1="926" x2="672" y2="919" style=" stroke: rgb(0, 0,0 );stroke-width: .9;"></line>
  <line x1="648" y1="926" x2="672" y2="932" style=" stroke: rgb(0, 0,0 );stroke-width: .9;"></line>
  <line x1="672" y1="932" x2="672" y2="919" style=" stroke: rgb(0, 0,0 );stroke-width: .9;"></line>
  <line x1="593" y1="977" x2="617" y2="971" style=" stroke: rgb(0, 0,0 );stroke-width: .9;"></line>
  <line x1="593" y1="978" x2="617" y2="985" style=" stroke: rgb(0, 0,0 );stroke-width: .9;"></line>
  <line x1="617" y1="984" x2="617" y2="971" style=" stroke: rgb(0, 0,0 );stroke-width: .9;"></line>
  <line x1="993" y1="820" x2="969" y2="826" style=" stroke: rgb(0, 0,0 );stroke-width: .9;"></line>
  <line x1="993" y1="820" x2="969" y2="813" style=" stroke: rgb(0, 0,0 );stroke-width: .9;"></line>
  <line x1="969" y1="813" x2="969" y2="826" style=" stroke: rgb(0, 0,0 );stroke-width: .9;"></line>
  <line x1="1020" y1="873" x2="996" y2="879" style=" stroke: rgb(0, 0,0 );stroke-width: .9;"></line>
  <line x1="1020" y1="873" x2="996" y2="866" style=" stroke: rgb(0, 0,0 );stroke-width: .9;"></line>
  <line x1="996" y1="866" x2="996" y2="879" style=" stroke: rgb(0, 0,0 );stroke-width: .9;"></line>
  <line x1="1067" y1="926" x2="1043" y2="932" style=" stroke: rgb(0, 0,0 );stroke-width: .9;"></line>
  <line x1="1067" y1="926" x2="1043" y2="919" style=" stroke: rgb(0, 0,0 );stroke-width: .9;"></line>
  <line x1="1043" y1="919" x2="1043" y2="932" style=" stroke: rgb(0, 0,0 );stroke-width: .9;"></line>
  <line x1="1122" y1="977" x2="1099" y2="984" style=" stroke: rgb(0, 0,0 );stroke-width: .9;"></line>
  <line x1="1122" y1="977" x2="1099" y2="971" style=" stroke: rgb(0, 0,0 );stroke-width: .9;"></line>
  <line x1="1099" y1="971" x2="1099" y2="984" style=" stroke: rgb(0, 0,0 );stroke-width: .9;"></line>
  <line x1="458" y1="752" x2="465" y2="775" style=" stroke: rgb(0, 0,0 );stroke-width: .9;"></line>
  <line x1="458" y1="752" x2="452" y2="775" style=" stroke: rgb(0, 0,0 );stroke-width: .9;"></line>
  <line x1="452" y1="775" x2="465" y2="775" style=" stroke: rgb(0, 0,0 );stroke-width: .9;"></line>
  <line x1="458" y1="737" x2="452" y2="713" style=" stroke: rgb(0, 0,0 );stroke-width: .9;"></line>
  <line x1="458" y1="737" x2="465" y2="713" style=" stroke: rgb(0, 0,0 );stroke-width: .9;"></line>
  <line x1="465" y1="713" x2="452" y2="713" style=" stroke: rgb(0, 0,0 );stroke-width: .9;"></line>
  <line x1="593" y1="679" x2="720" y2="679" style=" stroke: rgb(0, 0,0 );stroke-width: 2.5;"></line>
  <line x1="723" y1="820" x2="746" y2="813" style=" stroke: rgb(0, 0,0 );stroke-width: .9;"></line>
  <line x1="746" y1="820" x2="969" y2="820" style=" stroke: rgb(0, 0,0 );stroke-width: .9;"></line>
  <line x1="719" y1="873" x2="996" y2="873" style=" stroke: rgb(0, 0,0 );stroke-width: .9;"></line>
  <line x1="672" y1="926" x2="1043" y2="926" style=" stroke: rgb(0, 0,0 );stroke-width: .9;"></line>
  <line x1="617" y1="977" x2="1099" y2="977" style=" stroke: rgb(0, 0,0 );stroke-width: .9;"></line>
  <line x1="969" y1="360" x2="969" y2="298" style=" stroke: rgb(0, 0,0 );stroke-width: .9;"></line>
  <line x1="969" y1="309" x2="945" y2="315" style=" stroke: rgb(0, 0,0 );stroke-width: .9;"></line>
  <line x1="969" y1="309" x2="945" y2="302" style=" stroke: rgb(0, 0,0 );stroke-width: .9;"></line>
  <line x1="945" y1="302" x2="945" y2="315" style=" stroke: rgb(0, 0,0 );stroke-width: .9;"></line>
  <line x1="746" y1="309" x2="770" y2="315" style=" stroke: rgb(0, 0,0 );stroke-width: .9;"></line>
  <line x1="746" y1="309" x2="770" y2="302" style=" stroke: rgb(0, 0,0 );stroke-width: .9;"></line>
  <line x1="770" y1="302" x2="770" y2="315" style=" stroke: rgb(0, 0,0 );stroke-width: .9;"></line>
  <line x1="746" y1="357" x2="746" y2="296" style=" stroke: rgb(0, 0,0 );stroke-width: .9;"></line>
  <line x1="746" y1="255" x2="971" y2="255" style=" stroke: rgb(0, 0,0 );stroke-width: .9;"></line>
  <line x1="770" y1="309" x2="945" y2="309" style=" stroke: rgb(0, 0,0 );stroke-width: .9;"></line>
  <line x1="1130" y1="737" x2="1386" y2="737" style=" stroke: rgb(0, 0,0 );stroke-width: .9;"></line>
  <line x1="1245" y1="760" x2="1258" y2="760" style=" stroke: rgb(0, 0,0 );stroke-width: .9;"></line>
  <line x1="1251" y1="737" x2="1258" y2="760" style=" stroke: rgb(0, 0,0 );stroke-width: .9;"></line>
  <line x1="1251" y1="737" x2="1245" y2="760" style=" stroke: rgb(0, 0,0 );stroke-width: .9;"></line>
  <line x1="1251" y1="760" x2="1251" y2="782" style=" stroke: rgb(0, 0,0 );stroke-width: .9;"></line>
  <line x1="1370" y1="760" x2="1383" y2="760" style=" stroke: rgb(0, 0,0 );stroke-width: .9;"></line>
  <line x1="1376" y1="737" x2="1383" y2="760" style=" stroke: rgb(0, 0,0 );stroke-width: .9;"></line>
  <line x1="1376" y1="737" x2="1370" y2="760" style=" stroke: rgb(0, 0,0 );stroke-width: .9;"></line>
  <line x1="1376" y1="760" x2="1376" y2="782" style=" stroke: rgb(0, 0,0 );stroke-width: .9;"></line>
  <line x1="1265" y1="658" x2="1386" y2="658" style=" stroke: rgb(0, 0,0 );stroke-width: .9;"></line>
  <line x1="1002" y1="658" x2="1237" y2="658" style=" stroke: rgb(0, 0,0 );stroke-width: .9;"></line>
  <line x1="1130" y1="678" x2="1263" y2="678" style=" stroke: rgb(0, 0,0 );stroke-width: .9;"></line>
  <line x1="1251" y1="633" x2="1251" y2="655" style=" stroke: rgb(0, 0,0 );stroke-width: .9;"></line>
  <line x1="1258" y1="655" x2="1245" y2="655" style=" stroke: rgb(0, 0,0 );stroke-width: .9;"></line>
  <line x1="1251" y1="678" x2="1258" y2="655" style=" stroke: rgb(0, 0,0 );stroke-width: .9;"></line>
  <line x1="1251" y1="678" x2="1245" y2="655" style=" stroke: rgb(0, 0,0 );stroke-width: .9;"></line>
  <line x1="1376" y1="658" x2="1370" y2="634" style=" stroke: rgb(0, 0,0 );stroke-width: .9;"></line>
  <line x1="1376" y1="658" x2="1383" y2="634" style=" stroke: rgb(0, 0,0 );stroke-width: .9;"></line>
  <line x1="1383" y1="634" x2="1370" y2="634" style=" stroke: rgb(0, 0,0 );stroke-width: .9;"></line>
  <line x1="1376" y1="611" x2="1376" y2="634" style=" stroke: rgb(0, 0,0 );stroke-width: .9;"></line>
  <line x1="744" y1="397" x2="761" y2="389" style=" stroke: rgb(0, 0,0 );stroke-width: .5;"></line>
  <line x1="761" y1="389" x2="776" y2="385" style=" stroke: rgb(0, 0,0 );stroke-width: .5;"></line>
  <line x1="776" y1="385" x2="792" y2="383" style=" stroke: rgb(0, 0,0 );stroke-width: .5;"></line>
  <line x1="792" y1="383" x2="809" y2="382" style=" stroke: rgb(0, 0,0 );stroke-width: .5;"></line>
  <line x1="809" y1="382" x2="826" y2="385" style=" stroke: rgb(0, 0,0 );stroke-width: .5;"></line>
  <line x1="826" y1="385" x2="843" y2="390" style=" stroke: rgb(0, 0,0 );stroke-width: .5;"></line>
  <line x1="843" y1="390" x2="858" y2="397" style=" stroke: rgb(0, 0,0 );stroke-width: .5;"></line>
  <line x1="858" y1="397" x2="872" y2="404" style=" stroke: rgb(0, 0,0 );stroke-width: .5;"></line>
  <line x1="872" y1="404" x2="889" y2="409" style=" stroke: rgb(0, 0,0 );stroke-width: .5;"></line>
  <line x1="889" y1="409" x2="906" y2="411" style=" stroke: rgb(0, 0,0 );stroke-width: .5;"></line>
  <line x1="906" y1="411" x2="923" y2="411" style=" stroke: rgb(0, 0,0 );stroke-width: .5;"></line>
  <line x1="923" y1="411" x2="938" y2="409" style=" stroke: rgb(0, 0,0 );stroke-width: .5;"></line>
  <line x1="938" y1="409" x2="955" y2="404" style=" stroke: rgb(0, 0,0 );stroke-width: .5;"></line>
  <line x1="955" y1="404" x2="971" y2="397" style=" stroke: rgb(0, 0,0 );stroke-width: .5;"></line>
  <line x1="648" y1="679" x2="629" y2="663" style=" stroke: rgb(0, 0,0 );stroke-width: .9;"></line>
  <line x1="648" y1="679" x2="640" y2="656" style=" stroke: rgb(0, 0,0 );stroke-width: .9;"></line>
  <line x1="640" y1="656" x2="629" y2="663" style=" stroke: rgb(0, 0,0 );stroke-width: .9;"></line>
  <line x1="635" y1="659" x2="581" y2="583" style=" stroke: rgb(0, 0,0 );stroke-width: .9;"></line>
</svg>
